<svg width="27" height="25" viewBox="0 0 27 25" fill="none" xmlns="http://www.w3.org/2000/svg">
<path d="M13.5 0C6.048 0 0 5.6 0 12.5C0 19.4 6.048 25 13.5 25C20.952 25 27 19.4 27 12.5C27 5.6 20.952 0 13.5 0ZM13.5 3.75C15.741 3.75 17.55 5.425 17.55 7.5C17.55 9.575 15.741 11.25 13.5 11.25C11.259 11.25 9.45 9.575 9.45 7.5C9.45 5.425 11.259 3.75 13.5 3.75ZM13.5 21.5C10.125 21.5 7.1415 19.9 5.4 17.475C5.4405 14.9875 10.8 13.625 13.5 13.625C16.1865 13.625 21.5595 14.9875 21.6 17.475C19.8585 19.9 16.875 21.5 13.5 21.5Z" fill="#BDD0FB"/>
</svg>
