<svg width="1301" height="536" viewBox="0 0 1301 536" fill="none" xmlns="http://www.w3.org/2000/svg">
<path d="M993.587 332.36H826.076C823.849 332.36 822.043 334.679 822.043 337.541V342.442C822.043 345.303 823.849 347.623 826.076 347.623H993.587C995.814 347.623 997.62 345.303 997.62 342.442V337.541C997.62 334.679 995.814 332.36 993.587 332.36Z" fill="url(#paint0_linear_329_1471)"/>
<mask id="mask0_329_1471" style="mask-type:alpha" maskUnits="userSpaceOnUse" x="61" y="107" width="955" height="429">
<path d="M61.4199 536H563.456L766.975 441.951H1014.61L1015.61 155.022L949.096 107.997H61.4199V536Z" fill="white"/>
</mask>
<g mask="url(#mask0_329_1471)">
<path d="M81.2736 0H63.2817V428.003H81.2736V0Z" fill="url(#paint1_linear_329_1471)"/>
<path d="M99.2653 0H81.2734V428.003H99.2653V0Z" fill="url(#paint2_linear_329_1471)"/>
<path d="M117.258 0H99.2661V428.003H117.258V0Z" fill="url(#paint3_linear_329_1471)"/>
<path d="M135.249 0H117.257V428.003H135.249V0Z" fill="url(#paint4_linear_329_1471)"/>
<path d="M153.241 0H135.25V428.003H153.241V0Z" fill="url(#paint5_linear_329_1471)"/>
<path d="M171.233 0H153.241V428.003H171.233V0Z" fill="url(#paint6_linear_329_1471)"/>
<path d="M189.225 0H171.233V428.003H189.225V0Z" fill="url(#paint7_linear_329_1471)"/>
<path d="M207.217 0H189.226V428.003H207.217V0Z" fill="url(#paint8_linear_329_1471)"/>
<path d="M225.209 0H207.217V428.003H225.209V0Z" fill="url(#paint9_linear_329_1471)"/>
<path d="M243.201 0H225.209V428.003H243.201V0Z" fill="url(#paint10_linear_329_1471)"/>
<path d="M261.193 0H243.201V428.003H261.193V0Z" fill="url(#paint11_linear_329_1471)"/>
<path d="M279.184 0H261.192V428.003H279.184V0Z" fill="url(#paint12_linear_329_1471)"/>
<path d="M297.176 0H279.184V428.003H297.176V0Z" fill="url(#paint13_linear_329_1471)"/>
<path d="M315.169 0H297.177V428.003H315.169V0Z" fill="url(#paint14_linear_329_1471)"/>
<path d="M333.16 0H315.168V428.003H333.16V0Z" fill="url(#paint15_linear_329_1471)"/>
<path d="M351.153 0H333.161V428.003H351.153V0Z" fill="url(#paint16_linear_329_1471)"/>
<path d="M369.144 0H351.152V428.003H369.144V0Z" fill="url(#paint17_linear_329_1471)"/>
<path d="M387.135 0H369.144V428.003H387.135V0Z" fill="url(#paint18_linear_329_1471)"/>
<path d="M405.128 0H387.136V428.003H405.128V0Z" fill="url(#paint19_linear_329_1471)"/>
<path d="M423.12 0H405.128V428.003H423.12V0Z" fill="url(#paint20_linear_329_1471)"/>
<path d="M441.112 0H423.12V428.003H441.112V0Z" fill="url(#paint21_linear_329_1471)"/>
<path d="M459.104 0H441.112V428.003H459.104V0Z" fill="url(#paint22_linear_329_1471)"/>
<path d="M477.095 0H459.104V428.003H477.095V0Z" fill="url(#paint23_linear_329_1471)"/>
<path d="M495.087 0H477.095V428.003H495.087V0Z" fill="url(#paint24_linear_329_1471)"/>
<path d="M513.079 0H495.087V428.003H513.079V0Z" fill="url(#paint25_linear_329_1471)"/>
<path d="M531.071 0H513.079V428.003H531.071V0Z" fill="url(#paint26_linear_329_1471)"/>
<path d="M549.063 0H531.071V428.003H549.063V0Z" fill="url(#paint27_linear_329_1471)"/>
<path d="M567.055 0H549.063V428.003H567.055V0Z" fill="url(#paint28_linear_329_1471)"/>
<path d="M585.047 0H567.055V428.003H585.047V0Z" fill="url(#paint29_linear_329_1471)"/>
<path d="M603.039 0H585.047V428.003H603.039V0Z" fill="url(#paint30_linear_329_1471)"/>
<path d="M621.031 0H603.039V428.003H621.031V0Z" fill="url(#paint31_linear_329_1471)"/>
<path d="M639.023 0H621.031V428.003H639.023V0Z" fill="url(#paint32_linear_329_1471)"/>
<path d="M657.014 0H639.022V428.003H657.014V0Z" fill="url(#paint33_linear_329_1471)"/>
<path d="M675.006 0H657.014V428.003H675.006V0Z" fill="url(#paint34_linear_329_1471)"/>
<path d="M692.998 0H675.006V428.003H692.998V0Z" fill="url(#paint35_linear_329_1471)"/>
<path d="M710.99 0H692.998V428.003H710.99V0Z" fill="url(#paint36_linear_329_1471)"/>
<path d="M728.982 0H710.99V428.003H728.982V0Z" fill="url(#paint37_linear_329_1471)"/>
<path d="M746.974 0H728.982V428.003H746.974V0Z" fill="url(#paint38_linear_329_1471)"/>
<path d="M764.966 0H746.974V428.003H764.966V0Z" fill="url(#paint39_linear_329_1471)"/>
<path d="M782.957 0H764.965V428.003H782.957V0Z" fill="url(#paint40_linear_329_1471)"/>
<path d="M800.949 0H782.958V428.003H800.949V0Z" fill="url(#paint41_linear_329_1471)"/>
<path d="M818.941 0H800.949V428.003H818.941V0Z" fill="url(#paint42_linear_329_1471)"/>
<path d="M836.933 0H818.941V428.003H836.933V0Z" fill="url(#paint43_linear_329_1471)"/>
<path d="M854.925 0H836.934V428.003H854.925V0Z" fill="url(#paint44_linear_329_1471)"/>
<path d="M872.917 0H854.925V428.003H872.917V0Z" fill="url(#paint45_linear_329_1471)"/>
<path d="M890.908 0H872.917V428.003H890.908V0Z" fill="url(#paint46_linear_329_1471)"/>
<path d="M908.901 0H890.909V428.003H908.901V0Z" fill="url(#paint47_linear_329_1471)"/>
<path d="M926.893 0H908.901V428.003H926.893V0Z" fill="url(#paint48_linear_329_1471)"/>
<path d="M944.885 0H926.893V428.003H944.885V0Z" fill="url(#paint49_linear_329_1471)"/>
<path d="M962.877 0H944.885V428.003H962.877V0Z" fill="url(#paint50_linear_329_1471)"/>
<path d="M980.868 0H962.876V428.003H980.868V0Z" fill="url(#paint51_linear_329_1471)"/>
<path d="M998.86 0H980.868V428.003H998.86V0Z" fill="url(#paint52_linear_329_1471)"/>
<path d="M1016.85 0H998.86V428.003H1016.85V0Z" fill="url(#paint53_linear_329_1471)"/>
</g>
<path d="M776.753 342.721H1162.65V363.579C1162.65 375.804 1158.87 387.527 1152.14 396.171C1145.41 404.815 1136.29 409.671 1126.77 409.671H776.753V342.721Z" fill="#232323"/>
<path opacity="0.61" d="M650.5 491.765C1009.76 491.765 1301 481.417 1301 468.651C1301 455.886 1009.76 445.537 650.5 445.537C291.239 445.537 0 455.886 0 468.651C0 481.417 291.239 491.765 650.5 491.765Z" fill="url(#paint54_radial_329_1471)"/>
<path d="M1106.19 472.636C1128.81 472.636 1147.14 448.728 1147.14 419.236C1147.14 389.743 1128.81 365.835 1106.19 365.835C1083.58 365.835 1065.24 389.743 1065.24 419.236C1065.24 448.728 1083.58 472.636 1106.19 472.636Z" fill="url(#paint55_radial_329_1471)"/>
<path d="M1106.19 451.866C1120.01 451.866 1131.21 437.257 1131.21 419.236C1131.21 401.215 1120.01 386.605 1106.19 386.605C1092.37 386.605 1081.17 401.215 1081.17 419.236C1081.17 437.257 1092.37 451.866 1106.19 451.866Z" fill="url(#paint56_radial_329_1471)"/>
<path d="M1106.48 398.473C1106.95 398.473 1107.33 397.974 1107.33 397.357C1107.33 396.741 1106.95 396.241 1106.48 396.241C1106 396.241 1105.62 396.741 1105.62 397.357C1105.62 397.974 1106 398.473 1106.48 398.473Z" fill="black"/>
<path d="M1099.36 400.362C1099.83 400.362 1100.22 399.863 1100.22 399.246C1100.22 398.63 1099.83 398.13 1099.36 398.13C1098.89 398.13 1098.5 398.63 1098.5 399.246C1098.5 399.863 1098.89 400.362 1099.36 400.362Z" fill="black"/>
<path d="M1093.52 406.005C1094 406.005 1094.38 405.506 1094.38 404.889C1094.38 404.273 1094 403.773 1093.52 403.773C1093.05 403.773 1092.67 404.273 1092.67 404.889C1092.67 405.506 1093.05 406.005 1093.52 406.005Z" fill="black"/>
<path d="M1090.06 414.334C1090.53 414.334 1090.92 413.834 1090.92 413.218C1090.92 412.602 1090.53 412.102 1090.06 412.102C1089.59 412.102 1089.2 412.602 1089.2 413.218C1089.2 413.834 1089.59 414.334 1090.06 414.334Z" fill="black"/>
<path d="M1089.62 423.787C1090.09 423.787 1090.47 423.287 1090.47 422.671C1090.47 422.055 1090.09 421.555 1089.62 421.555C1089.15 421.555 1088.77 422.055 1088.77 422.671C1088.77 423.287 1089.15 423.787 1089.62 423.787Z" fill="black"/>
<path d="M1092.29 432.594C1092.76 432.594 1093.14 432.094 1093.14 431.478C1093.14 430.862 1092.76 430.362 1092.29 430.362C1091.81 430.362 1091.43 430.862 1091.43 431.478C1091.43 432.094 1091.81 432.594 1092.29 432.594Z" fill="black"/>
<path d="M1097.56 439.114C1098.02 439.114 1098.4 438.614 1098.4 437.998C1098.4 437.382 1098.02 436.882 1097.56 436.882C1097.09 436.882 1096.71 437.382 1096.71 437.998C1096.71 438.614 1097.09 439.114 1097.56 439.114Z" fill="black"/>
<path d="M1104.45 442.118C1104.92 442.118 1105.3 441.619 1105.3 441.002C1105.3 440.386 1104.92 439.886 1104.45 439.886C1103.98 439.886 1103.6 440.386 1103.6 441.002C1103.6 441.619 1103.98 442.118 1104.45 442.118Z" fill="black"/>
<path d="M1111.66 441.042C1112.14 441.042 1112.52 440.543 1112.52 439.927C1112.52 439.31 1112.14 438.811 1111.66 438.811C1111.19 438.811 1110.81 439.31 1110.81 439.927C1110.81 440.543 1111.19 441.042 1111.66 441.042Z" fill="black"/>
<path d="M1117.85 436.085C1118.33 436.085 1118.71 435.585 1118.71 434.969C1118.71 434.353 1118.33 433.853 1117.85 433.853C1117.38 433.853 1117 434.353 1117 434.969C1117 435.585 1117.38 436.085 1117.85 436.085Z" fill="black"/>
<path d="M1121.86 428.186C1122.33 428.186 1122.71 427.687 1122.71 427.07C1122.71 426.454 1122.33 425.955 1121.86 425.955C1121.38 425.955 1121 426.454 1121 427.07C1121 427.687 1121.38 428.186 1121.86 428.186Z" fill="black"/>
<path d="M1122.93 418.813C1123.4 418.813 1123.79 418.314 1123.79 417.697C1123.79 417.081 1123.4 416.582 1122.93 416.582C1122.46 416.582 1122.07 417.081 1122.07 417.697C1122.07 418.314 1122.46 418.813 1122.93 418.813Z" fill="black"/>
<path d="M1120.86 409.735C1121.33 409.735 1121.71 409.236 1121.71 408.619C1121.71 408.003 1121.33 407.504 1120.86 407.504C1120.39 407.504 1120.01 408.003 1120.01 408.619C1120.01 409.236 1120.39 409.735 1120.86 409.735Z" fill="black"/>
<path d="M1116.05 402.641C1116.52 402.641 1116.9 402.142 1116.9 401.526C1116.9 400.909 1116.52 400.41 1116.05 400.41C1115.58 400.41 1115.2 400.909 1115.2 401.526C1115.2 402.142 1115.58 402.641 1116.05 402.641Z" fill="black"/>
<path d="M838.794 471.042C861.409 471.042 879.741 447.134 879.741 417.642C879.741 388.149 861.409 364.241 838.794 364.241C816.18 364.241 797.847 388.149 797.847 417.642C797.847 447.134 816.18 471.042 838.794 471.042Z" fill="url(#paint57_radial_329_1471)"/>
<path d="M838.794 446.334C850.944 446.334 860.794 433.488 860.794 417.642C860.794 401.795 850.944 388.949 838.794 388.949C826.644 388.949 816.794 401.795 816.794 417.642C816.794 433.488 826.644 446.334 838.794 446.334Z" fill="url(#paint58_radial_329_1471)"/>
<path d="M839.08 396.879C839.553 396.879 839.936 396.379 839.936 395.763C839.936 395.147 839.553 394.647 839.08 394.647C838.607 394.647 838.224 395.147 838.224 395.763C838.224 396.379 838.607 396.879 839.08 396.879Z" fill="black"/>
<path d="M831.964 398.768C832.436 398.768 832.82 398.268 832.82 397.652C832.82 397.036 832.436 396.536 831.964 396.536C831.491 396.536 831.107 397.036 831.107 397.652C831.107 398.268 831.491 398.768 831.964 398.768Z" fill="black"/>
<path d="M826.125 404.411C826.595 404.411 826.975 403.911 826.975 403.295C826.975 402.679 826.595 402.179 826.125 402.179C825.656 402.179 825.275 402.679 825.275 403.295C825.275 403.911 825.656 404.411 826.125 404.411Z" fill="black"/>
<path d="M822.664 412.74C823.137 412.74 823.52 412.24 823.52 411.624C823.52 411.008 823.137 410.508 822.664 410.508C822.191 410.508 821.808 411.008 821.808 411.624C821.808 412.24 822.191 412.74 822.664 412.74Z" fill="black"/>
<path d="M822.223 422.193C822.696 422.193 823.08 421.693 823.08 421.077C823.08 420.461 822.696 419.961 822.223 419.961C821.751 419.961 821.367 420.461 821.367 421.077C821.367 421.693 821.751 422.193 822.223 422.193Z" fill="black"/>
<path d="M824.891 431C825.364 431 825.747 430.5 825.747 429.884C825.747 429.268 825.364 428.768 824.891 428.768C824.418 428.768 824.035 429.268 824.035 429.884C824.035 430.5 824.418 431 824.891 431Z" fill="black"/>
<path d="M830.159 437.52C830.628 437.52 831.009 437.02 831.009 436.404C831.009 435.788 830.628 435.288 830.159 435.288C829.689 435.288 829.309 435.788 829.309 436.404C829.309 437.02 829.689 437.52 830.159 437.52Z" fill="black"/>
<path d="M837.051 440.524C837.521 440.524 837.901 440.025 837.901 439.408C837.901 438.792 837.521 438.292 837.051 438.292C836.582 438.292 836.201 438.792 836.201 439.408C836.201 440.025 836.582 440.524 837.051 440.524Z" fill="black"/>
<path d="M844.266 439.448C844.739 439.448 845.122 438.949 845.122 438.332C845.122 437.716 844.739 437.217 844.266 437.217C843.793 437.217 843.41 437.716 843.41 438.332C843.41 438.949 843.793 439.448 844.266 439.448Z" fill="black"/>
<path d="M850.458 434.491C850.931 434.491 851.314 433.991 851.314 433.375C851.314 432.759 850.931 432.259 850.458 432.259C849.985 432.259 849.602 432.759 849.602 433.375C849.602 433.991 849.985 434.491 850.458 434.491Z" fill="black"/>
<path d="M854.46 426.592C854.933 426.592 855.316 426.093 855.316 425.476C855.316 424.86 854.933 424.36 854.46 424.36C853.987 424.36 853.604 424.86 853.604 425.476C853.604 426.093 853.987 426.592 854.46 426.592Z" fill="black"/>
<path d="M855.533 417.219C856.006 417.219 856.39 416.72 856.39 416.103C856.39 415.487 856.006 414.988 855.533 414.988C855.061 414.988 854.677 415.487 854.677 416.103C854.677 416.72 855.061 417.219 855.533 417.219Z" fill="black"/>
<path d="M853.468 408.141C853.937 408.141 854.318 407.642 854.318 407.025C854.318 406.409 853.937 405.909 853.468 405.909C852.998 405.909 852.618 406.409 852.618 407.025C852.618 407.642 852.998 408.141 853.468 408.141Z" fill="black"/>
<path d="M848.653 401.047C849.122 401.047 849.503 400.548 849.503 399.932C849.503 399.315 849.122 398.816 848.653 398.816C848.183 398.816 847.803 399.315 847.803 399.932C847.803 400.548 848.183 401.047 848.653 401.047Z" fill="black"/>
<path d="M1029.99 359.459H920.583C917.557 359.459 915.104 362.61 915.104 366.496V421.762C915.104 425.649 917.557 428.8 920.583 428.8H1029.99C1033.01 428.8 1035.46 425.649 1035.46 421.762V366.496C1035.46 362.61 1033.01 359.459 1029.99 359.459Z" fill="url(#paint59_linear_329_1471)"/>
<path d="M1046.01 203.983L1045.39 370.617L1059.66 371.414C1059.66 371.414 1076.41 340.33 1109.91 343.518C1109.91 343.518 1152.72 347.504 1155.82 401.701L1176.92 402.498C1176.92 402.498 1180.02 404.092 1181.88 394.528C1183.38 386.837 1185.68 320.405 1186.52 294.685C1186.74 287.983 1186.09 281.281 1184.59 274.855L1166.93 199.52C1166.24 195.558 1164.55 192.003 1162.12 189.407C1159.69 186.812 1156.66 185.323 1153.5 185.173L1060.85 185.596C1058.92 185.506 1057.01 185.915 1055.21 186.798C1053.41 187.682 1051.77 189.022 1050.39 190.739C1049 192.455 1047.9 194.513 1047.15 196.788C1046.4 199.064 1046.01 201.511 1046.01 203.983V203.983Z" fill="url(#paint60_linear_329_1471)"/>
<path d="M1157.06 405.686C1157.06 405.686 1159.55 339.533 1131.01 314.825C1102.47 290.117 1078.27 319.607 1078.27 319.607C1078.27 319.607 1057.8 341.924 1055.32 402.498H1060.28C1060.28 402.498 1070.21 356.271 1089.44 347.503C1108.67 338.736 1125.73 349.097 1125.73 349.097C1125.73 349.097 1142.17 361.85 1152.1 404.889L1157.06 405.686Z" fill="url(#paint61_radial_329_1471)"/>
<path d="M1079.93 205.633H1061.32C1058.69 205.633 1056.56 208.37 1056.56 211.746V245.317C1056.56 248.693 1058.69 251.43 1061.32 251.43H1079.93C1082.56 251.43 1084.69 248.693 1084.69 245.317V211.746C1084.69 208.37 1082.56 205.633 1079.93 205.633Z" fill="url(#paint62_linear_329_1471)" stroke="black" stroke-miterlimit="10"/>
<path d="M1141.24 213.204L1141.55 274.838C1141.55 275.642 1141.68 276.437 1141.92 277.179C1142.15 277.921 1142.5 278.596 1142.95 279.163C1143.39 279.731 1143.91 280.182 1144.49 280.488C1145.07 280.795 1145.69 280.953 1146.31 280.952H1161.82C1162.45 280.953 1163.07 280.795 1163.65 280.488C1164.22 280.182 1164.75 279.731 1165.19 279.163C1165.63 278.596 1165.98 277.921 1166.22 277.179C1166.46 276.437 1166.58 275.642 1166.58 274.838L1151.69 212.575C1150.55 209.251 1149.56 206.462 1146.93 206.462C1146.93 206.43 1141.55 207.761 1141.24 213.204Z" fill="url(#paint63_linear_329_1471)" stroke="black" stroke-miterlimit="10"/>
<path d="M1129.97 206.063H1098.93C1096.3 206.063 1094.17 208.8 1094.17 212.176V245.747C1094.17 249.123 1096.3 251.86 1098.93 251.86H1129.97C1132.6 251.86 1134.73 249.123 1134.73 245.747V212.176C1134.73 208.8 1132.6 206.063 1129.97 206.063Z" fill="url(#paint64_linear_329_1471)" stroke="black" stroke-miterlimit="10"/>
<path d="M1167.4 201.01C1167.4 201.01 1157.38 201.249 1159.24 210.813C1161.1 220.378 1175.37 274.575 1175.37 274.575C1175.37 274.575 1178.05 288.818 1186.32 286.084C1185.81 279.531 1184.61 273.097 1182.76 266.956L1167.4 201.01Z" fill="url(#paint65_linear_329_1471)" stroke="black" stroke-miterlimit="10"/>
<path d="M1109.63 313.231H1103.37C1102.87 313.231 1102.47 313.749 1102.47 314.387V316.061C1102.47 316.699 1102.87 317.216 1103.37 317.216H1109.63C1110.13 317.216 1110.53 316.699 1110.53 316.061V314.387C1110.53 313.749 1110.13 313.231 1109.63 313.231Z" fill="#CE631B"/>
<path d="M1182.04 303.667H1172.41C1171.95 303.667 1171.58 304.145 1171.58 304.735V308.178C1171.58 308.768 1171.95 309.246 1172.41 309.246H1182.04C1182.5 309.246 1182.87 308.768 1182.87 308.178V304.735C1182.87 304.145 1182.5 303.667 1182.04 303.667Z" fill="#CE631B"/>
<path d="M1178.08 368.226H1155.28C1154.9 368.226 1154.58 368.628 1154.58 369.123C1154.58 369.618 1154.9 370.019 1155.28 370.019H1178.08C1178.47 370.019 1178.78 369.618 1178.78 369.123C1178.78 368.628 1178.47 368.226 1178.08 368.226Z" fill="#212121"/>
<path d="M1151.48 215.197H1055.32V207.761C1055.32 206.958 1055.44 206.162 1055.68 205.42C1055.92 204.678 1056.27 204.004 1056.71 203.436C1057.15 202.868 1057.68 202.418 1058.25 202.111C1058.83 201.804 1059.45 201.647 1060.08 201.648H1146.72C1147.35 201.647 1147.97 201.804 1148.54 202.111C1149.12 202.418 1149.65 202.868 1150.09 203.436C1150.53 204.004 1150.88 204.678 1151.12 205.42C1151.36 206.162 1151.48 206.958 1151.48 207.761V215.197Z" fill="url(#paint66_linear_329_1471)"/>
<path d="M1185.82 315.224C1185.82 315.224 1181.26 314.825 1180.64 320.404C1180.02 325.984 1178.78 355.474 1178.78 355.474C1178.78 355.474 1178.65 361.914 1183.99 361.85L1185.82 315.224Z" fill="url(#paint67_linear_329_1471)"/>
<path d="M1179.53 368.534L1183.86 368.905C1184.86 368.989 1185.84 369.326 1186.75 369.897C1187.65 370.468 1188.45 371.262 1189.12 372.234C1189.78 373.205 1190.29 374.335 1190.61 375.559C1190.93 376.782 1191.06 378.076 1191 379.365L1190.16 395.548C1190.02 398.147 1189.09 400.571 1187.56 402.285C1186.03 404 1184.04 404.866 1182.02 404.693L1177.68 404.322C1177.25 404.285 1176.84 404.027 1176.56 403.606C1176.27 403.184 1176.12 402.633 1176.15 402.074L1177.79 370.503C1177.82 369.946 1178.02 369.427 1178.34 369.059C1178.67 368.69 1179.09 368.501 1179.53 368.534V368.534Z" fill="url(#paint68_linear_329_1471)"/>
<path d="M1162.65 400.107V392.041C1162.64 390.962 1162.82 389.895 1163.19 388.925C1163.56 387.956 1164.11 387.112 1164.78 386.462C1166.02 385.322 1167.65 384.868 1169.59 387.052C1170.14 387.709 1170.59 388.509 1170.89 389.4C1171.19 390.291 1171.34 391.253 1171.33 392.224V400.107H1162.65Z" fill="url(#paint69_linear_329_1471)"/>
<path d="M937.439 357.865H936.198V430.394H937.439V357.865Z" fill="url(#paint70_linear_329_1471)"/>
<path d="M975.285 357.865H974.044V430.394H975.285V357.865Z" fill="url(#paint71_linear_329_1471)"/>
<path d="M1013.13 357.865H1011.89V430.394H1013.13V357.865Z" fill="url(#paint72_linear_329_1471)"/>
<path d="M1045.39 324.39V370.617L1058.53 371.35C1058.53 371.35 1062.91 345.63 1072.76 327.833L1045.39 324.39Z" fill="url(#paint73_linear_329_1471)"/>
<path d="M794.125 419.236C794.125 419.236 792.884 384.167 817.08 367.429C841.276 350.692 861.75 365.835 861.75 365.835C861.75 365.835 882.223 377.79 882.844 416.048H886.566C886.566 416.048 888.428 377.79 863.611 361.85C863.611 361.85 841.897 345.112 817.08 361.053C817.08 361.053 787.301 378.587 791.023 420.033L794.125 419.236Z" fill="url(#paint74_linear_329_1471)"/>
<path opacity="0.13" d="M956.673 0V333.954H1023.06V47.0245L956.673 0Z" fill="white"/>
<path d="M122.531 437.966C121.364 432.607 120.636 427.107 120.359 421.555H68.8652L69.1754 437.169L122.531 437.966Z" fill="#924A2B" stroke="#4C1F12" stroke-width="3" stroke-miterlimit="10"/>
<path d="M202.254 421.555C202.254 421.555 201.702 431.821 199.958 436.882H220.674C220.674 436.882 218.074 425.875 218.385 421.555H202.254Z" fill="#924A2B" stroke="#4C1F12" stroke-width="3" stroke-miterlimit="10"/>
<path d="M299.968 421.228C300.356 426.292 299.748 431.401 298.2 436.085L572.948 436.372L776.443 337.54H956.362L956.982 323.991H777.063L572.948 421.228H299.968Z" fill="#924A2B" stroke="#4C1F12" stroke-width="3" stroke-miterlimit="10"/>
<g style="mix-blend-mode:overlay">
<path d="M956.982 303.348H68.5552V321.6H956.982V303.348Z" fill="#FCF8F7"/>
</g>
<g style="mix-blend-mode:overlay">
<path d="M957.292 266.207H68.8652V284.459H957.292V266.207Z" fill="#FCF8F7"/>
</g>
<path opacity="0.63" d="M956.982 303.348H68.5552V321.6H956.982V303.348Z" fill="#FCF8F7"/>
<path opacity="0.63" d="M957.292 266.207H68.8652V284.459H957.292V266.207Z" fill="#FCF8F7"/>
<g style="mix-blend-mode:overlay">
<path d="M957.292 284.458H68.8652V303.563H957.292V284.458Z" fill="#1552FF"/>
</g>
<path d="M1169.47 294.103H1045.39V300.479H1169.47V294.103Z" fill="#D8A750"/>
<path d="M758.712 346.148L758.762 419.236H608.002L619.877 413.162L753.178 413.657L752.905 348.97L758.712 346.148Z" fill="#332013"/>
<path d="M696.634 376.3V417.642H691.137V378.97L696.634 376.3Z" fill="#332013"/>
<path d="M1157.84 261.424H1157.38C1157.16 261.412 1156.95 261.346 1156.76 261.23C1156.56 261.113 1156.39 260.949 1156.25 260.746C1156.1 260.543 1155.99 260.306 1155.92 260.047C1155.85 259.789 1155.81 259.515 1155.82 259.241C1157.04 246.627 1157.48 233.91 1157.15 221.207C1157.17 220.652 1157.36 220.13 1157.68 219.755C1158 219.38 1158.42 219.182 1158.85 219.206H1159.32C1159.75 219.231 1160.16 219.475 1160.45 219.884C1160.74 220.294 1160.89 220.835 1160.87 221.39C1161.92 234.082 1161.47 246.904 1159.54 259.424C1159.53 259.699 1159.48 259.97 1159.39 260.22C1159.3 260.47 1159.17 260.695 1159.02 260.881C1158.86 261.067 1158.67 261.211 1158.47 261.304C1158.27 261.398 1158.05 261.438 1157.84 261.424V261.424Z" fill="#282828"/>
<path d="M1156.44 211.212C1156.44 211.212 1163.89 212.009 1163.89 219.979V235.123C1163.89 235.123 1164.27 242.105 1161.29 241.403" stroke="#333333" stroke-width="2" stroke-miterlimit="10"/>
<path opacity="0.49" d="M259.331 468.651C282.974 468.651 302.14 443.316 302.14 412.062C302.14 380.809 282.974 355.474 259.331 355.474C235.689 355.474 216.523 380.809 216.523 412.062C216.523 443.316 235.689 468.651 259.331 468.651Z" fill="black"/>
<path opacity="0.49" d="M161.306 468.651C184.949 468.651 204.115 443.316 204.115 412.062C204.115 380.809 184.949 355.474 161.306 355.474C137.664 355.474 118.498 380.809 118.498 412.062C118.498 443.316 137.664 468.651 161.306 468.651Z" fill="black"/>
<path d="M161.307 471.839C183.921 471.839 202.254 447.931 202.254 418.439C202.254 388.946 183.921 365.038 161.307 365.038C138.692 365.038 120.36 388.946 120.36 418.439C120.36 447.931 138.692 471.839 161.307 471.839Z" fill="url(#paint75_radial_329_1471)"/>
<path d="M161.306 451.866C175.125 451.866 186.327 437.257 186.327 419.236C186.327 401.215 175.125 386.605 161.306 386.605C147.488 386.605 136.285 401.215 136.285 419.236C136.285 437.257 147.488 451.866 161.306 451.866Z" fill="url(#paint76_radial_329_1471)"/>
<path d="M161.592 398.473C162.065 398.473 162.448 397.974 162.448 397.357C162.448 396.741 162.065 396.241 161.592 396.241C161.119 396.241 160.736 396.741 160.736 397.357C160.736 397.974 161.119 398.473 161.592 398.473Z" fill="black"/>
<path d="M154.476 400.362C154.949 400.362 155.332 399.863 155.332 399.246C155.332 398.63 154.949 398.13 154.476 398.13C154.003 398.13 153.62 398.63 153.62 399.246C153.62 399.863 154.003 400.362 154.476 400.362Z" fill="black"/>
<path d="M148.638 406.005C149.111 406.005 149.495 405.506 149.495 404.889C149.495 404.273 149.111 403.773 148.638 403.773C148.166 403.773 147.782 404.273 147.782 404.889C147.782 405.506 148.166 406.005 148.638 406.005Z" fill="black"/>
<path d="M145.176 414.334C145.649 414.334 146.033 413.834 146.033 413.218C146.033 412.602 145.649 412.102 145.176 412.102C144.704 412.102 144.32 412.602 144.32 413.218C144.32 413.834 144.704 414.334 145.176 414.334Z" fill="black"/>
<path d="M144.736 423.787C145.205 423.787 145.586 423.287 145.586 422.671C145.586 422.055 145.205 421.555 144.736 421.555C144.266 421.555 143.886 422.055 143.886 422.671C143.886 423.287 144.266 423.787 144.736 423.787Z" fill="black"/>
<path d="M147.403 432.594C147.876 432.594 148.259 432.094 148.259 431.478C148.259 430.862 147.876 430.362 147.403 430.362C146.93 430.362 146.547 430.862 146.547 431.478C146.547 432.094 146.93 432.594 147.403 432.594Z" fill="black"/>
<path d="M152.67 439.114C153.14 439.114 153.52 438.614 153.52 437.998C153.52 437.382 153.14 436.882 152.67 436.882C152.201 436.882 151.82 437.382 151.82 437.998C151.82 438.614 152.201 439.114 152.67 439.114Z" fill="black"/>
<path d="M159.563 442.118C160.036 442.118 160.419 441.619 160.419 441.002C160.419 440.386 160.036 439.886 159.563 439.886C159.09 439.886 158.707 440.386 158.707 441.002C158.707 441.619 159.09 442.118 159.563 442.118Z" fill="black"/>
<path d="M166.779 441.042C167.251 441.042 167.635 440.543 167.635 439.927C167.635 439.31 167.251 438.811 166.779 438.811C166.306 438.811 165.922 439.31 165.922 439.927C165.922 440.543 166.306 441.042 166.779 441.042Z" fill="black"/>
<path d="M172.97 436.085C173.443 436.085 173.827 435.585 173.827 434.969C173.827 434.353 173.443 433.853 172.97 433.853C172.498 433.853 172.114 434.353 172.114 434.969C172.114 435.585 172.498 436.085 172.97 436.085Z" fill="black"/>
<path d="M176.972 428.186C177.445 428.186 177.829 427.687 177.829 427.07C177.829 426.454 177.445 425.955 176.972 425.955C176.5 425.955 176.116 426.454 176.116 427.07C176.116 427.687 176.5 428.186 176.972 428.186Z" fill="black"/>
<path d="M178.046 418.813C178.518 418.813 178.902 418.314 178.902 417.697C178.902 417.081 178.518 416.582 178.046 416.582C177.573 416.582 177.189 417.081 177.189 417.697C177.189 418.314 177.573 418.813 178.046 418.813Z" fill="black"/>
<path d="M175.979 409.735C176.449 409.735 176.829 409.236 176.829 408.619C176.829 408.003 176.449 407.504 175.979 407.504C175.51 407.504 175.129 408.003 175.129 408.619C175.129 409.236 175.51 409.735 175.979 409.735Z" fill="black"/>
<path d="M171.165 402.641C171.634 402.641 172.015 402.142 172.015 401.526C172.015 400.909 171.634 400.41 171.165 400.41C170.695 400.41 170.315 400.909 170.315 401.526C170.315 402.142 170.695 402.641 171.165 402.641Z" fill="black"/>
<path d="M259.331 472.636C281.946 472.636 300.278 448.728 300.278 419.236C300.278 389.743 281.946 365.835 259.331 365.835C236.717 365.835 218.384 389.743 218.384 419.236C218.384 448.728 236.717 472.636 259.331 472.636Z" fill="url(#paint77_radial_329_1471)"/>
<path d="M259.331 451.866C273.15 451.866 284.352 437.257 284.352 419.236C284.352 401.215 273.15 386.605 259.331 386.605C245.512 386.605 234.31 401.215 234.31 419.236C234.31 437.257 245.512 451.866 259.331 451.866Z" fill="url(#paint78_radial_329_1471)"/>
<path d="M259.617 398.473C260.09 398.473 260.473 397.974 260.473 397.357C260.473 396.741 260.09 396.241 259.617 396.241C259.144 396.241 258.761 396.741 258.761 397.357C258.761 397.974 259.144 398.473 259.617 398.473Z" fill="black"/>
<path d="M252.501 400.362C252.974 400.362 253.357 399.863 253.357 399.246C253.357 398.63 252.974 398.13 252.501 398.13C252.028 398.13 251.645 398.63 251.645 399.246C251.645 399.863 252.028 400.362 252.501 400.362Z" fill="black"/>
<path d="M246.663 406.005C247.136 406.005 247.519 405.506 247.519 404.889C247.519 404.273 247.136 403.773 246.663 403.773C246.19 403.773 245.807 404.273 245.807 404.889C245.807 405.506 246.19 406.005 246.663 406.005Z" fill="black"/>
<path d="M243.201 414.334C243.674 414.334 244.057 413.834 244.057 413.218C244.057 412.602 243.674 412.102 243.201 412.102C242.728 412.102 242.345 412.602 242.345 413.218C242.345 413.834 242.728 414.334 243.201 414.334Z" fill="black"/>
<path d="M242.761 423.787C243.23 423.787 243.611 423.287 243.611 422.671C243.611 422.055 243.23 421.555 242.761 421.555C242.291 421.555 241.911 422.055 241.911 422.671C241.911 423.287 242.291 423.787 242.761 423.787Z" fill="black"/>
<path d="M245.428 432.594C245.901 432.594 246.284 432.094 246.284 431.478C246.284 430.862 245.901 430.362 245.428 430.362C244.955 430.362 244.572 430.862 244.572 431.478C244.572 432.094 244.955 432.594 245.428 432.594Z" fill="black"/>
<path d="M250.696 439.114C251.165 439.114 251.546 438.614 251.546 437.998C251.546 437.382 251.165 436.882 250.696 436.882C250.226 436.882 249.846 437.382 249.846 437.998C249.846 438.614 250.226 439.114 250.696 439.114Z" fill="black"/>
<path d="M257.588 442.118C258.06 442.118 258.444 441.619 258.444 441.002C258.444 440.386 258.06 439.886 257.588 439.886C257.115 439.886 256.731 440.386 256.731 441.002C256.731 441.619 257.115 442.118 257.588 442.118Z" fill="black"/>
<path d="M264.803 441.042C265.276 441.042 265.659 440.543 265.659 439.927C265.659 439.31 265.276 438.811 264.803 438.811C264.33 438.811 263.947 439.31 263.947 439.927C263.947 440.543 264.33 441.042 264.803 441.042Z" fill="black"/>
<path d="M270.995 436.085C271.468 436.085 271.851 435.585 271.851 434.969C271.851 434.353 271.468 433.853 270.995 433.853C270.522 433.853 270.139 434.353 270.139 434.969C270.139 435.585 270.522 436.085 270.995 436.085Z" fill="black"/>
<path d="M274.997 428.186C275.47 428.186 275.853 427.687 275.853 427.07C275.853 426.454 275.47 425.955 274.997 425.955C274.524 425.955 274.141 426.454 274.141 427.07C274.141 427.687 274.524 428.186 274.997 428.186Z" fill="black"/>
<path d="M276.071 418.813C276.543 418.813 276.927 418.314 276.927 417.697C276.927 417.081 276.543 416.582 276.071 416.582C275.598 416.582 275.214 417.081 275.214 417.697C275.214 418.314 275.598 418.813 276.071 418.813Z" fill="black"/>
<path d="M274.004 409.735C274.474 409.735 274.854 409.236 274.854 408.619C274.854 408.003 274.474 407.504 274.004 407.504C273.535 407.504 273.154 408.003 273.154 408.619C273.154 409.236 273.535 409.735 274.004 409.735Z" fill="black"/>
<path d="M269.19 402.641C269.659 402.641 270.04 402.142 270.04 401.526C270.04 400.909 269.659 400.41 269.19 400.41C268.72 400.41 268.34 400.909 268.34 401.526C268.34 402.142 268.72 402.641 269.19 402.641Z" fill="black"/>
<path d="M957.292 290.914H68.8652V297.291H957.292V290.914Z" fill="#D8A750"/>
<defs>
<linearGradient id="paint0_linear_329_1471" x1="909.831" y1="347.623" x2="909.831" y2="332.36" gradientUnits="userSpaceOnUse">
<stop offset="0.01" stop-color="#1A1A1A"/>
<stop offset="0.21" stop-color="#1E1E1E"/>
<stop offset="0.4" stop-color="#292929"/>
<stop offset="0.58" stop-color="#3C3C3C"/>
<stop offset="0.75" stop-color="#565656"/>
<stop offset="0.84" stop-color="#666666"/>
<stop offset="0.88" stop-color="#626262"/>
<stop offset="0.93" stop-color="#575757"/>
<stop offset="0.97" stop-color="#444444"/>
<stop offset="1" stop-color="#333333"/>
</linearGradient>
<linearGradient id="paint1_linear_329_1471" x1="63.2817" y1="214.001" x2="81.2736" y2="214.001" gradientUnits="userSpaceOnUse">
<stop stop-color="#5B311A"/>
<stop offset="0.25" stop-color="#7F3F24"/>
<stop offset="0.38" stop-color="#8E4528"/>
<stop offset="0.61" stop-color="#914729"/>
<stop offset="0.78" stop-color="#9B4C2D"/>
<stop offset="0.93" stop-color="#AB5532"/>
<stop offset="1" stop-color="#B55A36"/>
</linearGradient>
<linearGradient id="paint2_linear_329_1471" x1="81.2734" y1="-0.398513" x2="99.2653" y2="-0.398513" gradientUnits="userSpaceOnUse">
<stop stop-color="#5B311A"/>
<stop offset="0.25" stop-color="#7F3F24"/>
<stop offset="0.38" stop-color="#8E4528"/>
<stop offset="0.61" stop-color="#914729"/>
<stop offset="0.78" stop-color="#9B4C2D"/>
<stop offset="0.93" stop-color="#AB5532"/>
<stop offset="1" stop-color="#B55A36"/>
</linearGradient>
<linearGradient id="paint3_linear_329_1471" x1="99.2661" y1="-0.398513" x2="117.258" y2="-0.398513" gradientUnits="userSpaceOnUse">
<stop stop-color="#5B311A"/>
<stop offset="0.25" stop-color="#7F3F24"/>
<stop offset="0.38" stop-color="#8E4528"/>
<stop offset="0.61" stop-color="#914729"/>
<stop offset="0.78" stop-color="#9B4C2D"/>
<stop offset="0.93" stop-color="#AB5532"/>
<stop offset="1" stop-color="#B55A36"/>
</linearGradient>
<linearGradient id="paint4_linear_329_1471" x1="117.257" y1="-0.398513" x2="135.249" y2="-0.398513" gradientUnits="userSpaceOnUse">
<stop stop-color="#5B311A"/>
<stop offset="0.25" stop-color="#7F3F24"/>
<stop offset="0.38" stop-color="#8E4528"/>
<stop offset="0.61" stop-color="#914729"/>
<stop offset="0.78" stop-color="#9B4C2D"/>
<stop offset="0.93" stop-color="#AB5532"/>
<stop offset="1" stop-color="#B55A36"/>
</linearGradient>
<linearGradient id="paint5_linear_329_1471" x1="135.25" y1="-0.398513" x2="153.241" y2="-0.398513" gradientUnits="userSpaceOnUse">
<stop stop-color="#5B311A"/>
<stop offset="0.25" stop-color="#7F3F24"/>
<stop offset="0.38" stop-color="#8E4528"/>
<stop offset="0.61" stop-color="#914729"/>
<stop offset="0.78" stop-color="#9B4C2D"/>
<stop offset="0.93" stop-color="#AB5532"/>
<stop offset="1" stop-color="#B55A36"/>
</linearGradient>
<linearGradient id="paint6_linear_329_1471" x1="153.241" y1="-0.398513" x2="171.233" y2="-0.398513" gradientUnits="userSpaceOnUse">
<stop stop-color="#5B311A"/>
<stop offset="0.25" stop-color="#7F3F24"/>
<stop offset="0.38" stop-color="#8E4528"/>
<stop offset="0.61" stop-color="#914729"/>
<stop offset="0.78" stop-color="#9B4C2D"/>
<stop offset="0.93" stop-color="#AB5532"/>
<stop offset="1" stop-color="#B55A36"/>
</linearGradient>
<linearGradient id="paint7_linear_329_1471" x1="171.233" y1="-0.398513" x2="189.225" y2="-0.398513" gradientUnits="userSpaceOnUse">
<stop stop-color="#5B311A"/>
<stop offset="0.25" stop-color="#7F3F24"/>
<stop offset="0.38" stop-color="#8E4528"/>
<stop offset="0.61" stop-color="#914729"/>
<stop offset="0.78" stop-color="#9B4C2D"/>
<stop offset="0.93" stop-color="#AB5532"/>
<stop offset="1" stop-color="#B55A36"/>
</linearGradient>
<linearGradient id="paint8_linear_329_1471" x1="189.226" y1="-0.398513" x2="207.217" y2="-0.398513" gradientUnits="userSpaceOnUse">
<stop stop-color="#5B311A"/>
<stop offset="0.25" stop-color="#7F3F24"/>
<stop offset="0.38" stop-color="#8E4528"/>
<stop offset="0.61" stop-color="#914729"/>
<stop offset="0.78" stop-color="#9B4C2D"/>
<stop offset="0.93" stop-color="#AB5532"/>
<stop offset="1" stop-color="#B55A36"/>
</linearGradient>
<linearGradient id="paint9_linear_329_1471" x1="207.217" y1="-0.398513" x2="225.209" y2="-0.398513" gradientUnits="userSpaceOnUse">
<stop stop-color="#5B311A"/>
<stop offset="0.25" stop-color="#7F3F24"/>
<stop offset="0.38" stop-color="#8E4528"/>
<stop offset="0.61" stop-color="#914729"/>
<stop offset="0.78" stop-color="#9B4C2D"/>
<stop offset="0.93" stop-color="#AB5532"/>
<stop offset="1" stop-color="#B55A36"/>
</linearGradient>
<linearGradient id="paint10_linear_329_1471" x1="225.209" y1="-0.398513" x2="243.201" y2="-0.398513" gradientUnits="userSpaceOnUse">
<stop stop-color="#5B311A"/>
<stop offset="0.25" stop-color="#7F3F24"/>
<stop offset="0.38" stop-color="#8E4528"/>
<stop offset="0.61" stop-color="#914729"/>
<stop offset="0.78" stop-color="#9B4C2D"/>
<stop offset="0.93" stop-color="#AB5532"/>
<stop offset="1" stop-color="#B55A36"/>
</linearGradient>
<linearGradient id="paint11_linear_329_1471" x1="243.201" y1="-0.398513" x2="261.193" y2="-0.398513" gradientUnits="userSpaceOnUse">
<stop stop-color="#5B311A"/>
<stop offset="0.25" stop-color="#7F3F24"/>
<stop offset="0.38" stop-color="#8E4528"/>
<stop offset="0.61" stop-color="#914729"/>
<stop offset="0.78" stop-color="#9B4C2D"/>
<stop offset="0.93" stop-color="#AB5532"/>
<stop offset="1" stop-color="#B55A36"/>
</linearGradient>
<linearGradient id="paint12_linear_329_1471" x1="261.192" y1="-0.398513" x2="279.184" y2="-0.398513" gradientUnits="userSpaceOnUse">
<stop stop-color="#5B311A"/>
<stop offset="0.25" stop-color="#7F3F24"/>
<stop offset="0.38" stop-color="#8E4528"/>
<stop offset="0.61" stop-color="#914729"/>
<stop offset="0.78" stop-color="#9B4C2D"/>
<stop offset="0.93" stop-color="#AB5532"/>
<stop offset="1" stop-color="#B55A36"/>
</linearGradient>
<linearGradient id="paint13_linear_329_1471" x1="279.184" y1="-0.398513" x2="297.176" y2="-0.398513" gradientUnits="userSpaceOnUse">
<stop stop-color="#5B311A"/>
<stop offset="0.25" stop-color="#7F3F24"/>
<stop offset="0.38" stop-color="#8E4528"/>
<stop offset="0.61" stop-color="#914729"/>
<stop offset="0.78" stop-color="#9B4C2D"/>
<stop offset="0.93" stop-color="#AB5532"/>
<stop offset="1" stop-color="#B55A36"/>
</linearGradient>
<linearGradient id="paint14_linear_329_1471" x1="297.177" y1="-0.398513" x2="315.169" y2="-0.398513" gradientUnits="userSpaceOnUse">
<stop stop-color="#5B311A"/>
<stop offset="0.25" stop-color="#7F3F24"/>
<stop offset="0.38" stop-color="#8E4528"/>
<stop offset="0.61" stop-color="#914729"/>
<stop offset="0.78" stop-color="#9B4C2D"/>
<stop offset="0.93" stop-color="#AB5532"/>
<stop offset="1" stop-color="#B55A36"/>
</linearGradient>
<linearGradient id="paint15_linear_329_1471" x1="315.168" y1="-0.398513" x2="333.16" y2="-0.398513" gradientUnits="userSpaceOnUse">
<stop stop-color="#5B311A"/>
<stop offset="0.25" stop-color="#7F3F24"/>
<stop offset="0.38" stop-color="#8E4528"/>
<stop offset="0.61" stop-color="#914729"/>
<stop offset="0.78" stop-color="#9B4C2D"/>
<stop offset="0.93" stop-color="#AB5532"/>
<stop offset="1" stop-color="#B55A36"/>
</linearGradient>
<linearGradient id="paint16_linear_329_1471" x1="333.161" y1="-0.398513" x2="351.153" y2="-0.398513" gradientUnits="userSpaceOnUse">
<stop stop-color="#5B311A"/>
<stop offset="0.25" stop-color="#7F3F24"/>
<stop offset="0.38" stop-color="#8E4528"/>
<stop offset="0.61" stop-color="#914729"/>
<stop offset="0.78" stop-color="#9B4C2D"/>
<stop offset="0.93" stop-color="#AB5532"/>
<stop offset="1" stop-color="#B55A36"/>
</linearGradient>
<linearGradient id="paint17_linear_329_1471" x1="351.152" y1="-0.398513" x2="369.144" y2="-0.398513" gradientUnits="userSpaceOnUse">
<stop stop-color="#5B311A"/>
<stop offset="0.25" stop-color="#7F3F24"/>
<stop offset="0.38" stop-color="#8E4528"/>
<stop offset="0.61" stop-color="#914729"/>
<stop offset="0.78" stop-color="#9B4C2D"/>
<stop offset="0.93" stop-color="#AB5532"/>
<stop offset="1" stop-color="#B55A36"/>
</linearGradient>
<linearGradient id="paint18_linear_329_1471" x1="369.144" y1="-0.398513" x2="387.135" y2="-0.398513" gradientUnits="userSpaceOnUse">
<stop stop-color="#5B311A"/>
<stop offset="0.25" stop-color="#7F3F24"/>
<stop offset="0.38" stop-color="#8E4528"/>
<stop offset="0.61" stop-color="#914729"/>
<stop offset="0.78" stop-color="#9B4C2D"/>
<stop offset="0.93" stop-color="#AB5532"/>
<stop offset="1" stop-color="#B55A36"/>
</linearGradient>
<linearGradient id="paint19_linear_329_1471" x1="387.136" y1="-0.398513" x2="405.128" y2="-0.398513" gradientUnits="userSpaceOnUse">
<stop stop-color="#5B311A"/>
<stop offset="0.25" stop-color="#7F3F24"/>
<stop offset="0.38" stop-color="#8E4528"/>
<stop offset="0.61" stop-color="#914729"/>
<stop offset="0.78" stop-color="#9B4C2D"/>
<stop offset="0.93" stop-color="#AB5532"/>
<stop offset="1" stop-color="#B55A36"/>
</linearGradient>
<linearGradient id="paint20_linear_329_1471" x1="405.128" y1="-0.398513" x2="423.12" y2="-0.398513" gradientUnits="userSpaceOnUse">
<stop stop-color="#5B311A"/>
<stop offset="0.25" stop-color="#7F3F24"/>
<stop offset="0.38" stop-color="#8E4528"/>
<stop offset="0.61" stop-color="#914729"/>
<stop offset="0.78" stop-color="#9B4C2D"/>
<stop offset="0.93" stop-color="#AB5532"/>
<stop offset="1" stop-color="#B55A36"/>
</linearGradient>
<linearGradient id="paint21_linear_329_1471" x1="423.12" y1="-0.398513" x2="441.112" y2="-0.398513" gradientUnits="userSpaceOnUse">
<stop stop-color="#5B311A"/>
<stop offset="0.25" stop-color="#7F3F24"/>
<stop offset="0.38" stop-color="#8E4528"/>
<stop offset="0.61" stop-color="#914729"/>
<stop offset="0.78" stop-color="#9B4C2D"/>
<stop offset="0.93" stop-color="#AB5532"/>
<stop offset="1" stop-color="#B55A36"/>
</linearGradient>
<linearGradient id="paint22_linear_329_1471" x1="441.112" y1="-0.398513" x2="459.104" y2="-0.398513" gradientUnits="userSpaceOnUse">
<stop stop-color="#5B311A"/>
<stop offset="0.25" stop-color="#7F3F24"/>
<stop offset="0.38" stop-color="#8E4528"/>
<stop offset="0.61" stop-color="#914729"/>
<stop offset="0.78" stop-color="#9B4C2D"/>
<stop offset="0.93" stop-color="#AB5532"/>
<stop offset="1" stop-color="#B55A36"/>
</linearGradient>
<linearGradient id="paint23_linear_329_1471" x1="459.104" y1="-0.398513" x2="477.095" y2="-0.398513" gradientUnits="userSpaceOnUse">
<stop stop-color="#5B311A"/>
<stop offset="0.25" stop-color="#7F3F24"/>
<stop offset="0.38" stop-color="#8E4528"/>
<stop offset="0.61" stop-color="#914729"/>
<stop offset="0.78" stop-color="#9B4C2D"/>
<stop offset="0.93" stop-color="#AB5532"/>
<stop offset="1" stop-color="#B55A36"/>
</linearGradient>
<linearGradient id="paint24_linear_329_1471" x1="477.095" y1="-0.398513" x2="495.087" y2="-0.398513" gradientUnits="userSpaceOnUse">
<stop stop-color="#5B311A"/>
<stop offset="0.25" stop-color="#7F3F24"/>
<stop offset="0.38" stop-color="#8E4528"/>
<stop offset="0.61" stop-color="#914729"/>
<stop offset="0.78" stop-color="#9B4C2D"/>
<stop offset="0.93" stop-color="#AB5532"/>
<stop offset="1" stop-color="#B55A36"/>
</linearGradient>
<linearGradient id="paint25_linear_329_1471" x1="495.087" y1="-0.398513" x2="513.079" y2="-0.398513" gradientUnits="userSpaceOnUse">
<stop stop-color="#5B311A"/>
<stop offset="0.25" stop-color="#7F3F24"/>
<stop offset="0.38" stop-color="#8E4528"/>
<stop offset="0.61" stop-color="#914729"/>
<stop offset="0.78" stop-color="#9B4C2D"/>
<stop offset="0.93" stop-color="#AB5532"/>
<stop offset="1" stop-color="#B55A36"/>
</linearGradient>
<linearGradient id="paint26_linear_329_1471" x1="513.079" y1="-0.398513" x2="531.071" y2="-0.398513" gradientUnits="userSpaceOnUse">
<stop stop-color="#5B311A"/>
<stop offset="0.25" stop-color="#7F3F24"/>
<stop offset="0.38" stop-color="#8E4528"/>
<stop offset="0.61" stop-color="#914729"/>
<stop offset="0.78" stop-color="#9B4C2D"/>
<stop offset="0.93" stop-color="#AB5532"/>
<stop offset="1" stop-color="#B55A36"/>
</linearGradient>
<linearGradient id="paint27_linear_329_1471" x1="531.071" y1="-0.398513" x2="549.063" y2="-0.398513" gradientUnits="userSpaceOnUse">
<stop stop-color="#5B311A"/>
<stop offset="0.25" stop-color="#7F3F24"/>
<stop offset="0.38" stop-color="#8E4528"/>
<stop offset="0.61" stop-color="#914729"/>
<stop offset="0.78" stop-color="#9B4C2D"/>
<stop offset="0.93" stop-color="#AB5532"/>
<stop offset="1" stop-color="#B55A36"/>
</linearGradient>
<linearGradient id="paint28_linear_329_1471" x1="549.063" y1="-0.398513" x2="567.055" y2="-0.398513" gradientUnits="userSpaceOnUse">
<stop stop-color="#5B311A"/>
<stop offset="0.25" stop-color="#7F3F24"/>
<stop offset="0.38" stop-color="#8E4528"/>
<stop offset="0.61" stop-color="#914729"/>
<stop offset="0.78" stop-color="#9B4C2D"/>
<stop offset="0.93" stop-color="#AB5532"/>
<stop offset="1" stop-color="#B55A36"/>
</linearGradient>
<linearGradient id="paint29_linear_329_1471" x1="567.055" y1="-0.398513" x2="585.047" y2="-0.398513" gradientUnits="userSpaceOnUse">
<stop stop-color="#5B311A"/>
<stop offset="0.25" stop-color="#7F3F24"/>
<stop offset="0.38" stop-color="#8E4528"/>
<stop offset="0.61" stop-color="#914729"/>
<stop offset="0.78" stop-color="#9B4C2D"/>
<stop offset="0.93" stop-color="#AB5532"/>
<stop offset="1" stop-color="#B55A36"/>
</linearGradient>
<linearGradient id="paint30_linear_329_1471" x1="585.047" y1="-0.398513" x2="603.039" y2="-0.398513" gradientUnits="userSpaceOnUse">
<stop stop-color="#5B311A"/>
<stop offset="0.25" stop-color="#7F3F24"/>
<stop offset="0.38" stop-color="#8E4528"/>
<stop offset="0.61" stop-color="#914729"/>
<stop offset="0.78" stop-color="#9B4C2D"/>
<stop offset="0.93" stop-color="#AB5532"/>
<stop offset="1" stop-color="#B55A36"/>
</linearGradient>
<linearGradient id="paint31_linear_329_1471" x1="603.039" y1="-0.398513" x2="621.031" y2="-0.398513" gradientUnits="userSpaceOnUse">
<stop stop-color="#5B311A"/>
<stop offset="0.25" stop-color="#7F3F24"/>
<stop offset="0.38" stop-color="#8E4528"/>
<stop offset="0.61" stop-color="#914729"/>
<stop offset="0.78" stop-color="#9B4C2D"/>
<stop offset="0.93" stop-color="#AB5532"/>
<stop offset="1" stop-color="#B55A36"/>
</linearGradient>
<linearGradient id="paint32_linear_329_1471" x1="621.031" y1="-0.398513" x2="639.023" y2="-0.398513" gradientUnits="userSpaceOnUse">
<stop stop-color="#5B311A"/>
<stop offset="0.25" stop-color="#7F3F24"/>
<stop offset="0.38" stop-color="#8E4528"/>
<stop offset="0.61" stop-color="#914729"/>
<stop offset="0.78" stop-color="#9B4C2D"/>
<stop offset="0.93" stop-color="#AB5532"/>
<stop offset="1" stop-color="#B55A36"/>
</linearGradient>
<linearGradient id="paint33_linear_329_1471" x1="639.022" y1="-0.398513" x2="657.014" y2="-0.398513" gradientUnits="userSpaceOnUse">
<stop stop-color="#5B311A"/>
<stop offset="0.25" stop-color="#7F3F24"/>
<stop offset="0.38" stop-color="#8E4528"/>
<stop offset="0.61" stop-color="#914729"/>
<stop offset="0.78" stop-color="#9B4C2D"/>
<stop offset="0.93" stop-color="#AB5532"/>
<stop offset="1" stop-color="#B55A36"/>
</linearGradient>
<linearGradient id="paint34_linear_329_1471" x1="657.014" y1="-0.398513" x2="675.006" y2="-0.398513" gradientUnits="userSpaceOnUse">
<stop stop-color="#5B311A"/>
<stop offset="0.25" stop-color="#7F3F24"/>
<stop offset="0.38" stop-color="#8E4528"/>
<stop offset="0.61" stop-color="#914729"/>
<stop offset="0.78" stop-color="#9B4C2D"/>
<stop offset="0.93" stop-color="#AB5532"/>
<stop offset="1" stop-color="#B55A36"/>
</linearGradient>
<linearGradient id="paint35_linear_329_1471" x1="675.006" y1="-0.398513" x2="692.998" y2="-0.398513" gradientUnits="userSpaceOnUse">
<stop stop-color="#5B311A"/>
<stop offset="0.25" stop-color="#7F3F24"/>
<stop offset="0.38" stop-color="#8E4528"/>
<stop offset="0.61" stop-color="#914729"/>
<stop offset="0.78" stop-color="#9B4C2D"/>
<stop offset="0.93" stop-color="#AB5532"/>
<stop offset="1" stop-color="#B55A36"/>
</linearGradient>
<linearGradient id="paint36_linear_329_1471" x1="692.998" y1="-0.398513" x2="710.99" y2="-0.398513" gradientUnits="userSpaceOnUse">
<stop stop-color="#5B311A"/>
<stop offset="0.25" stop-color="#7F3F24"/>
<stop offset="0.38" stop-color="#8E4528"/>
<stop offset="0.61" stop-color="#914729"/>
<stop offset="0.78" stop-color="#9B4C2D"/>
<stop offset="0.93" stop-color="#AB5532"/>
<stop offset="1" stop-color="#B55A36"/>
</linearGradient>
<linearGradient id="paint37_linear_329_1471" x1="710.99" y1="-0.398513" x2="728.982" y2="-0.398513" gradientUnits="userSpaceOnUse">
<stop stop-color="#5B311A"/>
<stop offset="0.25" stop-color="#7F3F24"/>
<stop offset="0.38" stop-color="#8E4528"/>
<stop offset="0.61" stop-color="#914729"/>
<stop offset="0.78" stop-color="#9B4C2D"/>
<stop offset="0.93" stop-color="#AB5532"/>
<stop offset="1" stop-color="#B55A36"/>
</linearGradient>
<linearGradient id="paint38_linear_329_1471" x1="728.982" y1="-0.398513" x2="746.974" y2="-0.398513" gradientUnits="userSpaceOnUse">
<stop stop-color="#5B311A"/>
<stop offset="0.25" stop-color="#7F3F24"/>
<stop offset="0.38" stop-color="#8E4528"/>
<stop offset="0.61" stop-color="#914729"/>
<stop offset="0.78" stop-color="#9B4C2D"/>
<stop offset="0.93" stop-color="#AB5532"/>
<stop offset="1" stop-color="#B55A36"/>
</linearGradient>
<linearGradient id="paint39_linear_329_1471" x1="746.974" y1="-0.398513" x2="764.966" y2="-0.398513" gradientUnits="userSpaceOnUse">
<stop stop-color="#5B311A"/>
<stop offset="0.25" stop-color="#7F3F24"/>
<stop offset="0.38" stop-color="#8E4528"/>
<stop offset="0.61" stop-color="#914729"/>
<stop offset="0.78" stop-color="#9B4C2D"/>
<stop offset="0.93" stop-color="#AB5532"/>
<stop offset="1" stop-color="#B55A36"/>
</linearGradient>
<linearGradient id="paint40_linear_329_1471" x1="764.965" y1="-0.398513" x2="782.957" y2="-0.398513" gradientUnits="userSpaceOnUse">
<stop stop-color="#5B311A"/>
<stop offset="0.25" stop-color="#7F3F24"/>
<stop offset="0.38" stop-color="#8E4528"/>
<stop offset="0.61" stop-color="#914729"/>
<stop offset="0.78" stop-color="#9B4C2D"/>
<stop offset="0.93" stop-color="#AB5532"/>
<stop offset="1" stop-color="#B55A36"/>
</linearGradient>
<linearGradient id="paint41_linear_329_1471" x1="782.958" y1="-0.398513" x2="800.949" y2="-0.398513" gradientUnits="userSpaceOnUse">
<stop stop-color="#5B311A"/>
<stop offset="0.25" stop-color="#7F3F24"/>
<stop offset="0.38" stop-color="#8E4528"/>
<stop offset="0.61" stop-color="#914729"/>
<stop offset="0.78" stop-color="#9B4C2D"/>
<stop offset="0.93" stop-color="#AB5532"/>
<stop offset="1" stop-color="#B55A36"/>
</linearGradient>
<linearGradient id="paint42_linear_329_1471" x1="800.949" y1="-0.398513" x2="818.941" y2="-0.398513" gradientUnits="userSpaceOnUse">
<stop stop-color="#5B311A"/>
<stop offset="0.25" stop-color="#7F3F24"/>
<stop offset="0.38" stop-color="#8E4528"/>
<stop offset="0.61" stop-color="#914729"/>
<stop offset="0.78" stop-color="#9B4C2D"/>
<stop offset="0.93" stop-color="#AB5532"/>
<stop offset="1" stop-color="#B55A36"/>
</linearGradient>
<linearGradient id="paint43_linear_329_1471" x1="818.941" y1="-0.398513" x2="836.933" y2="-0.398513" gradientUnits="userSpaceOnUse">
<stop stop-color="#5B311A"/>
<stop offset="0.25" stop-color="#7F3F24"/>
<stop offset="0.38" stop-color="#8E4528"/>
<stop offset="0.61" stop-color="#914729"/>
<stop offset="0.78" stop-color="#9B4C2D"/>
<stop offset="0.93" stop-color="#AB5532"/>
<stop offset="1" stop-color="#B55A36"/>
</linearGradient>
<linearGradient id="paint44_linear_329_1471" x1="836.934" y1="-0.398513" x2="854.925" y2="-0.398513" gradientUnits="userSpaceOnUse">
<stop stop-color="#5B311A"/>
<stop offset="0.25" stop-color="#7F3F24"/>
<stop offset="0.38" stop-color="#8E4528"/>
<stop offset="0.61" stop-color="#914729"/>
<stop offset="0.78" stop-color="#9B4C2D"/>
<stop offset="0.93" stop-color="#AB5532"/>
<stop offset="1" stop-color="#B55A36"/>
</linearGradient>
<linearGradient id="paint45_linear_329_1471" x1="854.925" y1="-0.398513" x2="872.917" y2="-0.398513" gradientUnits="userSpaceOnUse">
<stop stop-color="#5B311A"/>
<stop offset="0.25" stop-color="#7F3F24"/>
<stop offset="0.38" stop-color="#8E4528"/>
<stop offset="0.61" stop-color="#914729"/>
<stop offset="0.78" stop-color="#9B4C2D"/>
<stop offset="0.93" stop-color="#AB5532"/>
<stop offset="1" stop-color="#B55A36"/>
</linearGradient>
<linearGradient id="paint46_linear_329_1471" x1="872.917" y1="-0.398513" x2="890.908" y2="-0.398513" gradientUnits="userSpaceOnUse">
<stop stop-color="#5B311A"/>
<stop offset="0.25" stop-color="#7F3F24"/>
<stop offset="0.38" stop-color="#8E4528"/>
<stop offset="0.61" stop-color="#914729"/>
<stop offset="0.78" stop-color="#9B4C2D"/>
<stop offset="0.93" stop-color="#AB5532"/>
<stop offset="1" stop-color="#B55A36"/>
</linearGradient>
<linearGradient id="paint47_linear_329_1471" x1="890.909" y1="-0.398513" x2="908.901" y2="-0.398513" gradientUnits="userSpaceOnUse">
<stop stop-color="#5B311A"/>
<stop offset="0.25" stop-color="#7F3F24"/>
<stop offset="0.38" stop-color="#8E4528"/>
<stop offset="0.61" stop-color="#914729"/>
<stop offset="0.78" stop-color="#9B4C2D"/>
<stop offset="0.93" stop-color="#AB5532"/>
<stop offset="1" stop-color="#B55A36"/>
</linearGradient>
<linearGradient id="paint48_linear_329_1471" x1="908.901" y1="-0.398513" x2="926.893" y2="-0.398513" gradientUnits="userSpaceOnUse">
<stop stop-color="#5B311A"/>
<stop offset="0.25" stop-color="#7F3F24"/>
<stop offset="0.38" stop-color="#8E4528"/>
<stop offset="0.61" stop-color="#914729"/>
<stop offset="0.78" stop-color="#9B4C2D"/>
<stop offset="0.93" stop-color="#AB5532"/>
<stop offset="1" stop-color="#B55A36"/>
</linearGradient>
<linearGradient id="paint49_linear_329_1471" x1="926.893" y1="-0.398513" x2="944.885" y2="-0.398513" gradientUnits="userSpaceOnUse">
<stop stop-color="#5B311A"/>
<stop offset="0.25" stop-color="#7F3F24"/>
<stop offset="0.38" stop-color="#8E4528"/>
<stop offset="0.61" stop-color="#914729"/>
<stop offset="0.78" stop-color="#9B4C2D"/>
<stop offset="0.93" stop-color="#AB5532"/>
<stop offset="1" stop-color="#B55A36"/>
</linearGradient>
<linearGradient id="paint50_linear_329_1471" x1="944.885" y1="-0.398513" x2="962.877" y2="-0.398513" gradientUnits="userSpaceOnUse">
<stop stop-color="#5B311A"/>
<stop offset="0.25" stop-color="#7F3F24"/>
<stop offset="0.38" stop-color="#8E4528"/>
<stop offset="0.61" stop-color="#914729"/>
<stop offset="0.78" stop-color="#9B4C2D"/>
<stop offset="0.93" stop-color="#AB5532"/>
<stop offset="1" stop-color="#B55A36"/>
</linearGradient>
<linearGradient id="paint51_linear_329_1471" x1="962.876" y1="-0.398513" x2="980.868" y2="-0.398513" gradientUnits="userSpaceOnUse">
<stop stop-color="#5B311A"/>
<stop offset="0.25" stop-color="#7F3F24"/>
<stop offset="0.38" stop-color="#8E4528"/>
<stop offset="0.61" stop-color="#914729"/>
<stop offset="0.78" stop-color="#9B4C2D"/>
<stop offset="0.93" stop-color="#AB5532"/>
<stop offset="1" stop-color="#B55A36"/>
</linearGradient>
<linearGradient id="paint52_linear_329_1471" x1="980.868" y1="-0.398513" x2="998.86" y2="-0.398513" gradientUnits="userSpaceOnUse">
<stop stop-color="#5B311A"/>
<stop offset="0.25" stop-color="#7F3F24"/>
<stop offset="0.38" stop-color="#8E4528"/>
<stop offset="0.61" stop-color="#914729"/>
<stop offset="0.78" stop-color="#9B4C2D"/>
<stop offset="0.93" stop-color="#AB5532"/>
<stop offset="1" stop-color="#B55A36"/>
</linearGradient>
<linearGradient id="paint53_linear_329_1471" x1="998.86" y1="-0.398513" x2="1016.85" y2="-0.398513" gradientUnits="userSpaceOnUse">
<stop stop-color="#5B311A"/>
<stop offset="0.25" stop-color="#7F3F24"/>
<stop offset="0.38" stop-color="#8E4528"/>
<stop offset="0.61" stop-color="#914729"/>
<stop offset="0.78" stop-color="#9B4C2D"/>
<stop offset="0.93" stop-color="#AB5532"/>
<stop offset="1" stop-color="#B55A36"/>
</linearGradient>
<radialGradient id="paint54_radial_329_1471" cx="0" cy="0" r="1" gradientUnits="userSpaceOnUse" gradientTransform="translate(647.942 467.185) scale(642.174 10.9511)">
<stop offset="0.09"/>
<stop offset="0.87" stop-color="#484848" stop-opacity="0.53"/>
<stop offset="1" stop-color="#999999" stop-opacity="0"/>
</radialGradient>
<radialGradient id="paint55_radial_329_1471" cx="0" cy="0" r="1" gradientUnits="userSpaceOnUse" gradientTransform="translate(1110.02 418.942) scale(41.096 53.3689)">
<stop stop-color="#1A1A1A"/>
<stop offset="0.48" stop-color="#1C1C1C"/>
<stop offset="0.65" stop-color="#232323"/>
<stop offset="0.78" stop-color="#2E2E2E"/>
<stop offset="0.81" stop-color="#333333"/>
<stop offset="1" stop-color="#1A1A1A"/>
</radialGradient>
<radialGradient id="paint56_radial_329_1471" cx="0" cy="0" r="1" gradientUnits="userSpaceOnUse" gradientTransform="translate(1110.02 418.942) scale(25.1142 32.6143)">
<stop stop-color="#1A1A1A"/>
<stop offset="0.44" stop-color="#1D1D1D"/>
<stop offset="0.76" stop-color="#262626"/>
<stop offset="1" stop-color="#333333"/>
</radialGradient>
<radialGradient id="paint57_radial_329_1471" cx="0" cy="0" r="1" gradientUnits="userSpaceOnUse" gradientTransform="translate(841.654 417.348) scale(0.285389 0.370617)">
<stop stop-color="#1A1A1A"/>
<stop offset="0.48" stop-color="#1C1C1C"/>
<stop offset="0.65" stop-color="#232323"/>
<stop offset="0.78" stop-color="#2E2E2E"/>
<stop offset="0.81" stop-color="#333333"/>
<stop offset="1" stop-color="#1A1A1A"/>
</radialGradient>
<radialGradient id="paint58_radial_329_1471" cx="0" cy="0" r="1" gradientUnits="userSpaceOnUse" gradientTransform="translate(841.653 417.348) scale(22.0833 28.6784)">
<stop offset="0.25" stop-color="#333333"/>
<stop offset="0.33"/>
<stop offset="0.64" stop-color="#020202"/>
<stop offset="0.76" stop-color="#090909"/>
<stop offset="0.84" stop-color="#141414"/>
<stop offset="0.9" stop-color="#252525"/>
<stop offset="0.94" stop-color="#333333"/>
<stop offset="1" stop-color="#1A1A1A"/>
</radialGradient>
<linearGradient id="paint59_linear_329_1471" x1="975.284" y1="428.8" x2="975.284" y2="359.459" gradientUnits="userSpaceOnUse">
<stop offset="0.01" stop-color="#1A1A1A"/>
<stop offset="0.21" stop-color="#1E1E1E"/>
<stop offset="0.4" stop-color="#292929"/>
<stop offset="0.58" stop-color="#3C3C3C"/>
<stop offset="0.75" stop-color="#565656"/>
<stop offset="0.84" stop-color="#666666"/>
<stop offset="0.88" stop-color="#626262"/>
<stop offset="0.93" stop-color="#575757"/>
<stop offset="0.97" stop-color="#444444"/>
<stop offset="1" stop-color="#333333"/>
</linearGradient>
<linearGradient id="paint60_linear_329_1471" x1="1115.98" y1="402.602" x2="1115.98" y2="185.189" gradientUnits="userSpaceOnUse">
<stop stop-color="#CCCCCC"/>
<stop offset="0.23" stop-color="#C6C6C6"/>
<stop offset="0.54" stop-color="#B4B4B4"/>
<stop offset="0.56" stop-color="#B3B3B3"/>
<stop offset="0.65" stop-color="#CCCCCC"/>
<stop offset="0.76" stop-color="#E1E1E1"/>
<stop offset="0.86" stop-color="#EEEEEE"/>
<stop offset="0.96" stop-color="#F2F2F2"/>
<stop offset="0.97" stop-color="#EAEAEA"/>
<stop offset="0.99" stop-color="#E6E6E6"/>
</linearGradient>
<radialGradient id="paint61_radial_329_1471" cx="0" cy="0" r="1" gradientUnits="userSpaceOnUse" gradientTransform="translate(1107.77 382.82) scale(45.4326 58.3662)">
<stop stop-color="#808080"/>
<stop offset="0.5" stop-color="#5C5C5C"/>
<stop offset="1" stop-color="#333333"/>
</radialGradient>
<linearGradient id="paint62_linear_329_1471" x1="1060.26" y1="251.589" x2="1089.68" y2="211.924" gradientUnits="userSpaceOnUse">
<stop stop-color="#333333"/>
<stop offset="0.5" stop-color="#5C5C5C"/>
<stop offset="1" stop-color="#808080"/>
</linearGradient>
<linearGradient id="paint63_linear_329_1471" x1="1139.32" y1="276.711" x2="1176.01" y2="227.25" gradientUnits="userSpaceOnUse">
<stop stop-color="#333333"/>
<stop offset="0.5" stop-color="#5C5C5C"/>
<stop offset="1" stop-color="#808080"/>
</linearGradient>
<linearGradient id="paint64_linear_329_1471" x1="1102.53" y1="255.479" x2="1136.37" y2="209.863" gradientUnits="userSpaceOnUse">
<stop stop-color="#333333"/>
<stop offset="0.5" stop-color="#5C5C5C"/>
<stop offset="1" stop-color="#808080"/>
</linearGradient>
<linearGradient id="paint65_linear_329_1471" x1="1161.64" y1="270.997" x2="1197.17" y2="223.089" gradientUnits="userSpaceOnUse">
<stop stop-color="#333333"/>
<stop offset="0.5" stop-color="#5C5C5C"/>
<stop offset="1" stop-color="#808080"/>
</linearGradient>
<linearGradient id="paint66_linear_329_1471" x1="1103.4" y1="215.197" x2="1103.4" y2="201.648" gradientUnits="userSpaceOnUse">
<stop stop-color="#E9E9E9" stop-opacity="0"/>
<stop offset="0.38" stop-color="#E7E7E7" stop-opacity="0.02"/>
<stop offset="0.54" stop-color="#E1E1E1" stop-opacity="0.07"/>
<stop offset="0.65" stop-color="#D7D7D7" stop-opacity="0.17"/>
<stop offset="0.75" stop-color="#C9C9C9" stop-opacity="0.31"/>
<stop offset="0.84" stop-color="#B6B6B6" stop-opacity="0.49"/>
<stop offset="0.91" stop-color="#9F9F9F" stop-opacity="0.71"/>
<stop offset="0.98" stop-color="#848484" stop-opacity="0.96"/>
<stop offset="0.99" stop-color="#808080"/>
</linearGradient>
<linearGradient id="paint67_linear_329_1471" x1="1175.14" y1="356.613" x2="1198.74" y2="324.804" gradientUnits="userSpaceOnUse">
<stop stop-color="#333333"/>
<stop offset="0.24" stop-color="#373737"/>
<stop offset="0.47" stop-color="#424242"/>
<stop offset="0.68" stop-color="#545454"/>
<stop offset="0.88" stop-color="#6E6E6E"/>
<stop offset="1" stop-color="#808080"/>
</linearGradient>
<linearGradient id="paint68_linear_329_1471" x1="1174.56" y1="401.986" x2="1195.66" y2="377.463" gradientUnits="userSpaceOnUse">
<stop stop-color="#1A1A1A"/>
<stop offset="0.29" stop-color="#1E1E1E"/>
<stop offset="0.56" stop-color="#292929"/>
<stop offset="0.82" stop-color="#3B3B3B"/>
<stop offset="1" stop-color="#4D4D4D"/>
</linearGradient>
<linearGradient id="paint69_linear_329_1471" x1="1166.99" y1="400.107" x2="1166.99" y2="385.498" gradientUnits="userSpaceOnUse">
<stop stop-color="#4D4D4D" stop-opacity="0.2"/>
<stop offset="0.01" stop-color="#4B4B4B" stop-opacity="0.23"/>
<stop offset="0.35" stop-color="#252525" stop-opacity="0.82"/>
<stop offset="1" stop-color="#1A1A1A"/>
</linearGradient>
<linearGradient id="paint70_linear_329_1471" x1="936.819" y1="430.394" x2="936.819" y2="357.865" gradientUnits="userSpaceOnUse">
<stop stop-color="#333333"/>
<stop offset="0.03" stop-color="#444444"/>
<stop offset="0.07" stop-color="#575757"/>
<stop offset="0.12" stop-color="#626262"/>
<stop offset="0.16" stop-color="#666666"/>
<stop offset="0.25" stop-color="#565656"/>
<stop offset="0.42" stop-color="#3C3C3C"/>
<stop offset="0.6" stop-color="#292929"/>
<stop offset="0.79" stop-color="#1E1E1E"/>
<stop offset="0.99" stop-color="#1A1A1A"/>
</linearGradient>
<linearGradient id="paint71_linear_329_1471" x1="974.665" y1="-0.398474" x2="974.665" y2="-0.398474" gradientUnits="userSpaceOnUse">
<stop stop-color="#333333"/>
<stop offset="0.03" stop-color="#444444"/>
<stop offset="0.07" stop-color="#575757"/>
<stop offset="0.12" stop-color="#626262"/>
<stop offset="0.16" stop-color="#666666"/>
<stop offset="0.25" stop-color="#565656"/>
<stop offset="0.42" stop-color="#3C3C3C"/>
<stop offset="0.6" stop-color="#292929"/>
<stop offset="0.79" stop-color="#1E1E1E"/>
<stop offset="0.99" stop-color="#1A1A1A"/>
</linearGradient>
<linearGradient id="paint72_linear_329_1471" x1="1012.51" y1="-0.398474" x2="1012.51" y2="-0.398474" gradientUnits="userSpaceOnUse">
<stop stop-color="#333333"/>
<stop offset="0.03" stop-color="#444444"/>
<stop offset="0.07" stop-color="#575757"/>
<stop offset="0.12" stop-color="#626262"/>
<stop offset="0.16" stop-color="#666666"/>
<stop offset="0.25" stop-color="#565656"/>
<stop offset="0.42" stop-color="#3C3C3C"/>
<stop offset="0.6" stop-color="#292929"/>
<stop offset="0.79" stop-color="#1E1E1E"/>
<stop offset="0.99" stop-color="#1A1A1A"/>
</linearGradient>
<linearGradient id="paint73_linear_329_1471" x1="1059.08" y1="371.35" x2="1059.08" y2="324.39" gradientUnits="userSpaceOnUse">
<stop stop-color="#1A1A1A"/>
<stop offset="0.18" stop-color="#202020"/>
<stop offset="0.43" stop-color="#323232"/>
<stop offset="0.7" stop-color="#4D4D4D"/>
<stop offset="0.76" stop-color="#444444"/>
<stop offset="0.88" stop-color="#373737"/>
<stop offset="0.99" stop-color="#333333"/>
</linearGradient>
<linearGradient id="paint74_linear_329_1471" x1="838.652" y1="420.033" x2="838.652" y2="354.167" gradientUnits="userSpaceOnUse">
<stop stop-color="#1A1A1A"/>
<stop offset="0.2" stop-color="#363636"/>
<stop offset="0.56" stop-color="#666666"/>
<stop offset="0.76" stop-color="#4D4D4D"/>
<stop offset="0.99" stop-color="#333333"/>
</linearGradient>
<radialGradient id="paint75_radial_329_1471" cx="0" cy="0" r="1" gradientUnits="userSpaceOnUse" gradientTransform="translate(161.699 418.149) scale(0.285389 0.370617)">
<stop stop-color="#1A1A1A"/>
<stop offset="0.48" stop-color="#1C1C1C"/>
<stop offset="0.65" stop-color="#232323"/>
<stop offset="0.78" stop-color="#2E2E2E"/>
<stop offset="0.81" stop-color="#333333"/>
<stop offset="1" stop-color="#1A1A1A"/>
</radialGradient>
<radialGradient id="paint76_radial_329_1471" cx="0" cy="0" r="1" gradientUnits="userSpaceOnUse" gradientTransform="translate(161.698 418.942) scale(25.1142 32.6143)">
<stop stop-color="#1A1A1A"/>
<stop offset="0.44" stop-color="#1D1D1D"/>
<stop offset="0.76" stop-color="#262626"/>
<stop offset="1" stop-color="#333333"/>
</radialGradient>
<radialGradient id="paint77_radial_329_1471" cx="0" cy="0" r="1" gradientUnits="userSpaceOnUse" gradientTransform="translate(260.083 418.942) scale(0.285389 0.370617)">
<stop stop-color="#1A1A1A"/>
<stop offset="0.48" stop-color="#1C1C1C"/>
<stop offset="0.65" stop-color="#232323"/>
<stop offset="0.78" stop-color="#2E2E2E"/>
<stop offset="0.81" stop-color="#333333"/>
<stop offset="1" stop-color="#1A1A1A"/>
</radialGradient>
<radialGradient id="paint78_radial_329_1471" cx="0" cy="0" r="1" gradientUnits="userSpaceOnUse" gradientTransform="translate(260.083 418.942) scale(25.1142 32.6143)">
<stop stop-color="#1A1A1A"/>
<stop offset="0.44" stop-color="#1D1D1D"/>
<stop offset="0.76" stop-color="#262626"/>
<stop offset="1" stop-color="#333333"/>
</radialGradient>
</defs>
</svg>
