<svg width="91" height="114" viewBox="0 0 91 114" fill="none" xmlns="http://www.w3.org/2000/svg">
<path d="M61.9441 79.7147L81.7152 54.599C90.4366 43.5226 91.024 30.0147 83.2814 18.46C75.5379 6.90505 61.2916 0 45.153 0C29.0145 0 14.7677 6.90505 7.02468 18.46C-0.717823 29.9975 -0.131444 43.5047 8.59088 54.599L28.3396 79.6985C11.0271 82.201 0 88.4847 0 96.0642C0.0213617 106.217 18.9876 113.601 45.153 113.601C71.3184 113.601 90.2836 106.217 90.2836 96.0642C90.2836 88.4492 79.2786 82.1835 61.944 79.716L61.9441 79.7147ZM63.9016 33.4593C63.9016 41.8732 55.4842 48.7243 45.1529 48.7243C34.8215 48.7243 26.4041 41.8732 26.4041 33.4593C26.4041 25.0281 34.8215 18.1586 45.1529 18.1586C55.4842 18.1586 63.9016 25.0105 63.9016 33.4593ZM42.0641 97.128C42.738 97.9981 43.8915 98.5123 45.1529 98.5123C46.4365 98.5123 47.5891 97.9973 48.2416 97.1454L55.6804 87.6848C71.6879 89.2292 79.7142 93.8798 79.7142 96.063C79.7142 98.7255 67.9478 104.974 45.1529 104.974C22.3591 104.974 10.5915 98.7255 10.5915 96.063C10.5915 93.8798 18.6176 89.2466 34.6254 87.6848L42.0641 97.128Z" fill="#1A2F4F" fill-opacity="0.8"/>
</svg>
