<svg id="Layer_1" data-name="Layer 1" xmlns="http://www.w3.org/2000/svg" xmlns:xlink="http://www.w3.org/1999/xlink" viewBox="0 0 928 458"><defs><style>.cls-1{opacity:0.61;fill:url(#radial-gradient);}.cls-2{fill:#1e1e1e;}.cls-3{fill:#3a3a3a;}.cls-4{fill:url(#linear-gradient);}.cls-5{fill:url(#linear-gradient-2);}.cls-6{fill:url(#linear-gradient-3);}.cls-7{fill:url(#linear-gradient-4);}.cls-8{fill:url(#linear-gradient-5);}.cls-9{fill:url(#linear-gradient-6);}.cls-10{fill:url(#linear-gradient-7);}.cls-11{fill:url(#linear-gradient-8);}.cls-12{fill:url(#linear-gradient-9);}.cls-13{fill:url(#linear-gradient-10);}.cls-14{fill:url(#linear-gradient-11);}.cls-15{fill:url(#linear-gradient-12);}.cls-16{fill:url(#radial-gradient-2);}.cls-17{fill:url(#radial-gradient-3);}.cls-18{fill:url(#radial-gradient-4);}.cls-19{fill:url(#radial-gradient-5);}.cls-20{fill:url(#radial-gradient-6);}.cls-21{fill:url(#radial-gradient-7);}.cls-22{fill:url(#linear-gradient-13);}.cls-23{fill:url(#linear-gradient-14);}.cls-24{fill:url(#linear-gradient-15);}.cls-25{fill:url(#linear-gradient-16);}.cls-26{fill:#494848;}.cls-27{opacity:0.33;}.cls-28{fill:url(#linear-gradient-17);}.cls-29{fill:url(#linear-gradient-18);}.cls-30{fill:url(#linear-gradient-19);}.cls-31{fill:url(#linear-gradient-20);}.cls-32{fill:url(#linear-gradient-21);}.cls-33{fill:url(#linear-gradient-22);}.cls-34{fill:url(#linear-gradient-23);}.cls-35{fill:url(#linear-gradient-24);}.cls-36{fill:url(#linear-gradient-25);}.cls-37{fill:url(#linear-gradient-26);}.cls-38{fill:url(#linear-gradient-27);}.cls-39{fill:url(#linear-gradient-28);}.cls-40{fill:url(#linear-gradient-29);}.cls-41{fill:url(#linear-gradient-30);}.cls-42{fill:url(#linear-gradient-31);}.cls-43{fill:url(#linear-gradient-32);}.cls-44{fill:url(#linear-gradient-33);}.cls-45{fill:url(#linear-gradient-34);}.cls-46{fill:url(#linear-gradient-35);}.cls-47{fill:url(#linear-gradient-36);}</style><radialGradient id="radial-gradient" cx="668" cy="725" r="458" gradientTransform="translate(-206 394.51) scale(1 0.04)" gradientUnits="userSpaceOnUse"><stop offset="0.09"/><stop offset="0.87" stop-color="#484848" stop-opacity="0.53"/><stop offset="1" stop-color="#999" stop-opacity="0"/></radialGradient><linearGradient id="linear-gradient" x1="898.65" y1="532.32" x2="1117.98" y2="454.8" gradientUnits="userSpaceOnUse"><stop offset="0" stop-color="#ddac3e"/><stop offset="0.33" stop-color="#e0ae3e"/><stop offset="0.55" stop-color="#e9b43c"/><stop offset="0.74" stop-color="#f8be39"/><stop offset="0.81" stop-color="#ffc338"/><stop offset="1" stop-color="#ddac3e"/></linearGradient><linearGradient id="linear-gradient-2" x1="134.11" y1="65.68" x2="197.6" y2="217.64" gradientUnits="userSpaceOnUse"><stop offset="0" stop-color="#999"/><stop offset="0.23" stop-color="#7f7f7f"/><stop offset="0.53" stop-color="#636363"/><stop offset="0.8" stop-color="#535353"/><stop offset="1" stop-color="#4d4d4d"/></linearGradient><linearGradient id="linear-gradient-3" x1="255.1" y1="68.05" x2="317.82" y2="218.17" xlink:href="#linear-gradient-2"/><linearGradient id="linear-gradient-4" x1="376.1" y1="68.05" x2="438.82" y2="218.17" xlink:href="#linear-gradient-2"/><linearGradient id="linear-gradient-5" x1="497.1" y1="68.05" x2="559.82" y2="218.17" xlink:href="#linear-gradient-2"/><linearGradient id="linear-gradient-6" x1="1049.2" y1="374.14" x2="1111.26" y2="522.69" gradientUnits="userSpaceOnUse"><stop offset="0" stop-color="#999"/><stop offset="0.21" stop-color="#727272"/><stop offset="0.44" stop-color="#4c4c4c"/><stop offset="0.66" stop-color="#303030"/><stop offset="0.85" stop-color="#202020"/><stop offset="1" stop-color="#1a1a1a"/></linearGradient><linearGradient id="linear-gradient-7" x1="968.26" y1="353.85" x2="1010.46" y2="454.86" gradientUnits="userSpaceOnUse"><stop offset="0" stop-color="#999"/><stop offset="0.14" stop-color="#828282"/><stop offset="0.32" stop-color="#6b6b6b"/><stop offset="0.51" stop-color="#5a5a5a"/><stop offset="0.73" stop-color="#505050"/><stop offset="1" stop-color="#4d4d4d"/></linearGradient><linearGradient id="linear-gradient-8" x1="993.7" y1="547.89" x2="1040.02" y2="483.72" gradientUnits="userSpaceOnUse"><stop offset="0" stop-color="#ffc338"/><stop offset="0.17" stop-color="#fdc138" stop-opacity="0.99"/><stop offset="0.31" stop-color="#f5bb37" stop-opacity="0.96"/><stop offset="0.45" stop-color="#e9b035" stop-opacity="0.92"/><stop offset="0.58" stop-color="#d7a132" stop-opacity="0.86"/><stop offset="0.71" stop-color="#c18d2f" stop-opacity="0.77"/><stop offset="0.83" stop-color="#a5752b" stop-opacity="0.67"/><stop offset="0.95" stop-color="#855a26" stop-opacity="0.56"/><stop offset="1" stop-color="#754c24" stop-opacity="0.5"/></linearGradient><linearGradient id="linear-gradient-9" x1="949.71" y1="584.81" x2="975.19" y2="549.51" gradientUnits="userSpaceOnUse"><stop offset="0" stop-color="#ffc338"/><stop offset="0.36" stop-color="#fcc139"/><stop offset="0.68" stop-color="#f1ba3a"/><stop offset="0.97" stop-color="#dfae3e"/><stop offset="1" stop-color="#ddac3e"/></linearGradient><linearGradient id="linear-gradient-10" x1="1053.27" y1="584.49" x2="1053.14" y2="598.8" gradientUnits="userSpaceOnUse"><stop offset="0.02" stop-color="#8f531c"/><stop offset="0.55" stop-color="#996d09"/><stop offset="1" stop-color="#ddac3e"/></linearGradient><linearGradient id="linear-gradient-11" x1="985.04" y1="491.35" x2="1023.7" y2="437.79" gradientUnits="userSpaceOnUse"><stop offset="0" stop-color="#ddac3e"/><stop offset="0.05" stop-color="#e8b33c"/><stop offset="0.15" stop-color="#f5bc3a"/><stop offset="0.27" stop-color="#fdc138"/><stop offset="0.51" stop-color="#ffc338"/><stop offset="0.75" stop-color="#fdc238"/><stop offset="0.86" stop-color="#f5bc3a"/><stop offset="0.95" stop-color="#e9b43c"/><stop offset="1" stop-color="#ddac3e"/></linearGradient><linearGradient id="linear-gradient-12" x1="1088.7" y1="622.12" x2="1113.64" y2="613.3" gradientUnits="userSpaceOnUse"><stop offset="0" stop-color="#333"/><stop offset="0.81" stop-color="gray"/><stop offset="1" stop-color="#666"/></linearGradient><radialGradient id="radial-gradient-2" cx="963.82" cy="666.55" r="72" gradientTransform="translate(-132.5 -260.26) scale(0.92 0.93)" gradientUnits="userSpaceOnUse"><stop offset="0" stop-color="#1a1a1a"/><stop offset="0.48" stop-color="#1c1c1c"/><stop offset="0.65" stop-color="#232323"/><stop offset="0.78" stop-color="#2e2e2e"/><stop offset="0.81" stop-color="#333"/><stop offset="1" stop-color="#1a1a1a"/></radialGradient><radialGradient id="radial-gradient-3" cx="963.82" cy="666.55" r="44" gradientTransform="translate(-132.5 -260.26) scale(0.92 0.93)" gradientUnits="userSpaceOnUse"><stop offset="0" stop-color="#1a1a1a"/><stop offset="0.44" stop-color="#1d1d1d"/><stop offset="0.76" stop-color="#262626"/><stop offset="1" stop-color="#333"/></radialGradient><radialGradient id="radial-gradient-4" cx="513.27" cy="664.4" xlink:href="#radial-gradient-2"/><radialGradient id="radial-gradient-5" cx="513.27" cy="664.4" r="38.69" gradientTransform="translate(-132.5 -260.26) scale(0.92 0.93)" gradientUnits="userSpaceOnUse"><stop offset="0.25" stop-color="#333"/><stop offset="0.33"/><stop offset="0.64" stop-color="#020202"/><stop offset="0.76" stop-color="#090909"/><stop offset="0.84" stop-color="#141414"/><stop offset="0.9" stop-color="#252525"/><stop offset="0.94" stop-color="#333"/><stop offset="1" stop-color="#1a1a1a"/></radialGradient><radialGradient id="radial-gradient-6" cx="344.18" cy="662.25" xlink:href="#radial-gradient-2"/><radialGradient id="radial-gradient-7" cx="344.18" cy="662.25" r="38.69" xlink:href="#radial-gradient-5"/><linearGradient id="linear-gradient-13" x1="539" y1="372" x2="539" y2="294" gradientUnits="userSpaceOnUse"><stop offset="0.01" stop-color="#1a1a1a"/><stop offset="0.21" stop-color="#1e1e1e"/><stop offset="0.4" stop-color="#292929"/><stop offset="0.58" stop-color="#3c3c3c"/><stop offset="0.75" stop-color="#565656"/><stop offset="0.84" stop-color="#666"/><stop offset="0.88" stop-color="#626262"/><stop offset="0.93" stop-color="#575757"/><stop offset="0.97" stop-color="#444"/><stop offset="1" stop-color="#333"/></linearGradient><linearGradient id="linear-gradient-14" x1="889.5" y1="454" x2="889.5" y2="426" gradientTransform="translate(8.5 -23.5)" xlink:href="#linear-gradient-13"/><linearGradient id="linear-gradient-15" x1="673" y1="409.15" x2="673" y2="386.85" gradientTransform="translate(183 235)" xlink:href="#linear-gradient-13"/><linearGradient id="linear-gradient-16" x1="864.48" y1="601.37" x2="864.48" y2="592.22" gradientTransform="translate(190.1 -155.8)" xlink:href="#linear-gradient-13"/><linearGradient id="linear-gradient-17" x1="134" y1="66.86" x2="612" y2="66.86" gradientUnits="userSpaceOnUse"><stop offset="0" stop-color="#999"/><stop offset="0.03" stop-color="#8e8e8e"/><stop offset="0.13" stop-color="#6f6f6f"/><stop offset="0.23" stop-color="#585858"/><stop offset="0.33" stop-color="#474747"/><stop offset="0.45" stop-color="#3d3d3d"/><stop offset="0.6" stop-color="#3a3a3a"/><stop offset="1" stop-color="#4d4d4d"/></linearGradient><linearGradient id="linear-gradient-18" x1="650" y1="11.22" x2="724" y2="11.22" gradientUnits="userSpaceOnUse"><stop offset="0" stop-color="#1a1a1a"/><stop offset="0.01" stop-color="#1c1c1c"/><stop offset="0.11" stop-color="#444"/><stop offset="0.19" stop-color="#5d5d5d"/><stop offset="0.25" stop-color="#666"/><stop offset="1" stop-color="#666"/></linearGradient><linearGradient id="linear-gradient-19" x1="589" y1="134.02" x2="653" y2="134.02" gradientUnits="userSpaceOnUse"><stop offset="0" stop-color="#1a1a1a"/><stop offset="0.01" stop-color="#1c1c1c"/><stop offset="0.25" stop-color="#444"/><stop offset="0.43" stop-color="#5d5d5d"/><stop offset="0.55" stop-color="#666"/><stop offset="1" stop-color="#666"/></linearGradient><linearGradient id="linear-gradient-20" x1="64.19" y1="245.57" x2="169.42" y2="63.32" gradientUnits="userSpaceOnUse"><stop offset="0" stop-color="#424242"/><stop offset="0.73" stop-color="#818181"/><stop offset="1" stop-color="#999"/></linearGradient><linearGradient id="linear-gradient-21" x1="122.95" y1="155.07" x2="231.85" y2="155.07" gradientUnits="userSpaceOnUse"><stop offset="0" stop-color="#666"/><stop offset="0.12" stop-color="#595959"/><stop offset="0.27" stop-color="#505050"/><stop offset="0.49" stop-color="#4d4d4d"/><stop offset="0.98" stop-color="#666"/></linearGradient><linearGradient id="linear-gradient-22" x1="120.95" y1="166.29" x2="229.85" y2="166.29" gradientUnits="userSpaceOnUse"><stop offset="0.02" stop-color="#666"/><stop offset="0.51" stop-color="#4d4d4d"/><stop offset="0.73" stop-color="#505050"/><stop offset="0.88" stop-color="#595959"/><stop offset="1" stop-color="#666"/></linearGradient><linearGradient id="linear-gradient-23" x1="118.95" y1="177.52" x2="227.85" y2="177.52" xlink:href="#linear-gradient-21"/><linearGradient id="linear-gradient-24" x1="246.78" y1="155.07" x2="351" y2="155.07" xlink:href="#linear-gradient-21"/><linearGradient id="linear-gradient-25" x1="244.87" y1="166.29" x2="349.09" y2="166.29" xlink:href="#linear-gradient-22"/><linearGradient id="linear-gradient-26" x1="242.95" y1="177.52" x2="347.17" y2="177.52" xlink:href="#linear-gradient-21"/><linearGradient id="linear-gradient-27" x1="367.78" y1="155.07" x2="472" y2="155.07" xlink:href="#linear-gradient-21"/><linearGradient id="linear-gradient-28" x1="365.87" y1="166.29" x2="470.09" y2="166.29" xlink:href="#linear-gradient-22"/><linearGradient id="linear-gradient-29" x1="363.95" y1="177.52" x2="468.17" y2="177.52" xlink:href="#linear-gradient-21"/><linearGradient id="linear-gradient-30" x1="488.82" y1="155.07" x2="594" y2="155.07" xlink:href="#linear-gradient-21"/><linearGradient id="linear-gradient-31" x1="486.88" y1="166.29" x2="592.07" y2="166.29" xlink:href="#linear-gradient-22"/><linearGradient id="linear-gradient-32" x1="484.95" y1="177.52" x2="590.14" y2="177.52" xlink:href="#linear-gradient-21"/><linearGradient id="linear-gradient-33" x1="1001.78" y1="349.88" x2="1060.24" y2="374.28" gradientUnits="userSpaceOnUse"><stop offset="0" stop-color="#ffd678"/><stop offset="0.25" stop-color="#ffd167"/><stop offset="1" stop-color="#ffc338"/></linearGradient><linearGradient id="linear-gradient-34" x1="1041.59" y1="593.58" x2="1041.41" y2="613.39" gradientUnits="userSpaceOnUse"><stop offset="0.02" stop-opacity="0.4"/><stop offset="0.26" stop-color="#181101" stop-opacity="0.37"/><stop offset="0.53" stop-color="#5e4306" stop-opacity="0.28"/><stop offset="0.69" stop-color="#996d09" stop-opacity="0.2"/><stop offset="1" stop-color="#ddac3e" stop-opacity="0.2"/></linearGradient><linearGradient id="linear-gradient-35" x1="1055.79" y1="620.59" x2="1055.61" y2="640.39" xlink:href="#linear-gradient-34"/><linearGradient id="linear-gradient-36" x1="1052.57" y1="564.38" x2="1052.32" y2="592.42" gradientUnits="userSpaceOnUse"><stop offset="0.02" stop-color="#e7b33c"/><stop offset="0.61" stop-color="#f8c656"/><stop offset="1" stop-color="#ffce61"/></linearGradient></defs><ellipse class="cls-1" cx="464" cy="423" rx="464" ry="35"/><path class="cls-2" d="M1097,590,920,561l-29,15-85-1-281-5-132-6-73.5,25.6L296,590l-8,52,774.45,22.5a45.71,45.71,0,0,0,28.18-8.58L1110,642Z" transform="translate(-206 -302)"/><path class="cls-3" d="M810,576H291l28-230,23.55-11a1.5,1.5,0,0,1,2.18,1.41L342,361.85H818l19-55.17L928,302l2,9.35-74,13.09Z" transform="translate(-206 -302)"/><path class="cls-4" d="M885,576h6s47-20,94,0c0,0,26,15,42,66h83s8-18,6-26a17.24,17.24,0,0,0-8-11s-3-9,0-13,2-63-2-82l-32-134s-5-20-24-25-123-13-123-13-11,2-11,16-2,196-2,196l-23,14S880,572,885,576Z" transform="translate(-206 -302)"/><polygon class="cls-5" points="213.59 262.78 110 262.78 134 73.88 244 73.88 213.59 262.78"/><polygon class="cls-6" points="333.58 262.78 230 262.78 260.42 73.88 364 73.88 333.58 262.78"/><polygon class="cls-7" points="454.58 262.78 351 262.78 381.42 73.88 485 73.88 454.58 262.78"/><polygon class="cls-8" points="575.59 262.78 472 262.78 502.42 73.88 606 73.88 575.59 262.78"/><path class="cls-9" d="M1110,569c.35-15.46,0-36-4-57-7.26-38.11-18-76-30.64-130.32L1057,379c-3,0-1,6-1,6s16,83,17,87c0,0,20,8,24,33s12.69,69,12.69,69Z" transform="translate(-206 -302)"/><path class="cls-10" d="M1031,375s11,1,14,14,17,77,17,77,1,3-3,2-104-17-104-17-12-1-12-10V375s1-7,5-7S1031,375,1031,375Z" transform="translate(-206 -302)"/><path class="cls-11" d="M954,478l103,18s26,4,31,44c0,0,1,5-5,4s-119-18-119-18l114,14s7,2,6-2c-1.08-4.34-2-28-28-39C1030,493,954,478,954,478Z" transform="translate(-206 -302)"/><path class="cls-12" d="M907.4,554S981,543,1017,581c0,0-31-42-102-31C912.69,550.36,909.76,553.38,907.4,554Z" transform="translate(-206 -302)"/><path class="cls-13" d="M1107,594.15l-108.68-6.22,6.2,7.73L1108,605S1106,599.3,1107,594.15Z" transform="translate(-206 -302)"/><path class="cls-14" d="M951.1,450.18l108.73,18s15,2.64,19.08,7.24c0,0,8.21,5.86,11.65,12.23,0,0-11.56-12.63-44.56-17.63s-117-20-117-20-8-3-9-11C920,439,926.21,446.35,951.1,450.18Z" transform="translate(-206 -302)"/><path class="cls-15" d="M1085,609l23,2a8,8,0,0,1,5,9,81.44,81.44,0,0,0-1,9l-21-4s-5-1-8-10C1083,615,1079,608,1085,609Z" transform="translate(-206 -302)"/><ellipse class="cls-16" cx="751" cy="360" rx="66" ry="67"/><ellipse class="cls-17" cx="751" cy="360" rx="40.33" ry="40.94"/><ellipse cx="751.46" cy="332.55" rx="1.38" ry="1.4"/><ellipse cx="739.99" cy="334.92" rx="1.38" ry="1.4"/><ellipse cx="730.58" cy="342" rx="1.38" ry="1.4"/><ellipse cx="725" cy="352.45" rx="1.38" ry="1.4"/><ellipse cx="724.29" cy="364.31" rx="1.38" ry="1.4"/><ellipse cx="728.59" cy="375.36" rx="1.37" ry="1.4"/><ellipse cx="737.08" cy="383.54" rx="1.37" ry="1.4"/><ellipse cx="748.19" cy="387.31" rx="1.38" ry="1.4"/><ellipse cx="759.82" cy="385.96" rx="1.38" ry="1.4"/><ellipse cx="769.8" cy="379.74" rx="1.38" ry="1.4"/><ellipse cx="776.25" cy="369.83" rx="1.38" ry="1.4"/><ellipse cx="777.98" cy="358.07" rx="1.38" ry="1.4"/><ellipse cx="774.65" cy="346.68" rx="1.37" ry="1.4"/><ellipse cx="766.89" cy="337.78" rx="1.37" ry="1.4"/><ellipse class="cls-18" cx="338" cy="358" rx="66" ry="67"/><ellipse class="cls-19" cx="338" cy="358" rx="35.46" ry="36"/><ellipse cx="338.46" cy="330.55" rx="1.37" ry="1.4"/><ellipse cx="326.99" cy="332.92" rx="1.38" ry="1.4"/><ellipse cx="317.58" cy="340" rx="1.38" ry="1.4"/><ellipse cx="312" cy="350.45" rx="1.38" ry="1.4"/><ellipse cx="311.29" cy="362.31" rx="1.38" ry="1.4"/><ellipse cx="315.59" cy="373.36" rx="1.37" ry="1.4"/><ellipse cx="324.08" cy="381.54" rx="1.37" ry="1.4"/><ellipse cx="335.19" cy="385.31" rx="1.38" ry="1.4"/><ellipse cx="346.82" cy="383.96" rx="1.38" ry="1.4"/><ellipse cx="356.8" cy="377.74" rx="1.38" ry="1.4"/><ellipse cx="363.25" cy="367.83" rx="1.38" ry="1.4"/><ellipse cx="364.98" cy="356.07" rx="1.38" ry="1.4"/><ellipse cx="361.65" cy="344.68" rx="1.37" ry="1.4"/><ellipse cx="353.89" cy="335.78" rx="1.37" ry="1.4"/><ellipse class="cls-20" cx="183" cy="356" rx="66" ry="67"/><ellipse class="cls-21" cx="183" cy="356" rx="35.46" ry="36"/><ellipse cx="183.46" cy="328.55" rx="1.37" ry="1.4"/><ellipse cx="171.99" cy="330.92" rx="1.38" ry="1.4"/><ellipse cx="162.58" cy="338" rx="1.38" ry="1.4"/><ellipse cx="157" cy="348.45" rx="1.38" ry="1.4"/><ellipse cx="156.29" cy="360.31" rx="1.38" ry="1.4"/><ellipse cx="160.59" cy="371.36" rx="1.37" ry="1.4"/><ellipse cx="169.08" cy="379.54" rx="1.37" ry="1.4"/><ellipse cx="180.19" cy="383.31" rx="1.38" ry="1.4"/><ellipse cx="191.82" cy="381.96" rx="1.38" ry="1.4"/><ellipse cx="201.8" cy="375.74" rx="1.38" ry="1.4"/><ellipse cx="208.25" cy="365.83" rx="1.38" ry="1.4"/><ellipse cx="209.98" cy="354.07" rx="1.38" ry="1.4"/><ellipse cx="206.65" cy="342.68" rx="1.37" ry="1.4"/><ellipse cx="198.89" cy="333.78" rx="1.37" ry="1.4"/><rect class="cls-22" x="464" y="294" width="150" height="78" rx="12.17"/><rect class="cls-23" x="841.5" y="402.5" width="113" height="28" rx="6.5" transform="translate(275.5 1012.5) rotate(-90)"/><rect class="cls-24" x="811" y="621.85" width="90" height="22.3" rx="6.5" transform="translate(17 1187) rotate(-90)"/><rect class="cls-25" x="1009.58" y="436.42" width="90" height="9.15" rx="2.06" transform="translate(544.48 1240.88) rotate(-97.27)"/><rect class="cls-26" x="110" y="273" width="142" height="15"/><rect class="cls-26" x="267" y="273" width="142" height="15"/><polygon class="cls-27" points="134 73.88 244 73.88 241.45 89.7 146.33 89.7 122 262.78 110 262.78 134 73.88"/><polygon class="cls-27" points="260 73.88 364 73.88 361.45 89.7 269 89.7 240 262.78 230 262.78 260 73.88"/><polygon class="cls-27" points="381 73.88 485 73.88 482.45 89.7 391 89.7 362 262.78 351 262.78 381 73.88"/><polygon class="cls-27" points="502 73.88 606 73.88 603.45 89.7 513.33 89.7 485 262.78 472 262.78 502 73.88"/><polygon class="cls-28" points="608 73.88 134 73.88 136 59.85 612 59.85 608 73.88"/><polygon class="cls-29" points="650 22.44 653.47 3.52 722 0 724 9.35 650 22.44"/><polygon class="cls-30" points="637.63 4.33 589 263.71 606 262.78 653 4.68 637.63 4.33"/><polygon class="cls-31" points="137.59 44.94 120 52.37 94 262.78 110 262.78 137.59 44.94"/><polygon class="cls-32" points="124.37 149.32 231.85 149.32 230 160.83 122.95 160.83 124.37 149.32"/><polygon class="cls-33" points="122.37 160.54 229.85 160.54 228 172.05 120.95 172.05 122.37 160.54"/><polygon class="cls-34" points="120.37 171.76 227.85 171.76 226 183.27 118.95 183.27 120.37 171.76"/><polygon class="cls-35" points="248.14 149.32 351 149.32 349.23 160.83 246.78 160.83 248.14 149.32"/><polygon class="cls-36" points="246.23 160.54 349.09 160.54 347.31 172.05 244.87 172.05 246.23 160.54"/><polygon class="cls-37" points="244.31 171.76 347.17 171.76 345.4 183.27 242.95 183.27 244.31 171.76"/><polygon class="cls-38" points="369.14 149.32 472 149.32 470.23 160.83 367.78 160.83 369.14 149.32"/><polygon class="cls-39" points="367.23 160.54 470.09 160.54 468.31 172.05 365.87 172.05 367.23 160.54"/><polygon class="cls-40" points="365.31 171.76 468.17 171.76 466.4 183.27 363.95 183.27 365.31 171.76"/><polygon class="cls-41" points="490.19 149.32 594 149.32 592.21 160.83 488.82 160.83 490.19 149.32"/><polygon class="cls-42" points="488.26 160.54 592.07 160.54 590.28 172.05 486.88 172.05 488.26 160.54"/><polygon class="cls-43" points="486.32 171.76 590.14 171.76 588.35 183.27 484.95 183.27 486.32 171.76"/><rect class="cls-2" x="742" y="204" width="18" height="34" rx="8.17"/><path class="cls-44" d="M927,338l93.46,8.59s29.86,3.1,35.7,6.75,10.34,7.11,14.09,13.89c0,0,3.63,6.63,4.69,12.7a81.82,81.82,0,0,0-9.91-12.12,35.75,35.75,0,0,0-17.9-9.58c-9-1.9-25.33-5.06-48.13-8.23C963,345,927,338,927,338Z" transform="translate(-206 -302)"/><path class="cls-45" d="M1021,589.23s-8,1.77-3,9.77,7,8,7,8a27.67,27.67,0,0,0,8,1c5,0,22,1,22,1s15,2,11-3-8-11-8-11-3-4.17-7.5-4.08S1021,589.23,1021,589.23Z" transform="translate(-206 -302)"/><path class="cls-46" d="M1035,616.23s-7,.77-3,9.77c3.83,8.62,7,8,7,8a27.67,27.67,0,0,0,8,1c5,0,22,1,22,1s15,2,11-3-8-11-8-11-3-4.17-7.5-4.08S1035,616.23,1035,616.23Z" transform="translate(-206 -302)"/><path class="cls-47" d="M1000,558l17,13s13.5,9.5,34.25,11.75S1105,587,1105,587l-48-9S1026,575,1000,558Z" transform="translate(-206 -302)"/></svg>