<svg width="102" height="150" viewBox="0 0 102 150" fill="none" xmlns="http://www.w3.org/2000/svg">
<path d="M89.7273 34.0809C89.7273 14.7796 71.2063 -0.756149 48.9092 0.0284678C28.7702 0.813309 12.4066 15.4067 11.8672 32.9824C11.6878 41.4557 14.9239 49.1455 20.498 55.1089C28.7702 64.0541 35.0628 74.2535 39.5581 84.9243C41.1762 88.6908 42.6148 92.2997 43.874 95.5946C46.212 101.4 55.5614 101.4 57.8996 95.5946C59.159 92.2986 60.5964 88.6896 62.2155 84.9243C66.7109 74.2541 72.6448 64.2099 80.9157 55.4227C86.3118 49.7735 89.727 42.2414 89.727 34.0811L89.7273 34.0809ZM50.7073 55.2661C37.2212 55.2661 26.4316 45.8501 26.4316 34.0809C26.4316 22.3116 37.2212 12.8956 50.7073 12.8956C64.1935 12.8956 74.9831 22.3116 74.9831 34.0809C74.9831 45.6935 64.1935 55.2661 50.7073 55.2661V55.2661Z" fill="black"/>
<path d="M57.8999 26.0777L47.6498 35.4937L43.3348 31.4131C41.7168 29.8434 39.0189 29.8434 37.2214 31.2566C35.4228 32.6686 35.4228 35.023 37.0421 36.5917L44.5943 43.4966C45.4936 44.2814 46.5723 44.7521 47.651 44.7521C48.9103 44.7521 49.989 44.2814 50.7077 43.4966L64.0144 31.2566C65.6324 29.6869 65.6324 27.3335 63.835 25.9214C62.2145 24.5083 59.5178 24.5083 57.8998 26.078L57.8999 26.0777Z" fill="black"/>
<path d="M9.16995 116.78C9.16995 107.051 13.4858 98.1054 21.2176 91.2007C22.1169 90.4159 22.4769 89.4745 22.4769 88.3767C22.4769 87.2777 21.9376 86.3363 21.2176 85.5526C20.4989 84.7678 19.2396 84.4536 17.9815 84.4536C16.7222 84.4536 15.6436 84.9243 14.7455 85.5526C5.21529 93.8696 0 104.854 0 116.78C0 128.55 5.21401 139.692 14.7455 148.008C16.5442 149.578 19.4204 149.578 21.2189 148.008C22.1182 147.223 22.4782 146.282 22.4782 145.184C22.4782 144.085 21.9388 143.144 21.2189 142.36C13.4862 135.609 9.17027 126.508 9.17027 116.779L9.16995 116.78Z" fill="black"/>
<path d="M37.401 101.401C37.401 100.302 36.8617 99.3605 36.1417 98.5768C35.423 97.7919 34.1637 97.4778 32.9057 97.4778C31.6464 97.4778 30.5677 97.9485 29.6697 98.5768C24.0957 103.441 21.0388 110.032 21.0388 116.937C21.0388 123.842 24.0955 130.432 29.6697 135.297C31.4683 136.867 34.3445 136.867 36.143 135.297C37.0423 134.512 37.4023 133.571 37.4023 132.473C37.4023 131.374 36.863 130.432 36.143 129.649C32.1871 126.196 30.2091 121.803 30.2091 116.938C30.2091 112.074 32.3665 107.68 36.143 104.228C36.8617 103.441 37.4011 102.343 37.4011 101.401L37.401 101.401Z" fill="black"/>
<path d="M50.5273 109.09C45.672 109.09 41.7161 112.543 41.7161 116.78C41.7161 121.017 45.672 124.469 50.5273 124.469C55.3827 124.469 59.3386 121.017 59.3386 116.78C59.3386 112.543 55.3827 109.09 50.5273 109.09Z" fill="black"/>
<path d="M86.3108 85.7086C85.4115 84.9238 84.3328 84.6096 83.0748 84.6096C81.8154 84.6096 80.7368 85.0803 79.8387 85.7086C78.9394 86.3358 78.5794 87.4348 78.5794 88.5327C78.5794 89.6317 79.1188 90.573 79.8387 91.3567C87.5689 98.105 91.8851 107.207 91.8851 116.779C91.8851 126.508 87.5692 135.453 79.8374 142.358C78.9381 143.143 78.5781 144.084 78.5781 145.182C78.5781 146.281 79.1175 147.222 79.8374 148.006C81.6361 149.576 84.5123 149.576 86.3108 148.006C95.841 139.689 101.056 128.705 101.056 116.778C101.055 105.01 95.6602 94.0258 86.3108 85.7075V85.7086Z" fill="black"/>
<path d="M71.5659 98.5763C70.6665 97.7915 69.5878 97.4773 68.3298 97.4773C67.0705 97.4773 65.9918 97.948 65.0938 98.5763C64.1945 99.2035 63.8345 100.303 63.8345 101.4C63.8345 102.499 64.3738 103.441 65.0938 104.224C69.0497 107.677 71.0277 112.071 71.0277 116.935C71.0277 121.799 68.8703 126.193 65.0938 129.645C64.1945 130.43 63.8345 131.372 63.8345 132.47C63.8345 133.569 64.3738 134.51 65.0938 135.294C66.8925 136.863 69.7687 136.863 71.5671 135.294C77.1411 130.429 80.198 123.838 80.198 116.934C80.1967 109.875 77.14 103.44 71.5659 98.5757V98.5763Z" fill="black"/>
</svg>
