<svg width="26" height="21" viewBox="0 0 26 21" fill="none" xmlns="http://www.w3.org/2000/svg">
<path d="M25.0071 14.6589H24.3821V10.4363C24.3821 9.94019 24.1829 9.46362 23.8313 9.11206L19.929 5.20972C19.5774 4.85815 19.1008 4.65894 18.6047 4.65894H16.8821V2.78394C16.8821 1.74878 16.0422 0.908936 15.0071 0.908936H2.50708C1.47192 0.908936 0.63208 1.74878 0.63208 2.78394V15.2839C0.63208 16.3191 1.47192 17.1589 2.50708 17.1589H3.13208C3.13208 19.2292 4.81177 20.9089 6.88208 20.9089C8.95239 20.9089 10.6321 19.2292 10.6321 17.1589H15.6321C15.6321 19.2292 17.3118 20.9089 19.3821 20.9089C21.4524 20.9089 23.1321 19.2292 23.1321 17.1589H25.0071C25.3508 17.1589 25.6321 16.8777 25.6321 16.5339V15.2839C25.6321 14.9402 25.3508 14.6589 25.0071 14.6589ZM6.88208 19.0339C5.84692 19.0339 5.00708 18.1941 5.00708 17.1589C5.00708 16.1238 5.84692 15.2839 6.88208 15.2839C7.91724 15.2839 8.75708 16.1238 8.75708 17.1589C8.75708 18.1941 7.91724 19.0339 6.88208 19.0339ZM19.3821 19.0339C18.3469 19.0339 17.5071 18.1941 17.5071 17.1589C17.5071 16.1238 18.3469 15.2839 19.3821 15.2839C20.4172 15.2839 21.2571 16.1238 21.2571 17.1589C21.2571 18.1941 20.4172 19.0339 19.3821 19.0339ZM22.5071 10.9089H16.8821V6.53394H18.6047L22.5071 10.4363V10.9089Z" fill="black"/>
</svg>
