<svg width="419" height="290" viewBox="0 0 419 290" fill="none" xmlns="http://www.w3.org/2000/svg">
<path d="M133.882 284.314H229.334V229.725H133.882V284.314Z" fill="#EEEEEE"/>
<path d="M205.162 284.314C204.82 284.314 204.542 272.092 204.542 257.02C204.542 241.943 204.82 229.725 205.162 229.725C205.503 229.725 205.781 241.943 205.781 257.02C205.781 272.092 205.503 284.314 205.162 284.314Z" fill="#E3E3E2"/>
<path d="M214.458 277.49H221.896V272.941H214.458V277.49Z" fill="#FCFDFD"/>
<path d="M163.633 229.725V241.098H173.55V229.725H163.633Z" fill="#E3E3E2"/>
<path d="M163.633 272.941V284.314H173.55V272.941H163.633Z" fill="#E3E3E2"/>
<path d="M283.879 284.314H404.124V216.078H283.879V284.314Z" fill="#EEEEEE"/>
<path d="M394.207 276.353H384.29V269.529H394.207V276.353Z" fill="#FCFDFD"/>
<path d="M319.828 230.863H333.464V216.078H319.828V230.863Z" fill="#E3E3E2"/>
<path d="M319.828 284.314H333.464V270.667H319.828V284.314Z" fill="#E3E3E2"/>
<path d="M54.1102 217.88C58.9172 215.992 64.5773 215.746 69.9142 216.418C72.7809 216.778 75.77 217.431 77.7207 219.072C79.6715 220.712 80.0413 223.599 77.8013 225.008C76.4677 225.847 74.608 225.975 72.8788 225.959C68.701 225.922 64.0658 225.362 60.7284 227.276C58.8239 228.368 57.5567 230.184 55.2799 230.721C53.0528 231.248 50.539 230.246 49.358 228.715C48.1774 227.184 48.1375 225.27 48.6882 223.544C48.6882 223.544 49.2679 219.783 54.1102 217.88Z" fill="#EEEEEE"/>
<path d="M43.6724 201.53C46.5993 204.728 52.2882 203.669 54.9263 201.717C57.5638 199.765 58.6785 196.936 59.6935 194.238C62.0122 188.073 64.3505 181.606 62.626 175.328C62.1103 173.451 61.1935 171.579 59.4691 170.187C57.7452 168.794 55.0945 167.966 52.6706 168.456C49.8025 169.036 48.0196 171.185 46.7313 173.23C42.9436 179.239 40.9387 185.902 40.9088 192.574C40.8943 195.689 41.3745 198.958 43.6724 201.53Z" fill="#EEEEEE"/>
<path d="M35.2039 206.536C38.5228 203.72 39.1528 199.613 37.676 196.085C36.1991 192.557 32.8629 189.557 29.0175 187.107C24.509 184.234 19.2099 181.999 13.5126 180.567C11.2708 180.003 8.90559 179.559 6.5404 179.72C4.17446 179.882 1.792 180.746 0.688382 182.251C-0.943153 184.476 0.621151 187.174 2.31295 189.376C5.29424 193.254 8.7028 196.964 12.4964 200.461C15.5489 203.275 19.0457 206.049 23.6975 207.321C28.3489 208.593 33.1814 208.443 35.6469 206.137" fill="#EEEEEE"/>
<path d="M43.442 249.059C43.498 249.061 43.5887 248.561 43.7116 247.654C43.8493 246.632 44.0213 245.347 44.2259 243.82C44.4722 242.206 44.7969 240.287 45.4141 238.196C46.0296 236.11 46.9931 233.851 48.2303 231.559C49.5114 229.279 51.0738 227.209 52.8997 225.552C54.7125 223.888 56.8208 222.685 58.803 221.99C60.7787 221.281 62.55 220.994 63.7744 220.866C65.0092 220.774 65.7009 220.704 65.7013 220.664C65.702 220.624 65.0092 220.617 63.7403 220.642C62.4837 220.703 60.6385 220.934 58.5567 221.621C56.4678 222.294 54.2312 223.517 52.3294 225.215C50.4121 226.906 48.7931 229.022 47.4891 231.342C46.2307 233.674 45.2811 235.957 44.6933 238.088C44.1069 240.215 43.8385 242.156 43.6632 243.783C43.4954 245.411 43.4324 246.729 43.4019 247.641C43.3736 248.552 43.3879 249.057 43.442 249.059Z" fill="#E3E3E2"/>
<path d="M43.7906 246.784C43.8171 246.783 43.8333 246.553 43.8405 246.117C43.8388 245.616 43.8367 244.985 43.834 244.21C43.8281 242.556 43.8288 240.16 43.9439 237.204C44.1335 231.291 44.7931 224.926 46.0667 215.952C47.273 207.514 48.8918 197.694 50.6007 191.31C50.9671 189.858 51.3362 188.551 51.6833 187.408C52.0148 186.261 52.2971 185.272 52.5704 184.472C52.8048 183.719 52.9957 183.105 53.1477 182.619C53.2714 182.193 53.3239 181.966 53.2987 181.961C53.2732 181.955 53.1705 182.171 52.9982 182.586C52.81 183.066 52.5728 183.67 52.2813 184.413C51.9635 185.206 51.6378 186.187 51.2656 187.33C50.8778 188.47 50.4708 189.773 50.0696 191.223C48.379 197.008 46.5892 205.093 45.3033 214.088C44.0267 223.08 43.4514 231.267 43.4007 237.196C43.3549 240.16 43.4369 242.56 43.5349 244.216C43.5965 244.99 43.6461 245.621 43.6855 246.121C43.7285 246.557 43.764 246.785 43.7906 246.784Z" fill="#E3E3E2"/>
<path d="M43.3517 230.863C43.407 230.861 43.3972 230.151 43.3331 228.864C43.2337 227.58 42.9966 225.723 42.5105 223.449C41.9954 221.181 41.2754 218.488 40.1447 215.561C39.6546 214.222 38.5031 211.017 35.7129 206.226C32.0364 199.735 27.0422 194.428 22.6977 191.142C21.6781 190.269 20.5435 189.639 19.6359 189.023C19.166 188.727 18.7506 188.433 18.328 188.199C17.9029 187.981 17.5068 187.778 17.1399 187.589C15.71 186.861 14.909 186.477 14.8796 186.512C14.7512 186.643 18.0826 188.101 22.2887 191.432C26.4783 194.756 31.3329 200.027 34.979 206.463C37.0123 209.954 38.4299 213.068 39.4362 215.711C40.5985 218.609 41.3701 221.276 41.9534 223.522C42.5077 225.772 42.8287 227.61 43.0224 228.883C43.182 230.157 43.2965 230.864 43.3517 230.863Z" fill="#E3E3E2"/>
<path d="M21.074 255.882L23.2244 277.49H61.0715L63.2219 255.882H21.074Z" fill="#EEEEEE"/>
<path d="M17.355 247.922V255.882H68.1804V247.922H17.355Z" fill="#EEEEEE"/>
<path d="M17.355 277.49V279.765H66.9408V277.49H17.355Z" fill="#E3E3E2"/>
<path d="M22.1797 284.314L19.8342 279.765H65.7011L62.9645 284.314H22.1797Z" fill="#E3E3E2"/>
<path d="M61.9814 263.273C61.9902 263.277 61.9299 263.341 61.8048 263.459C61.6544 263.595 61.4677 263.765 61.2378 263.973C60.6991 264.445 59.9592 265.095 59.0278 265.911L58.9295 265.997L58.8342 265.907C57.4453 264.591 55.5891 262.833 53.4044 260.763H53.7169C52.1015 262.33 50.3022 264.074 48.3709 265.948L48.2034 266.11L48.0156 265.957C46.0423 264.349 43.8997 262.604 41.6751 260.791L42.0409 260.787C41.9307 260.883 41.8118 260.985 41.6918 261.088C39.7257 262.776 37.8228 264.41 36.0228 265.955L35.8338 266.118L35.6594 265.949C33.7347 264.084 31.9365 262.341 30.3109 260.766L30.6216 260.776C27.9859 262.833 25.7505 264.577 24.0349 265.916L23.9179 266.007L23.8287 265.904C22.9603 264.906 22.2679 264.109 21.7658 263.531C21.5505 263.273 21.3761 263.066 21.2369 262.9C21.1197 262.755 21.065 262.678 21.0752 262.674C21.0849 262.669 21.1604 262.738 21.2963 262.875C21.45 263.034 21.6429 263.235 21.8818 263.482C22.4082 264.049 23.1351 264.832 24.0465 265.813L23.841 265.801C25.529 264.445 27.7285 262.68 30.3222 260.599L30.4856 260.467L30.6336 260.608C32.2741 262.177 34.0886 263.911 36.03 265.768L35.667 265.762C37.4624 264.214 39.3606 262.577 41.3227 260.887C41.4424 260.784 41.5613 260.681 41.6715 260.587L41.852 260.431L42.0373 260.583C44.2557 262.399 46.3921 264.149 48.3596 265.76L48.0047 265.769C49.9556 263.906 51.773 262.169 53.4041 260.611L53.5625 260.46L53.7169 260.611C55.8556 262.703 57.6722 264.48 59.0321 265.811L58.8389 265.806C59.8076 265.011 60.5777 264.379 61.1382 263.919C61.3879 263.721 61.5906 263.56 61.7541 263.43C61.8959 263.322 61.9731 263.268 61.9814 263.273Z" fill="#F8F8F9"/>
<path d="M328.506 39.7721L321.262 39.804L321.068 10.2665L328.312 10.2353L328.506 39.7721Z" fill="#E3E3E2"/>
<path d="M273.962 26.077L254.24 26.1569L254.127 10.3151L273.85 10.2353L273.962 26.077Z" fill="#EEEEEE"/>
<path d="M293.796 26.0763L274.074 26.1569L273.962 10.3151L293.684 10.2353L293.796 26.0763Z" fill="#F8F8F9"/>
<path d="M254.302 15.8385C267.389 16.0217 280.509 15.8935 293.595 15.5346C293.864 15.527 293.863 14.8338 293.592 14.8308C280.505 14.7101 267.385 14.817 254.3 15.2354C254.069 15.243 254.07 15.8354 254.302 15.8385Z" fill="#E3E3E2"/>
<path d="M277.68 39.6522L241.822 39.804L241.731 26.3087L277.589 26.1569L277.68 39.6522Z" fill="#EEEEEE"/>
<path d="M313.63 38.5268L277.771 38.6666L277.68 26.2959L313.538 26.1568L313.63 38.5268Z" fill="#F8F8F9"/>
<path d="M369.414 43.2157H226.855V39.8039H369.414V43.2157Z" fill="#E3E3E2"/>
<path d="M256.607 56.8628H251.648V40.9412H256.607V56.8628Z" fill="#E3E3E2"/>
<path d="M342.142 56.8628H337.184V40.9412H342.142V56.8628Z" fill="#E3E3E2"/>
<path d="M337.183 39.7728L328.813 39.804L328.506 0.0312538L336.876 3.43323e-05L337.183 39.7728Z" fill="#EEEEEE"/>
<path d="M348.34 39.7544L337.393 39.804L337.184 6.87317L348.131 6.82356L348.34 39.7544Z" fill="#F8F8F9"/>
<path d="M348.34 11.9399C348.34 12.2551 345.843 12.5098 342.762 12.5098C339.68 12.5098 337.184 12.2551 337.184 11.9399C337.184 11.6272 339.68 11.3725 342.762 11.3725C345.843 11.3725 348.34 11.6272 348.34 11.9399Z" fill="#E3E3E2"/>
<path d="M361.976 39.804H348.34V15.9216H361.976V39.804Z" fill="#EEEEEE"/>
<path d="M334.704 6.82333C334.704 7.45181 333.595 7.96082 332.225 7.96082C330.855 7.96082 329.746 7.45181 329.746 6.82333C329.746 6.19532 330.855 5.68631 332.225 5.68631C333.595 5.68631 334.704 6.19532 334.704 6.82333Z" fill="#E3E3E2"/>
<path d="M333.464 34.1177H332.225V11.3726H333.464V34.1177Z" fill="#E3E3E2"/>
<path d="M117.022 35.2549C121.33 39.0871 123.719 44.0531 123.645 49.019C123.603 51.8562 122.89 54.9861 125.142 57.2944C126.851 59.0464 129.967 59.9231 131.355 61.8217C133.024 64.1045 131.601 66.9875 132.629 69.466C134.085 72.9801 139.697 74.4488 143.025 77.1931C145.911 79.5728 146.979 83.0552 145.816 86.1239C144.655 89.1918 141.317 91.7599 137.213 92.8007C135.009 93.3598 132.49 93.4803 130.403 92.7173C128.152 91.8951 126.762 90.2071 125.634 88.5587C123.418 85.3192 103.991 67.7881 102.891 64.2545" fill="#1D2A30"/>
<path d="M102.891 29.7134C94.9817 28.7471 87.3799 32.7342 84.0478 38.2647C80.7153 43.7965 80.624 50.0865 80.3781 56.1671C80.1323 62.2462 79.5702 68.5931 75.4823 73.8246C72.8883 77.1444 68.871 80.057 68.2407 83.8874C67.677 87.3175 70.0151 90.7718 69.2389 94.1776C68.563 97.143 65.5868 99.7227 65.7046 102.731C65.8465 106.35 70.7489 109.077 75.5154 109.173C80.2817 109.27 84.7351 107.374 88.4718 105.126C94.535 101.477 99.45 96.7351 102.695 91.403" fill="#1D2A30"/>
<path d="M89.3736 44.3971C88.314 38.1776 94.4351 32.4936 103.028 31.8921C111.127 31.3246 118.325 35.7566 119.539 41.6695C120.603 46.8522 121.517 52.0846 121.484 53.9845C121.385 59.7148 116.823 61.9458 114.974 62.6154C114.552 62.768 113.388 62.9417 112.923 62.9907L112.879 63.035L114.611 69.6128C115.395 73.9228 112.122 77.7662 106.268 78.3936C100.394 79.023 95.8022 75.713 94.9059 71.4003L89.3736 44.3971Z" fill="#F9AD95"/>
<path d="M117.753 43.8782C117.622 44.0023 116.574 43.6275 115.232 43.7604C113.887 43.8808 113.002 44.4376 112.833 44.3419C112.751 44.3003 112.866 44.0886 113.25 43.8385C113.626 43.5897 114.303 43.3176 115.14 43.2382C115.978 43.1601 116.727 43.2968 117.177 43.4681C117.636 43.6395 117.819 43.8228 117.753 43.8782Z" fill="#1D2A30"/>
<path d="M105.36 46.153C105.262 46.2764 104.475 45.9018 103.469 46.0346C102.461 46.1549 101.797 46.7122 101.67 46.6164C101.608 46.5749 101.693 46.3633 101.982 46.1127C102.265 45.864 102.772 45.592 103.4 45.5127C104.028 45.4346 104.59 45.5718 104.928 45.7425C105.271 45.9144 105.409 46.097 105.36 46.153Z" fill="#1D2A30"/>
<path d="M110.368 52.2963C110.349 52.2345 111.259 52.017 112.742 51.7146C113.119 51.6444 113.471 51.5503 113.497 51.352C113.547 51.1398 113.327 50.8544 113.076 50.5474C112.58 49.9071 112.062 49.2359 111.517 48.5331C109.337 45.6594 107.701 43.2802 107.86 43.217C108.018 43.1537 109.914 45.4318 112.094 48.3047C112.621 49.0145 113.125 49.6903 113.607 50.3375C113.815 50.6407 114.136 50.9755 114.024 51.4168C113.963 51.6382 113.712 51.8195 113.476 51.8951C113.241 51.9761 113.026 52.0016 112.839 52.0301C111.329 52.2531 110.386 52.358 110.368 52.2963Z" fill="#1D2A30"/>
<path d="M112.389 63.4014C112.389 63.4014 107.871 63.9696 101.651 62.549C101.651 62.549 104.337 65.7039 112.808 64.5824L112.389 63.4014Z" fill="#F6865E"/>
<path d="M105.368 43.8883C105.303 44.2633 104.183 44.2854 102.914 44.6953C101.638 45.0749 100.651 45.7059 100.441 45.4166C100.345 45.2766 100.485 44.909 100.864 44.4899C101.24 44.0735 101.866 43.6295 102.629 43.3927C103.392 43.1569 104.12 43.1799 104.619 43.3264C105.121 43.4719 105.394 43.7105 105.368 43.8883Z" fill="#1D2A30"/>
<path d="M116.505 41.6629C116.3 41.8885 115.26 41.7682 114.066 41.866C112.868 41.9374 111.898 42.2013 111.617 42.0101C111.492 41.9167 111.603 41.6986 111.998 41.4673C112.387 41.2366 113.077 41.0147 113.899 40.9558C114.72 40.8981 115.474 41.0178 115.936 41.1877C116.406 41.3582 116.593 41.5544 116.505 41.6629Z" fill="#1D2A30"/>
<path d="M104.137 47.9291C104.189 48.5507 104.504 48.9812 104.843 48.8897C105.181 48.8002 105.414 48.2238 105.363 47.6011C105.312 46.9795 104.996 46.549 104.658 46.6395C104.32 46.73 104.087 47.3074 104.137 47.9291Z" fill="#1D2A30"/>
<path d="M115.294 45.6547C115.345 46.2764 115.661 46.7059 115.999 46.6154C116.337 46.5249 116.571 45.9484 116.519 45.3267C116.469 44.705 116.152 44.2744 115.814 44.365C115.476 44.4555 115.243 45.0329 115.294 45.6547Z" fill="#1D2A30"/>
<path d="M113.666 54.2344C111.819 54.0299 112.804 53.3282 110.823 54.0525C110.073 54.5655 110.15 55.5335 111.229 55.9509C112.308 56.3683 113.695 57.1349 114.885 56.7646C115.694 56.5131 116.407 55.2619 116.509 54.8662C116.606 54.4997 116.288 53.801 115.697 53.5101C115.106 53.22 114.546 54.0847 113.666 54.2344Z" fill="#F6865E"/>
<path d="M118.884 36.6055C118.293 34.4645 116.318 32.6382 113.914 31.3904C111.871 30.33 109.455 29.629 106.969 29.5722C104.482 29.5153 101.933 30.1392 100.136 31.4242C98.8076 32.3736 98.1276 33.7182 98.065 35.0898L98.2101 34.1431C97.8365 34.9206 97.8374 35.7638 98.2255 36.5277L98.2273 36.5325L98.2264 36.5291C98.4367 36.9432 98.6888 37.358 98.9118 37.7735C99.5465 38.9563 100.776 39.9544 102.302 40.5262C103.005 40.7894 103.783 40.966 104.569 40.9383C105.354 40.9106 106.146 40.6582 106.623 40.1912C107.304 39.5247 107.225 38.6004 107.115 37.766C107.789 38.5523 108.505 39.3677 109.589 39.834C110.673 40.2988 112.24 40.2826 113.002 39.543C113.741 38.8264 113.449 37.7972 113.022 36.952C113.714 37.7403 114.707 38.3805 115.853 38.7777C116.487 38.9976 117.234 39.1424 117.877 38.9353C118.421 38.7594 118.787 38.3527 118.927 37.9223C119.065 37.492 119.004 37.0386 118.884 36.6055Z" fill="#1D2A30"/>
<path d="M111.492 39.804C111.409 39.8063 111.423 38.8909 111.068 37.4712C110.713 36.0754 109.867 34.103 107.889 32.6449C106.913 31.925 105.792 31.4269 104.702 31.2067C103.611 30.9811 102.572 31.0081 101.737 31.1443C100.044 31.4323 99.2233 32.1044 99.1727 32.0336C99.1561 32.0182 99.3329 31.838 99.7381 31.5932C100.141 31.3484 100.79 31.0543 101.663 30.868C102.534 30.6878 103.633 30.627 104.804 30.8472C105.975 31.0628 107.177 31.584 108.206 32.3446C110.298 33.8874 111.125 35.9792 111.402 37.4181C111.542 38.1518 111.574 38.7515 111.567 39.1642C111.561 39.5768 111.522 39.804 111.492 39.804Z" fill="#365462"/>
<path d="M197.4 118.163L161.94 107.78C161.94 107.78 143.774 90.1845 144.153 89.8432L131.402 100.157L149.935 118.689L192.879 126.114L213.219 126.235C211.646 120.457 197.4 118.163 197.4 118.163Z" fill="#F9AD95"/>
<path d="M119.821 68.4769L115.028 67.098L94.322 69.0468V71.7611L93.7289 71.8154C93.7289 71.8154 87.2973 72.6828 81.0444 75.4684C73.4729 78.8416 69.5379 85.3474 70.9402 91.818C71.7823 95.7033 73.4147 100.426 76.5591 103.155C82.5726 108.375 88.0649 101.924 88.0649 101.924C88.0649 101.924 91.8394 108.313 91.6228 111.334C91.4407 113.864 89.9325 119.137 89.4477 120.783C89.3657 121.061 89.6114 121.329 89.9879 121.38L133.669 127.373L133.882 119.45L132.492 86.8656L130.565 74.2105C130.565 74.2105 130.626 68.1645 119.821 68.4769Z" fill="#F7B63B"/>
<path d="M130.163 71.6471L146.278 89.2601L133.304 101.216L130.163 71.6471Z" fill="#F7B63B"/>
<path d="M133.671 110.314C133.64 110.313 133.619 109.894 133.609 109.136C133.596 108.318 133.579 107.238 133.558 105.932C133.475 103.229 133.281 99.4916 132.598 95.4025C131.935 91.3113 130.926 87.6558 130.154 85.0202C129.775 83.7485 129.461 82.696 129.224 81.9003C129.004 81.1628 128.898 80.7514 128.928 80.7452C128.958 80.7389 129.124 81.1371 129.397 81.8642C129.67 82.5906 130.042 83.6472 130.469 84.9598C131.323 87.5837 132.386 91.2454 133.053 95.3567C133.739 99.4638 133.882 103.22 133.882 105.929C133.865 107.285 133.84 108.382 133.787 109.139C133.743 109.896 133.703 110.314 133.671 110.314Z" fill="#1D2A30"/>
<path d="M91.7339 82.0475C91.7314 82.1219 90.5144 82.1069 88.5581 82.2114C86.6022 82.315 83.9056 82.5834 80.981 83.1883C78.0568 83.7985 75.475 84.6257 73.6395 85.3112C71.8027 85.994 70.6922 86.4926 70.6605 86.4253C70.6463 86.3961 70.9098 86.242 71.3993 85.986C71.8865 85.7265 72.6105 85.3891 73.5209 85.0074C75.3388 84.2395 77.9329 83.353 80.8879 82.7366C83.8425 82.1255 86.5746 81.9058 88.5471 81.8855C89.5337 81.874 90.3319 81.8952 90.8818 81.9395C91.4324 81.9785 91.7349 82.0157 91.7339 82.0475Z" fill="#FCFDFD"/>
<path d="M131.402 89.8751C131.412 89.9463 130.597 90.1718 129.257 90.4058C127.919 90.641 126.055 90.8664 123.988 90.9484C121.92 91.0283 120.047 90.9484 118.697 90.819C117.347 90.6895 116.521 90.5288 116.527 90.4555C116.532 90.3735 117.368 90.395 118.715 90.422C120.062 90.4501 121.92 90.4662 123.971 90.3875C126.022 90.3055 127.875 90.1448 129.216 90.0121C130.558 89.8794 131.391 89.7931 131.402 89.8751Z" fill="#FCFDFD"/>
<path d="M137.598 83.0241C137.665 83.0869 136.49 84.1401 134.75 85.0893C133.015 86.0463 131.435 86.5049 131.403 86.4218C131.362 86.3289 132.85 85.7382 134.552 84.7988C136.259 83.868 137.523 82.9476 137.598 83.0241Z" fill="#FCFDFD"/>
<path d="M132.639 75.0622C132.726 75.1033 130.63 76.0043 127.46 76.6392C124.299 77.2848 121.486 77.3772 121.485 77.3184C121.458 77.2437 124.178 77.0462 127.262 76.4151C130.356 75.7961 132.545 75.0006 132.639 75.0622Z" fill="#FCFDFD"/>
<path d="M132.642 104.633C132.655 104.658 132.339 104.789 131.756 105.006C131.174 105.227 130.312 105.51 129.231 105.828C127.073 106.464 124.001 107.175 120.523 107.606C117.043 108.031 113.846 108.093 111.548 108.004C110.399 107.962 109.471 107.899 108.834 107.828C108.196 107.762 107.845 107.713 107.849 107.686C107.857 107.622 109.271 107.713 111.557 107.728C113.842 107.745 117.004 107.64 120.449 107.219C123.893 106.792 126.946 106.131 129.12 105.566C131.295 105.001 132.61 104.574 132.642 104.633Z" fill="#FCFDFD"/>
<path d="M133.881 113.728C133.889 113.739 133.749 113.797 133.476 113.897C133.148 114.012 132.751 114.151 132.271 114.32C131.224 114.687 129.674 115.163 127.733 115.699C125.795 116.241 123.444 116.801 120.8 117.338C118.15 117.855 115.203 118.338 112.077 118.704C108.946 119.055 105.94 119.255 103.202 119.356C100.462 119.436 97.9912 119.428 95.921 119.345C93.8517 119.269 92.1799 119.162 91.0319 119.047C90.5061 118.994 90.0698 118.95 89.7108 118.914C89.4094 118.88 89.2521 118.856 89.2544 118.843C89.2566 118.831 89.4172 118.831 89.7219 118.841C90.0832 118.859 90.5213 118.88 91.0505 118.905C92.2011 118.977 93.8717 119.044 95.9343 119.087C97.9969 119.136 100.455 119.117 103.179 119.018C105.902 118.901 108.888 118.692 112.001 118.343C115.11 117.979 118.041 117.509 120.684 117.012C123.319 116.496 125.67 115.964 127.615 115.455C129.563 114.952 131.128 114.514 132.195 114.189C132.689 114.046 133.098 113.927 133.435 113.83C133.721 113.751 133.875 113.716 133.881 113.728Z" fill="#FCFDFD"/>
<path d="M51.8362 258.157L46.7499 274.955L37.4836 287.394C36.8156 288.29 37.327 289.412 38.5963 289.838C39.3072 290.076 40.1251 290.051 40.8029 289.765C45.1137 287.945 60.9276 281.194 61.2059 279.949C61.5279 278.508 68.1806 262.49 68.1806 262.49L51.8362 258.157Z" fill="#364D8A"/>
<path d="M40.6349 290C40.3045 290 39.9734 289.948 39.6687 289.842C39.9623 289.937 40.2764 289.984 40.589 289.984C40.9657 289.984 41.341 289.916 41.6784 289.779C43.5958 289 48.0121 287.191 52.0587 285.417C52.0624 285.417 52.07 285.417 52.0737 285.417C49.4784 286.56 46.0987 288.003 41.7411 289.79C41.4009 289.929 41.0182 290 40.6349 290ZM52.4929 285.226C53.1919 284.918 53.8776 284.612 54.5331 284.314H54.5444C53.9298 284.592 53.2525 284.896 52.5063 285.226C52.5026 285.226 52.4966 285.226 52.4929 285.226Z" fill="white"/>
<path d="M54.5573 284.314H54.5444C57.4703 282.894 59.8815 281.62 60.7427 280.902C60.4894 281.201 60.1622 281.464 59.7729 281.674C58.8823 282.157 57.2549 283.009 54.5573 284.314Z" fill="#F6F7F7"/>
<path d="M60.8312 279.765H60.7427C61.0988 279.43 61.5105 279.05 61.9772 278.627H61.9823L60.8312 279.765Z" fill="#F6F7F7"/>
<path d="M40.6495 290C40.3163 290 39.9816 289.946 39.6687 289.835L61.9823 278.627C61.9156 278.816 61.8575 278.985 61.8071 279.134C61.7511 279.302 61.7055 279.444 61.6719 279.559C61.5799 279.77 61.4554 279.971 61.3008 280.157C60.4963 280.843 58.2437 282.058 55.5103 283.414C54.8117 283.76 54.0809 284.116 53.336 284.474C53.1825 284.547 53.0281 284.621 52.8732 284.695C48.5606 286.756 43.8539 288.857 41.8106 289.761C41.4509 289.92 41.051 290 40.6495 290Z" fill="#F9A8BF"/>
<path d="M58.887 274.078C58.1243 274.078 57.3557 273.925 57.1098 273.701C56.8241 273.44 57.2757 273.128 58.0715 273.003L58.0695 273.004C58.2823 272.96 58.5335 272.941 58.7951 272.941C59.5193 272.941 60.3249 273.089 60.623 273.285C61.0288 273.551 60.3441 273.949 59.4383 274.049C59.2596 274.069 59.0736 274.078 58.887 274.078Z" fill="#F9A8BF"/>
<path d="M45.8322 284.313C45.7454 284.344 45.6123 283.07 44.8916 282.129C44.1888 281.154 43.3844 281.167 43.3877 281.025C43.3842 280.965 43.5838 280.863 43.9156 280.917C44.245 280.966 44.6975 281.22 45.091 281.748C45.4832 282.277 45.7185 282.949 45.8062 283.46C45.8971 283.975 45.8687 284.309 45.8322 284.313Z" fill="#1D2A30"/>
<path d="M49.5737 280.899C49.4595 280.966 48.7416 279.793 47.356 278.863C45.9852 277.913 44.5999 277.653 44.6279 277.526C44.6218 277.418 46.1375 277.5 47.6103 278.515C49.0939 279.515 49.6809 280.868 49.5737 280.899Z" fill="#1D2A30"/>
<path d="M52.0584 276.339C51.9589 276.479 50.7693 275.51 49.0602 274.974C47.3569 274.411 45.8824 274.524 45.8674 274.346C45.8296 274.2 47.3801 273.798 49.2118 274.398C51.0473 274.979 52.1613 276.236 52.0584 276.339Z" fill="#1D2A30"/>
<path d="M53.2982 271.799C53.1944 271.866 52.1062 271.235 50.3421 271.031C48.5857 270.804 47.157 271.127 47.1079 271.041C47.082 271.008 47.4033 270.875 48.0086 270.771C48.6087 270.668 49.5001 270.618 50.4481 270.733C51.3953 270.85 52.1781 271.104 52.6575 271.341C53.1409 271.577 53.3447 271.774 53.2982 271.799Z" fill="#1D2A30"/>
<path d="M51.4927 269.526C51.4624 269.522 51.4869 269.273 51.6847 268.851C51.8821 268.431 52.2644 267.831 53.002 267.227C53.3738 266.945 53.7885 266.571 54.5425 266.459C54.9182 266.401 55.404 266.537 55.6122 266.823C55.8205 267.102 55.8131 267.409 55.7271 267.691C55.3246 268.811 53.6397 269.661 51.8564 269.512C50.0734 269.34 48.7439 268.333 48.382 267.24C48.3158 266.961 48.3154 266.635 48.6038 266.369C48.8895 266.1 49.4225 266.068 49.755 266.174C50.4475 266.382 50.7994 266.766 51.1467 267.066C51.8166 267.707 52.16 268.315 52.3379 268.739C52.5158 269.165 52.5356 269.413 52.5046 269.418C52.4045 269.449 52.1845 268.438 50.8446 267.245C50.5008 266.964 50.1115 266.615 49.6055 266.488C49.359 266.424 49.1173 266.459 48.9775 266.591C48.837 266.718 48.8133 266.949 48.8779 267.17C49.192 268.068 50.4109 268.986 51.9209 269.115C53.4221 269.251 54.9017 268.502 55.237 267.603C55.3132 267.386 55.3075 267.153 55.1919 266.995C55.0777 266.839 54.8512 266.761 54.6056 266.788C54.0874 266.842 53.6467 267.157 53.2843 267.42C51.8276 268.537 51.5948 269.564 51.4927 269.526Z" fill="#1D2A30"/>
<path d="M66.9409 266.118C67.6699 263.433 68.1806 261.569 68.1806 261.569L66.9409 266.118Z" fill="#B2B1B0"/>
<path d="M49.5857 261.569L50.9119 259.634L52.065 258.157L49.5857 261.569Z" fill="#A2A1A0"/>
<path d="M66.7491 266.118L49.5857 264.03L50.0166 262.515L51.3315 258.157L68.1804 262.641C68.1804 262.641 67.5907 264.065 66.7487 266.118" fill="#BC283B"/>
<path d="M124.295 264.374L122.912 277.564C122.912 277.564 141.242 282.996 141.319 285.451L105.37 284.457L106.343 263.843L124.295 264.374Z" fill="#364D8A"/>
<path d="M112.791 278.627C112.236 278.627 111.691 278.234 111.587 277.725C111.476 277.184 111.864 276.606 112.422 276.425C112.533 276.375 112.654 276.353 112.777 276.353C113.292 276.353 113.86 276.74 114.011 277.192C114.198 277.754 113.632 278.484 113.01 278.607C112.937 278.621 112.863 278.627 112.791 278.627Z" fill="#F9A8BF"/>
<path d="M141.298 285.451L106.609 284.314L141.298 285.451C141.289 285.12 141.039 284.74 140.603 284.33C140.644 284.33 140.688 284.33 140.73 284.33C141.084 284.604 141.407 284.991 141.298 285.451Z" fill="white"/>
<path d="M141.319 285.451L106.05 284.728L105.37 284.714L105.582 283.176L139.971 284.458C139.971 284.458 140.088 284.488 140.255 284.544C140.385 284.61 140.504 284.675 140.613 284.739C141.056 284.999 141.31 285.24 141.319 285.451Z" fill="#F9A8BF"/>
<path d="M123.963 277.59C123.954 277.684 123.303 277.708 122.648 277.994C121.983 278.266 121.632 278.665 121.515 278.625C121.396 278.603 121.62 278.044 122.422 277.71C123.218 277.37 123.996 277.504 123.963 277.59Z" fill="#1D2A30"/>
<path d="M127.682 278.694C127.716 278.836 126.944 279.061 126.317 279.662C125.67 280.247 125.488 280.913 125.314 280.902C125.148 280.919 125.066 280.056 125.861 279.321C126.649 278.582 127.685 278.553 127.682 278.694Z" fill="#1D2A30"/>
<path d="M130.298 282.039C130.181 282.063 130.028 281.386 130.383 280.665C130.733 279.941 131.345 279.676 131.395 279.79C131.463 279.903 131.061 280.281 130.778 280.878C130.483 281.467 130.425 282.03 130.298 282.039Z" fill="#1D2A30"/>
<path d="M124.953 269.529L106.609 268.909L106.743 266.118L125.204 267.114L124.953 269.529Z" fill="#BC283B"/>
<path d="M123.964 272.796C123.964 272.874 123.321 272.961 122.307 272.713C121.802 272.588 121.211 272.369 120.594 272.02C120.286 271.845 119.971 271.637 119.662 271.395C119.512 271.273 119.335 271.151 119.176 270.921C119.003 270.719 118.919 270.22 119.135 269.925C119.315 269.638 119.619 269.526 119.858 269.529C120.102 269.532 120.297 269.597 120.476 269.657C120.841 269.776 121.182 269.934 121.493 270.112C122.114 270.472 122.614 270.915 122.982 271.338C123.723 272.193 123.961 272.903 123.905 272.937C123.829 272.995 123.475 272.394 122.717 271.682C122.338 271.326 121.853 270.955 121.271 270.653C120.98 270.504 120.664 270.372 120.33 270.271C119.983 270.149 119.686 270.134 119.589 270.309C119.554 270.376 119.549 270.403 119.619 270.524C119.691 270.638 119.829 270.751 119.975 270.87C120.261 271.104 120.549 271.309 120.832 271.487C121.398 271.845 121.942 272.094 122.411 272.269C123.348 272.616 123.97 272.696 123.964 272.796Z" fill="#1D2A30"/>
<path d="M124.31 272.941C124.257 272.96 123.982 272.444 123.965 271.528C123.958 271.074 124.03 270.526 124.238 269.951C124.343 269.664 124.483 269.372 124.663 269.086C124.853 268.808 125.086 268.433 125.666 268.392C125.968 268.392 126.209 268.625 126.286 268.819C126.38 269.019 126.392 269.186 126.421 269.355C126.464 269.695 126.444 270.026 126.383 270.329C126.262 270.941 125.975 271.443 125.67 271.801C125.044 272.528 124.416 272.673 124.406 272.625C124.359 272.552 124.889 272.3 125.374 271.596C125.613 271.25 125.831 270.79 125.912 270.255C125.953 269.988 125.96 269.704 125.918 269.417C125.883 269.108 125.772 268.856 125.649 268.883C125.497 268.875 125.231 269.097 125.096 269.337C124.929 269.591 124.793 269.851 124.686 270.108C124.474 270.623 124.37 271.12 124.331 271.542C124.255 272.387 124.392 272.922 124.31 272.941Z" fill="#1D2A30"/>
<path d="M88.2607 121.252C88.2607 121.252 82.6864 121.432 79.0129 135.407C75.3401 149.384 47.1064 262.62 47.1064 262.62L67.5541 262.756L106.129 155.099L103.566 266.085L124.34 267.255C124.34 267.255 139.929 144.472 140.076 137.328C140.259 128.421 133.312 119.412 133.312 119.412L88.2607 121.252Z" fill="#364D8A"/>
<path d="M116.521 120.549C116.651 120.569 114.538 128.477 111.803 138.211C109.067 147.949 106.745 155.824 106.615 155.804C106.485 155.784 108.598 147.877 111.334 138.14C114.069 128.406 116.392 120.53 116.521 120.549Z" fill="#365462"/>
<path d="M119.535 121.73C119.496 121.697 120.154 121.575 120.861 121.97C121.188 122.161 121.508 122.477 121.484 122.882C121.472 123.292 120.975 123.691 120.315 123.86C119.661 124.037 118.856 123.98 118.377 123.699C117.896 123.427 117.757 123.063 117.767 122.785C117.808 122.192 118.407 121.983 118.416 122.024C118.489 122.057 118.081 122.3 118.147 122.778C118.181 123.006 118.341 123.284 118.697 123.464C119.042 123.647 119.603 123.682 120.106 123.551C120.608 123.418 120.959 123.142 120.989 122.861C121.034 122.576 120.826 122.31 120.589 122.135C120.086 121.772 119.523 121.785 119.535 121.73Z" fill="#365462"/>
<path d="M119.036 127.442C119.021 127.398 119.719 127.457 120.099 128.03C120.267 128.301 120.344 128.693 120.031 129.07C119.725 129.455 118.974 129.683 118.25 129.642C117.525 129.611 116.836 129.31 116.628 128.899C116.409 128.495 116.579 128.116 116.811 127.865C117.324 127.338 118.028 127.348 118.002 127.391C118.038 127.446 117.486 127.533 117.167 127.987C117.019 128.204 116.941 128.506 117.118 128.777C117.279 129.047 117.75 129.248 118.294 129.276C118.839 129.302 119.351 129.151 119.576 128.9C119.815 128.65 119.812 128.344 119.717 128.115C119.512 127.635 118.988 127.494 119.036 127.442Z" fill="#365462"/>
<path d="M100.405 121.687C100.435 121.693 100.355 121.966 100.137 122.444C99.9216 122.922 99.542 123.6 98.9541 124.395C97.7968 125.982 95.6383 128.027 92.4413 129.556C89.2441 131.086 85.8022 131.719 83.3374 131.866C82.0985 131.944 81.0912 131.93 80.4008 131.885C79.7104 131.842 79.334 131.788 79.3372 131.765C79.3419 131.693 80.8704 131.818 83.2966 131.596C85.7082 131.383 89.0399 130.724 92.1507 129.236C95.2607 127.748 97.4089 125.786 98.6282 124.262C99.8678 122.731 100.312 121.662 100.405 121.687Z" fill="#365462"/>
<path d="M138.838 131.919C138.82 131.938 138.618 131.844 138.266 131.656C137.908 131.474 137.43 131.167 136.882 130.755C135.784 129.934 134.489 128.6 133.632 126.918C132.784 125.234 132.57 123.582 132.662 122.412C132.704 121.827 132.788 121.354 132.892 121.037C132.988 120.717 133.055 120.545 133.086 120.549C133.167 120.56 132.983 121.269 132.979 122.418C132.971 123.565 133.229 125.159 134.051 126.795C134.884 128.429 136.096 129.742 137.113 130.588C138.128 131.438 138.888 131.869 138.838 131.919Z" fill="#365462"/>
<path d="M81.1628 94.5271L90.1115 94.8951C90.677 97.0525 92.6415 100.351 92.6415 100.351C99.8442 91.0525 105.429 78.5945 106.816 73.5878C106.614 73.0877 106.374 72.5341 106.076 71.9162C105.732 71.202 106.027 69.8509 106.189 69.1002C106.431 67.9855 106.851 66.4854 106.976 65.7915C107.36 63.6754 107.818 63.3434 108.81 63.5826C110.161 63.9078 108.257 69.5243 109.363 69.6463C109.958 69.7113 110.684 67.7877 110.896 66.2089C111.106 64.6301 112.067 59.7739 112.768 59.45C113.797 58.9757 114.693 59.7265 114.434 61.2985C114.17 62.8894 113.839 67.6346 114.961 67.6989C116.066 67.7619 116.994 59.7109 116.994 59.7109C116.994 59.7109 116.82 57.9587 118.118 58.0007C120.462 58.0766 118.63 66.5647 118.43 67.3689C118.289 67.928 119.507 68.0303 119.614 67.4238C119.724 66.7984 120.289 59.3721 122.675 59.4317C124.506 59.4778 121.257 66.4264 122.285 68.0377C123.312 69.6476 124.027 62.5662 125.775 62.6638C126.426 62.7004 126.907 62.7953 125.71 66.8025C125.068 68.9565 123.18 72.9163 121.53 76.1951C118.76 87.3075 106.603 122.855 87.5419 116.348C76.8763 112.707 71.8994 94.6796 71.8994 94.6796L81.1628 94.5271Z" fill="#F9AD95"/>
<path d="M121.275 75.0588C121.264 75.0561 121.296 74.9744 121.366 74.8183C121.449 74.6408 121.556 74.413 121.689 74.1269C121.99 73.4932 122.413 72.6055 122.952 71.4747C123.49 70.3211 124.15 68.9089 124.807 67.2494C125.144 66.4207 125.416 65.523 125.67 64.5603C125.793 64.08 125.919 63.5849 125.996 63.0765C126.028 62.8239 126.065 62.564 126.044 62.3147C126.019 62.0535 125.964 61.8398 125.68 61.8364C125.386 61.7788 125.189 61.955 124.988 62.1767C124.802 62.3998 124.658 62.6571 124.529 62.9197C124.271 63.4469 124.069 64.009 123.869 64.5838C123.668 65.1586 123.482 65.7495 123.24 66.3517C123.096 66.6559 123.031 66.9493 122.688 67.2762C122.623 67.3158 122.565 67.368 122.435 67.3868C122.293 67.4129 122.187 67.3734 122.088 67.3298C121.955 67.2441 121.892 67.1577 121.834 67.0773C121.729 66.9078 121.666 66.7343 121.639 66.5661C121.474 65.2216 121.895 63.9219 122.184 62.5727C122.343 61.9001 122.511 61.2194 122.632 60.5301C122.692 60.1864 122.741 59.8387 122.747 59.4964C122.764 59.1788 122.688 58.7501 122.496 58.6891C122.26 58.6248 121.833 58.819 121.607 59.1031C121.353 59.3825 121.164 59.7141 121.003 60.0524C120.683 60.7344 120.474 61.4606 120.294 62.1962C120.118 62.9338 119.98 63.6854 119.867 64.4471C119.816 64.8283 119.764 65.2122 119.713 65.5974L119.643 66.1789C119.623 66.3363 119.623 66.6653 119.276 66.8542C118.955 67.029 118.527 67.0471 118.185 66.8857C118.013 66.8053 117.88 66.6559 117.854 66.5045C117.832 66.4274 117.851 66.3571 117.858 66.2901L117.893 66.1461C117.975 65.7575 118.058 65.3676 118.14 64.975C118.292 64.1885 118.424 63.3933 118.529 62.5914C118.632 61.7895 118.709 60.9796 118.727 60.167C118.728 59.363 118.72 58.5203 118.401 57.784C118.297 57.5603 118.126 57.3573 117.936 57.299C117.74 57.2474 117.458 57.2996 117.313 57.443C116.993 57.7693 116.941 58.3072 116.965 58.7447L116.967 58.7661L116.965 58.7782C116.768 60.3525 116.532 61.8994 116.22 63.4201C116.059 64.1805 115.888 64.9335 115.625 65.6771C115.559 65.8634 115.481 66.0496 115.391 66.2352C115.268 66.4207 115.234 66.6097 114.868 66.814C114.551 66.9239 114.316 66.7986 114.19 66.7055C114.056 66.603 114.001 66.5018 113.939 66.4026C113.833 66.2057 113.779 66.0154 113.732 65.8252C113.439 64.3152 113.559 62.8621 113.677 61.4371C113.715 60.721 113.956 60.0122 113.826 59.3838C113.764 59.0723 113.596 58.7594 113.311 58.6208C113.171 58.5538 113.011 58.5383 112.839 58.5678C112.752 58.5873 112.666 58.6094 112.582 58.6469C112.498 58.6964 112.515 58.6777 112.451 58.7621C112.093 59.3094 111.918 60.0015 111.725 60.6279C111.543 61.2683 111.388 61.9061 111.247 62.5358C111.106 63.1649 110.982 63.7866 110.871 64.3989C110.757 65.0065 110.7 65.6222 110.534 66.2204C110.379 66.8167 110.189 67.3968 109.89 67.9529C109.814 68.0922 109.727 68.2295 109.623 68.3649C109.494 68.4908 109.421 68.655 109.068 68.7333C108.866 68.7735 108.69 68.6737 108.6 68.59C108.522 68.5036 108.485 68.4211 108.454 68.3421C108.407 68.188 108.388 68.04 108.38 67.8959C108.36 66.7544 108.594 65.7073 108.671 64.6963C108.715 64.1952 108.747 63.6995 108.666 63.2413C108.625 63.0262 108.53 62.7743 108.361 62.7241C108.114 62.6524 107.795 62.6149 107.609 62.712C107.201 62.9257 107.059 63.4154 106.927 63.808C106.796 64.2227 106.736 64.6334 106.632 65.0293C106.248 66.6143 105.842 67.975 105.644 69.0871C105.555 69.6431 105.518 70.1449 105.615 70.5629C105.743 70.9682 105.93 71.3273 106.038 71.6087C106.147 71.876 106.234 72.089 106.303 72.2565C106.359 72.4025 106.383 72.4782 106.375 72.4802C106.366 72.4823 106.323 72.4106 106.248 72.2686C106.167 72.1044 106.063 71.8961 105.933 71.6341C105.805 71.3487 105.612 71.0225 105.454 70.585C105.334 70.1462 105.356 69.6351 105.431 69.0703C105.598 67.9381 105.971 66.5869 106.325 64.9991C106.423 64.6046 106.475 64.1845 106.602 63.7584C106.668 63.5447 106.733 63.3277 106.844 63.1093C106.962 62.8983 107.087 62.6544 107.423 62.4943C107.78 62.3328 108.177 62.3918 108.511 62.4842C108.944 62.6638 108.96 62.9652 109.035 63.2017C109.129 63.7028 109.1 64.2033 109.063 64.7144C108.996 65.7314 108.777 66.7999 108.808 67.8819C108.817 68.0152 108.838 68.1458 108.875 68.2651C108.915 68.3957 109.006 68.4453 108.987 68.4205C109.02 68.4252 109.161 68.3093 109.24 68.2034C109.327 68.0889 109.405 67.9643 109.475 67.8343C109.749 67.3117 109.933 66.7403 110.08 66.1601C110.235 65.5807 110.285 64.977 110.398 64.3553C110.504 63.7383 110.625 63.1133 110.761 62.4795C110.899 61.8458 111.05 61.2033 111.23 60.5542C111.435 59.901 111.565 59.2558 112.002 58.5765C112.029 58.5082 112.219 58.3555 112.326 58.3186C112.442 58.2677 112.574 58.2302 112.713 58.2007C112.995 58.1464 113.34 58.1766 113.595 58.3019C114.103 58.5611 114.263 58.9664 114.348 59.3249C114.425 59.6926 114.399 60.0651 114.342 60.4195C114.287 60.7632 114.248 61.1136 114.214 61.4646C114.101 62.8668 113.995 64.3346 114.278 65.7562C114.321 65.929 114.373 66.1039 114.455 66.2519C114.497 66.3216 114.546 66.3953 114.593 66.4261L114.638 66.4522L114.642 66.4529L114.643 66.4549C114.627 66.6123 114.641 66.4884 114.637 66.5192L114.599 66.4616C114.647 66.4335 114.795 66.2492 114.866 66.0938C114.947 65.9263 115.021 65.7528 115.083 65.5746C115.334 64.8598 115.503 64.1115 115.661 63.3592C115.967 61.8518 116.202 60.3063 116.396 58.7427V58.7755C116.385 58.2603 116.373 57.7204 116.863 57.1864C117.149 56.9231 117.665 56.7805 118.15 56.9131C118.63 57.0759 118.807 57.3874 118.941 57.646C119.308 58.5035 119.296 59.3436 119.298 60.173C119.28 61.0023 119.202 61.8203 119.096 62.6303C118.989 63.4402 118.856 64.2408 118.701 65.0333C118.617 65.4286 118.533 65.8232 118.449 66.2157C118.381 66.4649 118.397 66.473 118.5 66.5467C118.61 66.6077 118.824 66.5983 118.929 66.5346C119.047 66.477 119.06 66.3604 119.085 66.1427L119.156 65.5612C119.21 65.1733 119.262 64.7875 119.316 64.4036C119.432 63.6352 119.573 62.8755 119.754 62.1272C119.941 61.3795 120.156 60.6406 120.494 59.9251C120.667 59.5687 120.865 59.215 121.166 58.886C121.319 58.7233 121.497 58.5611 121.758 58.4419C122.025 58.3307 122.317 58.2295 122.717 58.3407C123.096 58.4915 123.161 58.746 123.22 58.9316C123.26 59.1265 123.277 59.3168 123.269 59.5004C123.261 59.8695 123.206 60.2259 123.144 60.5783C123.016 61.281 122.844 61.963 122.68 62.6356C122.38 63.9701 121.965 65.2986 122.108 66.5185C122.132 66.6679 122.186 66.8053 122.256 66.9265C122.299 66.9875 122.346 67.0384 122.375 67.0605L122.353 67.09L122.343 67.0866L122.349 67.0424C122.543 66.8689 122.68 66.5333 122.801 66.2566C123.04 65.6718 123.233 65.0802 123.44 64.5041C123.647 63.9273 123.857 63.3605 124.131 62.8145C124.269 62.5418 124.42 62.2732 124.634 62.0193C124.751 61.8947 124.865 61.7667 125.054 61.6642C125.138 61.6093 125.263 61.5704 125.383 61.5457C125.527 61.5296 125.644 61.5323 125.738 61.545C125.955 61.5517 126.249 61.6897 126.321 61.8552C126.41 62.0119 126.43 62.1586 126.439 62.2993C126.458 62.5814 126.415 62.846 126.379 63.1086C126.292 63.6305 126.158 64.1282 126.027 64.6113C125.759 65.5746 125.467 66.4844 125.115 67.3138C124.425 68.9759 123.733 70.3814 123.162 71.5283C122.587 72.6745 122.121 73.5582 121.798 74.1557C121.642 74.4358 121.517 74.6595 121.421 74.833C121.333 74.9844 121.283 75.0608 121.275 75.0588Z" fill="#F6865E"/>
<path d="M71.8994 94.8379C73.5467 99.4312 76.7644 106.528 80.2243 114.009C80.7249 115.091 82.6282 115.162 83.251 114.121L91.7337 99.9485C91.7337 99.9485 89.6913 88.3055 89.8643 88.7166C90.0374 89.1277 72.3633 90.2232 72.3633 90.2232L71.8994 94.8379Z" fill="#F7B63B"/>
<path d="M91.7337 93.2608C91.7536 93.3089 90.6469 93.5162 88.9157 93.9442C87.1843 94.3704 84.8426 95.0479 82.4266 95.9942C80.0134 96.9451 78.0028 97.9771 76.6196 98.7745C75.2335 99.5713 74.4372 100.11 74.381 100.077C74.3576 100.063 74.5329 99.9142 74.8713 99.6559C75.2062 99.3964 75.7255 99.0397 76.3961 98.6181C77.7346 97.7732 79.7399 96.6995 82.185 95.7365C84.6328 94.7775 87.0295 94.1219 88.8043 93.7438C89.6924 93.5533 90.4206 93.4195 90.9312 93.3477C91.4407 93.2724 91.7257 93.2405 91.7337 93.2608Z" fill="#FCFDFD"/>
<path d="M95.4473 96.6658C95.3917 96.6909 94.6804 96.1577 93.7042 95.2148C92.7269 94.2733 91.5172 92.9072 90.4759 91.3135C89.4387 89.7178 88.7749 88.2084 88.4182 87.1032C88.059 85.9973 87.9684 85.3003 88.0352 85.2942C88.1199 85.2847 88.3473 85.9647 88.8003 87.0454C89.2518 88.1255 89.9664 89.603 90.9903 91.1783C92.0178 92.7516 93.1563 94.1163 94.0396 95.0837C94.9218 96.051 95.5167 96.6338 95.4473 96.6658Z" fill="#1D2A30"/>
<path d="M100.869 33.2512C97.65 37.08 96.966 42.0322 99.0716 46.2694C100.017 48.1699 101.515 50.0491 101.241 52.0666C100.96 54.1333 98.8288 56.0858 99.5815 58.0853C100.027 59.2675 101.407 60.1444 101.935 61.3079C102.556 62.672 101.909 64.1497 101.614 65.5735C100.861 69.1981 102.436 72.8428 102.826 76.4993C103.217 80.1558 101.875 84.4353 97.443 86.0299C96.0948 86.5144 94.3345 86.6542 93.214 85.915C91.7915 84.9765 92.1877 83.2912 92.5771 81.9055C96.4721 68.0506 84.4396 54.5541 87.1874 40.5469C87.6276 38.3016 89.3325 34.4921 91.5299 32.921C93.7268 31.3506 99.8035 31.5416 101.883 33.1986" fill="#1D2A30"/>
<path d="M83.058 73.9212C83.0184 73.8973 83.627 73.4151 84.4808 72.4177C85.3304 71.4273 86.3986 69.881 86.9569 67.8152C87.2275 66.7833 87.3475 65.6341 87.2487 64.3963C87.1761 63.1592 86.941 61.8272 87.0535 60.4031C87.0928 59.6904 87.2982 58.965 87.5974 58.2488C87.9332 57.5424 88.3697 56.8493 88.8988 56.1844C89.9595 54.8545 91.3031 53.616 92.5319 52.2932C93.7609 50.9745 94.7807 49.5779 95.1115 48.1025C95.4433 46.6271 95.085 45.1658 94.7808 43.7896C94.4519 42.4119 94.2263 41.0553 94.3618 39.795C94.4699 38.5354 94.8101 37.3792 95.2708 36.3649C96.2015 34.33 97.5777 32.8884 98.6212 31.9908C99.1463 31.5395 99.5908 31.2127 99.9112 31.0088C100.228 30.8008 100.398 30.6967 100.41 30.7066C100.447 30.7347 99.7709 31.1649 98.7691 32.0821C97.7815 32.9973 96.4735 34.4397 95.6025 36.4457C95.1712 37.4459 94.8594 38.5811 94.7703 39.8119C94.6556 41.0462 94.8888 42.3535 95.2291 43.7326C95.5428 45.1061 95.9295 46.6025 95.5883 48.1601C95.2461 49.7171 94.1827 51.1657 92.9392 52.4998C91.6933 53.8395 90.3564 55.0696 89.3153 56.3671C88.7959 57.0152 88.3719 57.6837 88.0439 58.3605C87.7551 59.0452 87.5515 59.7333 87.507 60.4249C87.3845 61.804 87.6004 63.1318 87.6581 64.3836C87.7399 65.6376 87.5974 66.8206 87.299 67.8672C86.6851 69.9674 85.5496 71.5187 84.6415 72.4964C84.186 72.9885 83.7899 73.3462 83.5104 73.581C83.2256 73.813 83.0702 73.9296 83.058 73.9212Z" fill="#365462"/>
<path d="M74.3803 75.0587C74.3661 75.0524 74.4633 74.8901 74.6613 74.5874C74.8836 74.2545 75.1755 73.8162 75.5406 73.2691C76.2978 72.1236 77.432 70.4759 78.5467 68.3478C79.6392 66.2274 80.7229 63.5712 80.7561 60.5427C80.7621 59.7891 80.6914 59.0172 80.5353 58.2383C80.3794 57.4587 80.1461 56.6622 79.9944 55.8306C79.8492 55.0026 79.7795 54.1197 80.063 53.2481C80.3433 52.373 81.0513 51.5955 81.9044 50.9929C83.6102 49.7898 85.6676 49.0053 86.7308 47.5964C87.8198 46.2114 88.0602 44.5868 88.3351 43.0923C88.5705 41.5815 88.9437 40.127 89.5806 38.8487C90.1964 37.5641 91.0185 36.4481 91.8764 35.4978C93.6039 33.5888 95.5248 32.3871 96.9065 31.6722C97.6023 31.3154 98.166 31.0667 98.5623 30.92C98.955 30.7696 99.164 30.6952 99.1713 30.7071C99.1957 30.7423 98.3606 31.0492 97.0106 31.7894C95.6741 32.5332 93.8138 33.749 92.1506 35.6453C91.3239 36.5893 90.534 37.6919 89.9472 38.9547C89.3382 40.2155 88.9908 41.6222 88.7653 43.1372C88.4984 44.6318 88.2771 46.2999 87.1246 47.7839C85.972 49.3003 83.8421 50.1073 82.225 51.2612C81.41 51.8392 80.777 52.5409 80.5165 53.3387C80.2557 54.1359 80.3126 54.9738 80.4518 55.7815C80.5961 56.5934 80.8251 57.3884 80.9803 58.1856C81.1357 58.9835 81.2022 59.775 81.1905 60.5448C81.1312 63.6393 79.9948 66.3208 78.8549 68.4461C77.6914 70.5784 76.5094 72.2107 75.7018 73.3372C75.3045 73.8703 74.9864 74.2981 74.7444 74.6232C74.5195 74.9147 74.3947 75.0643 74.3803 75.0587Z" fill="#365462"/>
<path d="M379.705 267.255C379.696 267.251 379.75 267.153 379.863 266.965C379.989 266.76 380.159 266.485 380.375 266.136C380.809 265.402 381.375 264.292 381.879 262.815C382.875 259.863 383.222 255.352 381.751 249.993C381.068 247.31 379.966 244.432 378.621 241.381C377.296 238.324 375.758 235.08 374.501 231.575C373.257 228.077 372.277 224.281 372.465 220.301C372.656 216.313 374.21 212.333 375.918 208.371C377.625 204.402 379.388 200.523 379.916 196.621C380.515 192.726 379.417 188.902 377.081 185.77C374.819 182.604 371.973 179.895 369.844 177.09C367.68 174.295 366.327 171.42 365.493 168.747C363.877 163.356 364.443 158.813 365.218 155.821C366.056 152.811 366.993 151.255 366.993 151.255C367.002 151.258 366.966 151.361 366.888 151.558C366.799 151.775 366.681 152.064 366.529 152.434C366.215 153.202 365.81 154.351 365.425 155.851C364.718 158.837 364.217 163.349 365.866 168.68C366.717 171.324 368.076 174.161 370.231 176.918C372.356 179.69 375.215 182.386 377.522 185.59C379.906 188.758 381.052 192.706 380.445 196.661C379.913 200.63 378.135 204.534 376.435 208.498C374.726 212.457 373.19 216.396 372.996 220.316C372.803 224.235 373.76 227.995 374.982 231.475C376.219 234.965 377.739 238.209 379.048 241.274C380.376 244.334 381.464 247.235 382.127 249.937C383.559 255.336 383.151 259.893 382.084 262.855C381.544 264.338 380.943 265.446 380.473 266.171C380.237 266.514 380.051 266.783 379.912 266.984C379.783 267.167 379.713 267.259 379.705 267.255Z" fill="#1D2A30"/>
<path d="M372.939 179.686C372.939 179.686 369.178 169.714 375.924 163.874C376.161 163.67 376.578 163.766 376.639 164.046C376.999 165.692 377.45 170.709 372.939 179.686Z" fill="#F03658"/>
<path d="M374.364 167.177C374.396 167.186 374.341 167.891 374.233 169.024C374.106 170.296 373.956 171.79 373.791 173.441C373.629 175.092 373.483 176.586 373.358 177.858C373.251 178.989 373.188 179.691 373.153 179.686C373.121 179.682 373.125 178.97 373.188 177.824C373.251 176.68 373.377 175.106 373.552 173.378C373.727 171.65 373.913 170.095 374.064 168.973C374.216 167.852 374.331 167.165 374.364 167.177Z" fill="#1D2A30"/>
<path d="M378.092 204.706C378.092 204.706 380.917 193.785 392.285 191.079C392.684 190.984 393.07 191.247 392.943 191.534C392.193 193.23 389.207 198.13 378.092 204.706Z" fill="#F03658"/>
<path d="M389.244 193.335C389.311 193.373 388.644 194.024 387.528 195.056C386.258 196.208 384.766 197.563 383.12 199.058C381.481 200.557 379.997 201.912 378.733 203.067C377.621 204.098 376.937 204.739 376.858 204.705C376.788 204.675 377.339 203.971 378.361 202.89C379.384 201.81 380.879 200.356 382.609 198.792C384.338 197.228 385.962 195.844 387.172 194.862C388.381 193.879 389.175 193.296 389.244 193.335Z" fill="#1D2A30"/>
<path d="M374.484 232C374.484 232 372.83 220.28 382.265 215.015C382.597 214.831 383.055 215.012 383.05 215.332C383.019 217.221 382.176 222.86 374.484 232Z" fill="#F03658"/>
<path d="M380.561 219.491C380.633 219.512 380.314 220.221 379.76 221.354C379.122 222.625 378.374 224.117 377.547 225.767C376.726 227.416 375.984 228.909 375.352 230.18C374.802 231.313 374.466 232.016 374.386 232C374.316 231.985 374.518 231.252 374.974 230.091C375.433 228.932 376.147 227.348 377.02 225.623C377.888 223.898 378.739 222.354 379.389 221.247C380.039 220.14 380.489 219.469 380.561 219.491Z" fill="#1D2A30"/>
<path d="M383.093 259.294C383.093 259.294 381.902 248.163 392.151 243.435C392.511 243.269 392.988 243.454 392.967 243.756C392.844 245.542 391.679 250.853 383.093 259.294Z" fill="#F03658"/>
<path d="M390.478 246.785C390.556 246.809 390.17 247.518 389.502 248.651C388.738 249.923 387.84 251.415 386.849 253.063C385.865 254.712 384.974 256.206 384.216 257.478C383.555 258.609 383.149 259.313 383.063 259.294C382.988 259.278 383.247 258.54 383.808 257.376C384.37 256.213 385.236 254.629 386.28 252.904C387.322 251.179 388.334 249.638 389.104 248.534C389.874 247.429 390.4 246.761 390.478 246.785Z" fill="#1D2A30"/>
<path d="M366.935 170.588C366.935 170.588 353.561 165.619 353.299 157.311C353.29 157.02 353.74 156.838 354.078 157.004C356.065 157.982 361.574 161.352 366.935 170.588Z" fill="#F03658"/>
<path d="M355.784 160.354C355.85 160.324 356.499 160.886 357.512 161.81C358.64 162.856 359.962 164.083 361.424 165.44C362.891 166.793 364.219 168.017 365.35 169.06C366.364 169.981 366.996 170.549 366.93 170.587C366.873 170.62 366.126 170.112 365.025 169.231C363.925 168.348 362.474 167.093 360.949 165.669C359.422 164.248 358.097 162.934 357.171 161.968C356.246 161.001 355.716 160.385 355.784 160.354Z" fill="#1D2A30"/>
<path d="M380.571 193.333C380.571 193.333 367.835 188.752 366.937 180.095C366.905 179.792 367.307 179.582 367.633 179.74C369.545 180.671 374.894 183.938 380.571 193.333Z" fill="#F03658"/>
<path d="M369.419 183.1C369.478 183.065 370.124 183.624 371.137 184.549C372.265 185.595 373.589 186.823 375.052 188.18C376.52 189.533 377.848 190.757 378.98 191.801C379.993 192.721 380.624 193.29 380.568 193.331C380.517 193.369 379.785 192.869 378.694 191.994C377.605 191.117 376.161 189.865 374.632 188.441C373.104 187.018 371.77 185.7 370.835 184.728C369.899 183.757 369.358 183.133 369.419 183.1Z" fill="#1D2A30"/>
<path d="M373.115 218.353C373.115 218.353 363.696 210.17 368.114 202.652C368.269 202.388 368.783 202.351 368.997 202.594C370.263 204.025 373.4 208.58 373.115 218.353Z" fill="#F03658"/>
<path d="M369.437 204.706C369.508 204.695 369.741 205.455 370.078 206.69C370.444 208.081 370.875 209.714 371.349 211.518C371.83 213.32 372.266 214.951 372.638 216.34C372.978 217.572 373.193 218.334 373.119 218.353C373.055 218.369 372.711 217.634 372.278 216.416C371.847 215.199 371.327 213.5 370.836 211.609C370.342 209.719 369.957 207.999 369.712 206.748C369.469 205.497 369.365 204.717 369.437 204.706Z" fill="#1D2A30"/>
<path d="M381.811 247.922C381.811 247.922 368.908 243.229 368.176 234.673C368.151 234.372 368.566 234.171 368.893 234.331C370.826 235.275 376.216 238.572 381.811 247.922Z" fill="#F03658"/>
<path d="M370.659 237.688C370.72 237.655 371.368 238.215 372.38 239.139C373.508 240.186 374.832 241.413 376.294 242.769C377.762 244.122 379.09 245.347 380.221 246.39C381.235 247.311 381.866 247.879 381.807 247.92C381.755 247.956 381.018 247.454 379.925 246.576C378.832 245.699 377.388 244.445 375.86 243.022C374.332 241.6 373.001 240.282 372.068 239.313C371.135 238.343 370.598 237.722 370.659 237.688Z" fill="#1D2A30"/>
<path d="M407.826 204.706C407.839 204.707 407.844 204.788 407.843 204.947C407.837 205.136 407.829 205.366 407.821 205.645C407.782 206.301 407.731 207.188 407.667 208.293C407.499 210.622 407.266 213.869 406.987 217.751L406.986 217.76L406.983 217.774C406.057 221.726 403.418 226.107 399.872 230.359C397.271 233.493 394.545 236.342 392.193 238.991C389.827 241.633 387.829 244.079 386.437 246.248C385.035 248.412 384.221 250.273 383.744 251.573C383.516 252.225 383.344 252.734 383.246 253.083C383.139 253.429 383.074 253.611 383.056 253.608C383.037 253.605 383.067 253.42 383.14 253.067C383.204 252.712 383.343 252.196 383.542 251.533C383.959 250.213 384.726 248.322 386.096 246.121C387.457 243.919 389.435 241.439 391.784 238.78C394.12 236.113 396.832 233.259 399.419 230.142C402.946 225.91 405.572 221.596 406.532 217.707L406.528 217.73C406.886 213.85 407.186 210.606 407.399 208.28C407.517 207.177 407.61 206.292 407.68 205.639C407.716 205.361 407.747 205.132 407.772 204.944C407.796 204.787 407.815 204.705 407.826 204.706Z" fill="#1D2A30"/>
<path d="M400.81 229.725C400.81 229.725 406.316 219.504 399.389 212.808C399.147 212.573 398.661 212.642 398.557 212.931C397.944 214.641 396.809 219.896 400.81 229.725Z" fill="#F03658"/>
<path d="M400.443 216.078C400.513 216.073 400.671 216.829 400.855 218.059C401.04 219.288 401.245 220.992 401.408 222.878C401.57 224.764 401.646 226.477 401.645 227.718C401.642 228.959 401.565 229.726 401.499 229.725C401.425 229.725 401.375 228.961 401.287 227.727C401.175 226.339 401.045 224.709 400.901 222.908C400.75 221.106 400.614 219.476 400.498 218.086C400.406 216.852 400.373 216.085 400.443 216.078Z" fill="#1D2A30"/>
<path d="M400.809 229.725C398.547 224.168 397.927 220.073 397.926 217.254C397.925 215.087 398.289 213.674 398.556 212.932C398.618 212.761 398.812 212.667 399.011 212.667C399.149 212.667 399.289 212.712 399.389 212.808C402.061 215.391 402.883 218.499 402.885 221.341C402.886 224.994 401.536 228.209 401.013 229.316C401.049 228.979 401.077 228.436 401.079 227.739C401.08 226.528 400.999 224.854 400.827 223.012C400.656 221.17 400.438 219.506 400.243 218.306C400.049 217.109 399.881 216.371 399.807 216.371H399.806C399.733 216.378 399.767 217.127 399.864 218.332C399.988 219.69 400.132 221.282 400.291 223.042C400.443 224.8 400.581 226.392 400.699 227.748C400.773 228.691 400.821 229.353 400.876 229.597C400.834 229.681 400.809 229.725 400.809 229.725Z" fill="#BC283B"/>
<path d="M401.453 228.588C401.402 228.358 401.356 227.732 401.287 226.84C401.175 225.557 401.045 224.052 400.901 222.388C400.75 220.723 400.614 219.217 400.498 217.933C400.406 216.793 400.373 216.084 400.443 216.078H400.444C400.514 216.078 400.672 216.776 400.855 217.908C401.04 219.043 401.245 220.618 401.408 222.36C401.57 224.102 401.646 225.685 401.645 226.831C401.643 227.49 401.617 228.004 401.583 228.323C401.53 228.435 401.486 228.524 401.453 228.588Z" fill="#161C1E"/>
<path d="M382.869 253.608C382.869 253.608 387.793 243.681 379.307 237.798C379.008 237.592 378.478 237.685 378.396 237.964C377.914 239.604 377.27 244.61 382.869 253.608Z" fill="#F03658"/>
<path d="M380.592 239.961C380.662 239.95 380.897 240.7 381.204 241.923C381.512 243.147 381.887 244.845 382.237 246.73C382.587 248.615 382.833 250.332 382.955 251.58C383.073 252.828 383.071 253.605 383.005 253.608C382.929 253.612 382.804 252.847 382.593 251.614C382.344 250.225 382.051 248.596 381.728 246.794C381.397 244.994 381.1 243.365 380.845 241.976C380.631 240.74 380.522 239.972 380.592 239.961Z" fill="#1D2A30"/>
<path d="M382.869 253.608C378.954 247.316 378.092 242.977 378.092 240.374C378.092 239.255 378.251 238.457 378.396 237.963C378.447 237.788 378.677 237.686 378.914 237.686C379.054 237.686 379.196 237.721 379.307 237.798C383.235 240.521 384.29 244.111 384.29 247.181C384.29 249.953 383.429 252.303 383.048 253.208C383.049 252.89 383.016 252.379 382.937 251.726C382.795 250.587 382.51 249.02 382.102 247.299C381.695 245.578 381.259 244.029 380.901 242.912C380.547 241.803 380.274 241.121 380.191 241.121C380.19 241.121 380.189 241.121 380.189 241.121C380.107 241.131 380.234 241.832 380.484 242.96C380.78 244.228 381.126 245.715 381.51 247.358C381.886 249.002 382.226 250.489 382.516 251.756C382.707 252.636 382.839 253.255 382.929 253.481C382.891 253.564 382.869 253.608 382.869 253.608Z" fill="#BC283B"/>
<path d="M382.948 253.608C382.871 253.358 382.757 252.675 382.592 251.704C382.343 250.305 382.051 248.663 381.728 246.847C381.397 245.033 381.1 243.391 380.845 241.992C380.631 240.746 380.522 239.972 380.592 239.961C380.592 239.961 380.593 239.961 380.594 239.961C380.665 239.961 380.899 240.714 381.204 241.938C381.512 243.171 381.887 244.882 382.237 246.782C382.587 248.682 382.833 250.412 382.955 251.67C383.023 252.391 383.051 252.956 383.05 253.307C383.009 253.434 382.974 253.535 382.948 253.608Z" fill="#161C1E"/>
<path d="M407.843 217.216C407.843 217.216 420.154 211.041 418.912 202.756C418.868 202.465 418.389 202.327 418.086 202.523C416.299 203.678 411.468 207.536 407.843 217.216Z" fill="#F03658"/>
<path d="M407.843 217.216C411.468 207.537 416.3 203.679 418.087 202.523C418.183 202.46 418.3 202.431 418.413 202.431C418.652 202.431 418.883 202.559 418.913 202.756C418.972 203.153 419 203.545 419 203.931C419.005 211.618 407.843 217.216 407.843 217.216Z" fill="#BC283B"/>
<path d="M416.513 205.844C416.582 205.869 416.195 206.542 415.497 207.604C414.799 208.666 413.787 210.117 412.602 211.694C411.422 213.274 410.28 214.676 409.403 215.67C408.523 216.662 407.909 217.243 407.849 217.215C407.781 217.183 408.274 216.549 409.064 215.525C409.942 214.367 410.972 213.006 412.112 211.503C413.245 209.998 414.271 208.635 415.145 207.474C415.933 206.446 416.443 205.82 416.513 205.844Z" fill="#1D2A30"/>
<path d="M388.009 243.373C388.009 243.373 402.651 241.67 406.572 233.634C406.71 233.352 406.37 233.069 405.983 233.152C403.702 233.638 397.085 235.628 388.009 243.373Z" fill="#F03658"/>
<path d="M388.009 243.373C397.085 235.628 403.702 233.638 405.982 233.152C406.03 233.142 406.076 233.137 406.12 233.137C406.388 233.137 406.603 233.306 406.603 233.505C406.603 233.547 406.593 233.591 406.572 233.634C403.141 240.667 391.497 242.849 388.644 243.283C388.354 243.328 388.155 243.354 388.064 243.366C388.028 243.37 388.009 243.373 388.009 243.373Z" fill="#BC283B"/>
<path d="M402.882 236.552C402.93 236.592 402.164 237.032 400.874 237.701C399.587 238.371 397.773 239.267 395.727 240.218C393.68 241.172 391.781 241.992 390.372 242.552C388.962 243.111 388.047 243.41 388.01 243.369C387.968 243.322 388.806 242.946 390.154 242.335C391.665 241.638 393.439 240.822 395.399 239.92C397.356 239.013 399.128 238.192 400.635 237.493C401.985 236.879 402.835 236.512 402.882 236.552Z" fill="#1D2A30"/>
<path d="M374.832 262.706L370.654 284.314H396.687L393.312 262.706H374.832Z" fill="#365462"/>
<path d="M394.207 270.098C394.207 270.413 389.489 270.667 383.67 270.667C377.85 270.667 373.133 270.413 373.133 270.098C373.133 269.786 377.85 269.529 383.67 269.529C389.489 269.529 394.207 269.786 394.207 270.098Z" fill="#1D2A30"/>
<path d="M290.077 58.0851C290.077 58.0851 289.836 58.0886 289.371 58.0783C288.904 58.0633 288.21 58.0387 287.302 58.0865C285.498 58.1629 282.789 58.4195 279.599 59.4273C276.445 60.4331 272.754 62.2106 269.817 65.1822C268.36 66.6609 267.143 68.4397 266.402 70.4561C265.687 72.4751 265.446 74.7146 265.786 77.0202C266.172 79.3177 267.103 81.6957 268.809 83.8792C269.656 84.9675 270.658 86.0258 271.886 86.9586C273.07 87.9187 274.468 88.7682 276.044 89.4144C277.618 90.0571 279.419 90.4624 281.262 90.4065C283.09 90.3615 284.976 89.875 286.315 88.8678C287.663 87.8682 288.328 86.3998 288.329 84.9348C288.339 83.4582 287.661 81.9904 286.496 80.754C284.148 78.2641 280.354 76.589 276.317 75.6862C272.24 74.7896 267.763 74.7664 263.478 75.5525C261.343 75.9721 259.257 76.5876 257.294 77.4078C255.334 78.2328 253.55 79.3088 251.987 80.5514C251.616 80.8762 251.194 81.1703 250.864 81.5223L249.844 82.5622C249.248 83.3005 248.637 84.0375 248.18 84.8392C247.221 86.4216 246.549 88.1186 246.214 89.8674C245.607 93.3624 246.168 96.9625 248.039 100.104C249.846 103.25 252.928 105.951 256.767 107.578C258.682 108.387 260.8 108.908 262.947 108.996C265.09 109.097 267.227 108.68 269.046 107.891C270.862 107.104 272.379 105.922 273.174 104.497C273.964 103.074 273.95 101.449 273.267 100.036C272.596 98.6069 271.336 97.3869 269.868 96.4077C268.392 95.4292 266.668 94.6964 264.869 94.2147C261.223 93.316 257.339 93.3645 253.865 94.0707C250.382 94.7865 247.277 96.1402 244.84 97.87C242.405 99.61 240.697 101.744 239.665 103.924C237.58 108.317 238.11 112.776 239.902 116.183C241.746 119.619 244.674 122.066 247.349 123.683C250.048 125.312 252.505 126.191 254.191 126.692C255.041 126.936 255.696 127.109 256.146 127.205C256.591 127.31 256.816 127.373 256.816 127.373C256.816 127.373 256.582 127.333 256.132 127.24C255.676 127.156 255.016 126.992 254.156 126.758C252.454 126.277 249.97 125.414 247.234 123.791C244.523 122.179 241.547 119.726 239.657 116.257C237.82 112.815 237.256 108.303 239.351 103.839C240.389 101.625 242.115 99.4489 244.59 97.6707C247.066 95.9055 250.218 94.5217 253.764 93.7861C257.301 93.0615 261.256 93.0008 265.003 93.9192C266.856 94.4125 268.624 95.1618 270.148 96.1669C271.662 97.1726 272.968 98.4309 273.676 99.9252C274.393 101.405 274.416 103.121 273.582 104.626C272.745 106.13 271.157 107.366 269.271 108.185C267.383 109.007 265.154 109.443 262.923 109.34C260.696 109.25 258.509 108.711 256.542 107.883C252.603 106.215 249.457 103.456 247.61 100.246C245.701 97.0416 245.129 93.3781 245.748 89.8169C246.089 88.036 246.774 86.3056 247.753 84.6905C248.22 83.8723 248.844 83.119 249.453 82.3651L250.497 81.302C250.835 80.9424 251.265 80.6414 251.645 80.3098C253.243 79.0393 255.066 77.9428 257.066 77.1021C259.067 76.2662 261.192 75.6405 263.366 75.2147C267.73 74.4164 272.285 74.443 276.442 75.3608C280.561 76.2881 284.42 77.9864 286.851 80.5671C288.055 81.8465 288.768 83.3906 288.753 84.9354C288.75 86.4687 288.048 88.0224 286.606 89.0903C285.173 90.1622 283.185 90.6658 281.276 90.7101C279.348 90.7647 277.474 90.3382 275.859 89.6736C274.239 89.0056 272.817 88.135 271.614 87.1558C270.368 86.2032 269.351 85.1251 268.495 84.0163C266.771 81.7946 265.836 79.3798 265.455 77.0496C265.12 74.7105 265.378 72.441 266.114 70.396C266.876 68.3544 268.122 66.5544 269.605 65.0628C272.598 62.068 276.339 60.2939 279.529 59.2997C282.753 58.3035 285.485 58.0688 287.298 58.0155C288.21 57.9787 288.906 58.0155 289.373 58.0422C289.839 58.0647 290.077 58.0851 290.077 58.0851Z" fill="#1D2A30"/>
<path d="M192.145 200.157H321.068V126.235H192.145V200.157Z" fill="#6E99D7"/>
<path d="M192.145 126.235L216.263 143.294H344.621L322.718 126.235H192.145Z" fill="#BFD0EE"/>
<path d="M192.145 126.412C194.492 126.409 248.22 126.336 322.227 126.235H322.327L322.397 126.289C329.366 131.622 336.597 137.155 343.996 142.817L344.221 142.988L344.621 143.294H344.048C291.612 143.264 245.074 143.239 216.172 143.223H216.115L216.073 143.193C201.039 132.649 192.935 126.965 192.145 126.412C192.94 126.959 201.112 132.59 216.271 143.035L216.172 143.006C245.074 142.99 291.612 142.964 344.048 142.934L343.874 143.239L343.65 143.068C336.254 137.405 329.024 131.87 322.057 126.535L322.227 126.589C248.22 126.488 194.49 126.415 192.145 126.412Z" fill="#1D2A30"/>
<path d="M230.571 160.353C229.288 160.355 228.117 161.147 228.095 162.029C228.073 162.911 229.203 163.732 230.485 163.764C231.766 163.795 232.98 163.034 233.05 162.153C233.121 161.272 232.037 160.422 230.756 160.358" fill="#1D2A30"/>
<path d="M261.561 160.353C260.279 160.355 259.108 161.147 259.086 162.029C259.064 162.911 260.194 163.732 261.476 163.764C262.758 163.795 263.971 163.034 264.041 162.153C264.112 161.272 263.028 160.422 261.748 160.358" fill="#1D2A30"/>
<path d="M261.56 178.548C261.422 178.592 261.22 176.64 259.021 174.164C257.941 172.936 256.325 171.635 254.179 170.58C252.046 169.525 249.336 168.764 246.409 168.683C243.479 168.641 240.72 169.285 238.515 170.248C236.296 171.211 234.589 172.443 233.423 173.623C231.053 176.002 230.712 177.943 230.579 177.893C230.562 177.89 230.589 177.776 230.653 177.56C230.731 177.347 230.79 177.017 230.988 176.623C231.319 175.818 231.991 174.69 233.155 173.466C234.311 172.241 236.034 170.959 238.298 169.954C240.549 168.948 243.391 168.271 246.422 168.316C249.451 168.4 252.239 169.196 254.415 170.295C256.605 171.394 258.233 172.747 259.3 174.019C260.375 175.29 260.966 176.445 261.24 177.263C261.411 177.665 261.446 177.996 261.508 178.212C261.558 178.431 261.575 178.547 261.56 178.548Z" fill="#1D2A30"/>
<path d="M321.068 147.843H296.382C296.351 145.512 296.315 143.907 296.275 143.294C304.279 143.297 312.562 143.301 321.068 143.305V147.843Z" fill="#841D29"/>
<path d="M296.166 147.843H216.123L193.385 127.373L212.284 139.421C213.695 140.364 215.181 141.357 216.743 142.4L216.785 142.428H216.842C236.394 142.439 264.111 142.453 296.275 142.471C296.235 143.195 296.197 145.09 296.166 147.843Z" fill="#841D29"/>
<path d="M296.266 143.294C263.988 143.274 236.174 143.258 216.553 143.247H216.496L216.454 143.215C214.886 142.048 213.395 140.937 211.979 139.882L216.553 143.132H296.275C296.272 143.178 296.269 143.232 296.266 143.294Z" fill="#151717"/>
<path d="M316.109 192.196H304.953V183.098H316.109V192.196Z" fill="#F8F8F9"/>
<path d="M192.145 126.235L164.873 143.294H192.145V126.235Z" fill="#F03658"/>
<path d="M192.145 143.294H164.873L192.145 126.235V143.294Z" fill="#87B6E5"/>
<path d="M176.03 284.314H326.027V200.157H176.03V284.314Z" fill="#F03658"/>
<path d="M326.027 284.314H176.03V200.157H326.027V216.486V231.115V284.314Z" fill="#2887BC"/>
<path d="M313.63 274.078H301.234V264.98H313.63V274.078Z" fill="#F8F8F9"/>
<path d="M223.136 200.157V217.216H239.252V200.157H223.136Z" fill="#1D2A30"/>
<path d="M223.136 266.118V284.314H239.252V266.118H223.136Z" fill="#1D2A30"/>
<path d="M69.4203 53.3092C68.3376 53.116 63.1217 52.1851 53.0311 50.3843L53.1522 50.3707C49.5479 52.04 44.6657 53.3872 39.0052 53.4509C36.1894 53.4435 33.2108 53.198 30.2385 52.5214C27.2692 51.8495 24.3487 50.7355 21.6952 49.2323C16.3856 46.2498 12.2516 41.4697 11.3589 35.9683C10.9034 33.2353 11.2082 30.3619 12.3793 27.6105C13.5722 24.8672 15.6299 22.2671 18.4009 20.0784C19.8052 18.9217 21.4599 17.9617 23.1474 17.0748C24.0336 16.6775 24.9071 16.2646 25.8202 15.9154L27.2145 15.4286L27.9085 15.1859L28.6306 14.994C32.4494 13.9187 36.5135 13.5024 40.4141 13.6909C44.3192 13.8732 48.0592 14.6665 51.3306 15.9168C54.6077 17.1643 57.4163 18.858 59.6223 20.7808C61.8332 22.705 63.4407 24.855 64.4634 27.026C65.4849 29.1997 65.9502 31.3863 65.9772 33.4522C66.0108 37.6024 64.2248 41.1626 62.0513 43.7621L62.0527 43.6543C66.61 49.6256 68.9123 52.6427 69.4203 53.3092C68.8948 52.6502 66.5126 49.6662 61.7967 43.7594L61.7544 43.7065L61.7985 43.6516C63.9178 41.0657 65.6446 37.544 65.5804 33.4536C65.5385 31.4175 65.0655 29.2669 64.0479 27.1311C63.0301 24.9981 61.4389 22.8881 59.2577 21.0032C57.0818 19.1177 54.3163 17.4606 51.0957 16.2416C47.8808 15.0205 44.2106 14.2468 40.3794 14.0726C36.5519 13.8916 32.569 14.3038 28.8268 15.3595L28.1193 15.5473L27.4384 15.7859L26.0726 16.2639C25.178 16.6063 24.322 17.0118 23.4534 17.4009C21.8002 18.2715 20.178 19.2119 18.8016 20.3462C16.0846 22.4915 14.0668 25.0394 12.895 27.7278C11.7448 30.4229 11.441 33.2414 11.8829 35.9222C12.7473 41.3179 16.7866 46.0152 21.9913 48.9584C24.5927 50.4405 27.4574 51.5437 30.3743 52.2129C33.2944 52.8868 36.2244 53.1377 38.9991 53.156C44.5764 53.1139 49.4039 51.8095 52.987 50.1809L53.0447 50.1544L53.1078 50.1666C63.1512 52.1017 68.3437 53.1017 69.4203 53.3092Z" fill="#1D2A30"/>
<path d="M35.9536 24.2126L36.8985 34.7855C36.9756 35.65 37.95 36.3379 39.17 36.3891C40.4572 36.4439 41.5781 35.7733 41.7196 34.8655L43.3759 24.2393C43.501 23.4346 42.6034 22.7338 41.4613 22.7453L37.8229 22.7813C36.7368 22.7922 35.8852 23.4447 35.9536 24.2126Z" fill="#F03658"/>
<path d="M43.1972 41.6577C42.55 42.8497 40.4459 43.4947 38.4975 43.0994C36.5484 42.7036 35.4929 41.4169 36.1402 40.2249C36.787 39.0329 38.8916 38.3873 40.8399 38.7832C42.789 39.1784 43.8441 40.4657 43.1972 41.6577Z" fill="#F03658"/>
</svg>
