<svg id="Layer_1" data-name="Layer 1" xmlns="http://www.w3.org/2000/svg" xmlns:xlink="http://www.w3.org/1999/xlink" viewBox="0 0 1201 442"><defs><style>.cls-1{fill:url(#linear-gradient);}.cls-2{opacity:0.61;fill:url(#radial-gradient);}.cls-3{fill:url(#radial-gradient-2);}.cls-4{fill:url(#radial-gradient-3);}.cls-5{fill:url(#radial-gradient-4);}.cls-6{fill:url(#radial-gradient-5);}.cls-7{fill:url(#radial-gradient-6);}.cls-8{fill:url(#radial-gradient-7);}.cls-9{fill:url(#radial-gradient-8);}.cls-10{fill:url(#radial-gradient-9);}.cls-11{fill:url(#linear-gradient-2);}.cls-12{opacity:0.33;}.cls-13{fill:#c1beb8;}.cls-14{fill:#af5743;}.cls-15{fill:#7a3b31;}.cls-16{fill:url(#linear-gradient-3);}.cls-17{fill:#20284f;}.cls-18{fill:url(#linear-gradient-4);}.cls-19{fill:url(#radial-gradient-10);}.cls-20,.cls-21,.cls-22{stroke:#fff;}.cls-20,.cls-21,.cls-22,.cls-28{stroke-miterlimit:10;}.cls-20{fill:url(#radial-gradient-11);}.cls-21{fill:url(#radial-gradient-12);}.cls-22{fill:url(#radial-gradient-13);}.cls-23{fill:#dd4a31;}.cls-24{fill:#dd9f3c;}.cls-25{fill:#e5d8a1;}.cls-26{fill:#232220;}.cls-27{fill:#a53232;}.cls-28{fill:url(#radial-gradient-14);stroke:url(#linear-gradient-5);}.cls-29{fill:url(#linear-gradient-6);}.cls-30{fill:#282828;}.cls-31{fill:url(#linear-gradient-7);}</style><linearGradient id="linear-gradient" x1="622.5" y1="327" x2="622.5" y2="249" gradientUnits="userSpaceOnUse"><stop offset="0" stop-color="gray"/><stop offset="0.55" stop-color="#363636"/><stop offset="0.99"/></linearGradient><radialGradient id="radial-gradient" cx="749.04" cy="712.65" r="458" gradientTransform="translate(-371.48 396.09) scale(1.29 0.03)" gradientUnits="userSpaceOnUse"><stop offset="0.09"/><stop offset="0.87" stop-color="#484848" stop-opacity="0.53"/><stop offset="1" stop-color="#999" stop-opacity="0"/></radialGradient><radialGradient id="radial-gradient-2" cx="1139.45" cy="665.48" r="72" gradientTransform="translate(-2.5 -267.26) scale(0.92 0.93)" gradientUnits="userSpaceOnUse"><stop offset="0" stop-color="#1a1a1a"/><stop offset="0.44" stop-color="#1d1d1d"/><stop offset="0.76" stop-color="#262626"/><stop offset="1" stop-color="#333"/></radialGradient><radialGradient id="radial-gradient-3" cx="1139.45" cy="665.48" r="44" xlink:href="#radial-gradient-2"/><radialGradient id="radial-gradient-4" cx="635.45" cy="645.06" r="72" gradientTransform="translate(-2.5 -267.26) scale(0.92 0.93)" gradientUnits="userSpaceOnUse"><stop offset="0" stop-color="#1a1a1a"/><stop offset="0.48" stop-color="#1c1c1c"/><stop offset="0.65" stop-color="#232323"/><stop offset="0.78" stop-color="#2e2e2e"/><stop offset="0.81" stop-color="#333"/><stop offset="1" stop-color="#1a1a1a"/></radialGradient><radialGradient id="radial-gradient-5" cx="635.45" cy="645.06" r="44" xlink:href="#radial-gradient-2"/><radialGradient id="radial-gradient-6" cx="443.45" cy="665.48" xlink:href="#radial-gradient-4"/><radialGradient id="radial-gradient-7" cx="443.45" cy="665.48" r="38.69" gradientTransform="translate(-2.5 -267.26) scale(0.92 0.93)" gradientUnits="userSpaceOnUse"><stop offset="0.25" stop-color="#333"/><stop offset="0.33"/><stop offset="0.64" stop-color="#020202"/><stop offset="0.76" stop-color="#090909"/><stop offset="0.84" stop-color="#141414"/><stop offset="0.9" stop-color="#252525"/><stop offset="0.94" stop-color="#333"/><stop offset="1" stop-color="#1a1a1a"/></radialGradient><radialGradient id="radial-gradient-8" cx="274.36" cy="665.48" xlink:href="#radial-gradient-4"/><radialGradient id="radial-gradient-9" cx="274.36" cy="665.48" r="38.69" xlink:href="#radial-gradient-7"/><linearGradient id="linear-gradient-2" x1="800" y1="360" x2="800" y2="282" gradientUnits="userSpaceOnUse"><stop offset="0.01" stop-color="#1a1a1a"/><stop offset="0.21" stop-color="#1e1e1e"/><stop offset="0.4" stop-color="#292929"/><stop offset="0.58" stop-color="#3c3c3c"/><stop offset="0.75" stop-color="#565656"/><stop offset="0.84" stop-color="#666"/><stop offset="0.88" stop-color="#626262"/><stop offset="0.93" stop-color="#575757"/><stop offset="0.97" stop-color="#444"/><stop offset="1" stop-color="#333"/></linearGradient><linearGradient id="linear-gradient-3" x1="1128" y1="466" x2="1128" y2="337.08" gradientUnits="userSpaceOnUse"><stop offset="0" stop-color="#2c838c"/><stop offset="0.28" stop-color="#2f858e"/><stop offset="0.47" stop-color="#388c95"/><stop offset="0.63" stop-color="#4698a0"/><stop offset="0.77" stop-color="#5ca8b0"/><stop offset="0.9" stop-color="#77bdc4"/><stop offset="0.93" stop-color="#7dc2c9"/><stop offset="1" stop-color="#47939b"/></linearGradient><linearGradient id="linear-gradient-4" x1="1132" y1="225" x2="1165" y2="225" gradientUnits="userSpaceOnUse"><stop offset="0" stop-color="#f2f2f2"/><stop offset="1" stop-color="#ccc"/></linearGradient><radialGradient id="radial-gradient-10" cx="1120.01" cy="599.5" r="65.63" gradientTransform="matrix(1, 0, 0, 1, 0, 0)" xlink:href="#radial-gradient-2"/><radialGradient id="radial-gradient-11" cx="980" cy="106.5" r="40.21" gradientTransform="matrix(1, 0, 0, 1, 0, 0)" xlink:href="#radial-gradient-2"/><radialGradient id="radial-gradient-12" cx="1206" cy="416.5" r="38.21" gradientTransform="matrix(1, 0, 0, 1, 0, 0)" xlink:href="#radial-gradient-2"/><radialGradient id="radial-gradient-13" cx="1120.9" cy="416" r="40.21" gradientTransform="translate(-662.87 -309) scale(1.54 1)" xlink:href="#radial-gradient-2"/><radialGradient id="radial-gradient-14" cx="1242.94" cy="571.75" r="19.57" gradientUnits="userSpaceOnUse"><stop offset="0" stop-color="#999" stop-opacity="0"/><stop offset="0.99"/></radialGradient><linearGradient id="linear-gradient-5" x1="1226.37" y1="571.08" x2="1240.86" y2="571.08" gradientUnits="userSpaceOnUse"><stop offset="0.01"/><stop offset="1" stop-color="#999" stop-opacity="0"/></linearGradient><linearGradient id="linear-gradient-6" x1="313.5" y1="312.5" x2="313.5" y2="259" gradientUnits="userSpaceOnUse"><stop offset="0.01"/><stop offset="0.58" stop-color="#4b4b4b"/><stop offset="1" stop-color="gray"/></linearGradient><linearGradient id="linear-gradient-7" x1="1113.18" y1="340" x2="1113.18" y2="309" gradientUnits="userSpaceOnUse"><stop offset="0.01" stop-color="#b3b3b3"/><stop offset="0.2" stop-color="#b7b7b7"/><stop offset="0.37" stop-color="#c2c2c2"/><stop offset="0.54" stop-color="#d5d5d5"/><stop offset="0.65" stop-color="#e6e6e6"/><stop offset="0.79" stop-color="#e2e2e2"/><stop offset="0.92" stop-color="#d7d7d7"/><stop offset="1" stop-color="#ccc"/></linearGradient></defs><rect class="cls-1" x="94" y="249" width="1057" height="78"/><ellipse class="cls-2" cx="600.5" cy="416.5" rx="600.5" ry="25.5"/><ellipse class="cls-3" cx="1042" cy="352" rx="66" ry="67"/><ellipse class="cls-4" cx="1042" cy="352" rx="40.33" ry="40.94"/><ellipse cx="1042.46" cy="324.55" rx="1.38" ry="1.4"/><ellipse cx="1030.99" cy="326.92" rx="1.38" ry="1.4"/><ellipse cx="1021.58" cy="334" rx="1.38" ry="1.4"/><ellipse cx="1016" cy="344.45" rx="1.38" ry="1.4"/><ellipse cx="1015.29" cy="356.31" rx="1.37" ry="1.4"/><ellipse cx="1019.59" cy="367.36" rx="1.38" ry="1.4"/><ellipse cx="1028.08" cy="375.54" rx="1.37" ry="1.4"/><ellipse cx="1039.19" cy="379.31" rx="1.37" ry="1.4"/><ellipse cx="1050.82" cy="377.96" rx="1.38" ry="1.4"/><ellipse cx="1060.8" cy="371.74" rx="1.38" ry="1.4"/><ellipse cx="1067.25" cy="361.83" rx="1.38" ry="1.4"/><ellipse cx="1068.98" cy="350.07" rx="1.38" ry="1.4"/><ellipse cx="1065.65" cy="338.68" rx="1.37" ry="1.4"/><ellipse cx="1057.89" cy="329.78" rx="1.37" ry="1.4"/><ellipse class="cls-5" cx="580" cy="333" rx="66" ry="67"/><ellipse class="cls-6" cx="580" cy="333" rx="40.33" ry="40.94"/><ellipse cx="580.46" cy="305.55" rx="1.37" ry="1.4"/><ellipse cx="568.99" cy="307.92" rx="1.38" ry="1.4"/><ellipse cx="559.58" cy="315" rx="1.38" ry="1.4"/><ellipse cx="554" cy="325.45" rx="1.38" ry="1.4"/><ellipse cx="553.29" cy="337.31" rx="1.38" ry="1.4"/><ellipse cx="557.59" cy="348.36" rx="1.37" ry="1.4"/><ellipse cx="566.08" cy="356.54" rx="1.37" ry="1.4"/><ellipse cx="577.19" cy="360.31" rx="1.38" ry="1.4"/><ellipse cx="588.82" cy="358.96" rx="1.38" ry="1.4"/><ellipse cx="598.8" cy="352.74" rx="1.38" ry="1.4"/><ellipse cx="605.25" cy="342.83" rx="1.38" ry="1.4"/><ellipse cx="606.98" cy="331.07" rx="1.38" ry="1.4"/><ellipse cx="603.65" cy="319.68" rx="1.37" ry="1.4"/><ellipse cx="595.89" cy="310.78" rx="1.37" ry="1.4"/><ellipse class="cls-7" cx="404" cy="352" rx="66" ry="67"/><ellipse class="cls-8" cx="404" cy="352" rx="35.46" ry="36"/><ellipse cx="404.46" cy="324.55" rx="1.37" ry="1.4"/><ellipse cx="392.99" cy="326.92" rx="1.38" ry="1.4"/><ellipse cx="383.58" cy="334" rx="1.38" ry="1.4"/><ellipse cx="378" cy="344.45" rx="1.38" ry="1.4"/><ellipse cx="377.29" cy="356.31" rx="1.38" ry="1.4"/><ellipse cx="381.59" cy="367.36" rx="1.37" ry="1.4"/><ellipse cx="390.08" cy="375.54" rx="1.37" ry="1.4"/><ellipse cx="401.19" cy="379.31" rx="1.38" ry="1.4"/><ellipse cx="412.82" cy="377.96" rx="1.38" ry="1.4"/><ellipse cx="422.8" cy="371.74" rx="1.38" ry="1.4"/><ellipse cx="429.25" cy="361.83" rx="1.38" ry="1.4"/><ellipse cx="430.98" cy="350.07" rx="1.38" ry="1.4"/><ellipse cx="427.65" cy="338.68" rx="1.37" ry="1.4"/><ellipse cx="419.89" cy="329.78" rx="1.37" ry="1.4"/><ellipse class="cls-9" cx="249" cy="352" rx="66" ry="67"/><ellipse class="cls-10" cx="249" cy="352" rx="35.46" ry="36"/><ellipse cx="249.46" cy="324.55" rx="1.37" ry="1.4"/><ellipse cx="237.99" cy="326.92" rx="1.38" ry="1.4"/><ellipse cx="228.58" cy="334" rx="1.38" ry="1.4"/><ellipse cx="223" cy="344.45" rx="1.38" ry="1.4"/><ellipse cx="222.29" cy="356.31" rx="1.38" ry="1.4"/><ellipse cx="226.59" cy="367.36" rx="1.37" ry="1.4"/><ellipse cx="235.08" cy="375.54" rx="1.37" ry="1.4"/><ellipse cx="246.19" cy="379.31" rx="1.38" ry="1.4"/><ellipse cx="257.82" cy="377.96" rx="1.38" ry="1.4"/><ellipse cx="267.8" cy="371.74" rx="1.38" ry="1.4"/><ellipse cx="274.25" cy="361.83" rx="1.38" ry="1.4"/><ellipse cx="275.98" cy="350.07" rx="1.38" ry="1.4"/><ellipse cx="272.65" cy="338.68" rx="1.37" ry="1.4"/><ellipse cx="264.89" cy="329.78" rx="1.37" ry="1.4"/><rect class="cls-11" x="708" y="282" width="184" height="78" rx="12.17"/><line class="cls-12" x1="465" y1="255.78" x2="455" y2="255.78"/><path class="cls-13" d="M1020,465V636l23,1s9-70,81-71c0,0,69,5,74,73l34,1s5,2,8-10-4-164-4-164" transform="translate(-76 -309)"/><rect class="cls-13" x="24" y="224" width="920" height="35"/><rect class="cls-14" x="24" y="77" width="920" height="147"/><rect class="cls-14" x="24" y="57" width="920" height="8"/><rect class="cls-14" x="24" y="44" width="920" height="8"/><rect class="cls-14" x="24" y="31" width="920" height="8"/><rect class="cls-14" x="24" y="18" width="920" height="8"/><rect class="cls-14" x="24" y="5" width="920" height="8"/><rect class="cls-15" x="24" y="77" width="3" height="147"/><rect class="cls-15" x="91" y="77" width="3" height="147"/><rect class="cls-15" x="158" y="77" width="3" height="147"/><rect class="cls-15" x="225" y="77" width="3" height="147"/><rect class="cls-15" x="292" y="77" width="3" height="147"/><rect class="cls-15" x="359" y="77" width="3" height="147"/><rect class="cls-15" x="426" y="77" width="3" height="147"/><rect class="cls-15" x="493" y="77" width="3" height="147"/><rect class="cls-15" x="560" y="77" width="3" height="147"/><rect class="cls-15" x="627" y="77" width="3" height="147"/><rect class="cls-15" x="694" y="77" width="3" height="147"/><rect class="cls-15" x="761" y="77" width="3" height="147"/><rect class="cls-15" x="828" y="77" width="3" height="147"/><rect class="cls-15" x="895" y="77" width="3" height="147"/><path class="cls-16" d="M1236,466l-216-1,216,1-24-98,9-25s-63-11-201-3V465" transform="translate(-76 -309)"/><polygon class="cls-17" points="1134 201 944 201 944 168 1133 168 1134 201"/><polygon class="cls-18" points="1165 293 1137 293 1132 157 1160 157 1165 293"/><path class="cls-19" d="M1043,637s8.92-67.56,75.46-70.78c0,0,72.54-1.22,79.54,72.78h6s-2-73-86-79c0,0-70-.61-82,76.7Z" transform="translate(-76 -309)"/><rect class="cls-20" x="952" y="57" width="56" height="99" rx="9.67"/><path class="cls-21" d="M1216.83,466.5l-21.66-1a9.67,9.67,0,0,1-9.67-9.67V376.17a9.67,9.67,0,0,1,9.67-9.67h2.66a9.67,9.67,0,0,1,9.67,9.67l19,80.66A9.67,9.67,0,0,1,1216.83,466.5Z" transform="translate(-76 -309)"/><rect class="cls-22" x="1015.5" y="57.5" width="86" height="99" rx="9.67"/><rect class="cls-14" x="23.5" y="5.5" width="14.15" height="72"/><rect class="cls-14" x="204.77" y="6" width="14.15" height="72"/><rect class="cls-14" x="386.04" y="6.5" width="14.15" height="72"/><rect class="cls-14" x="567.31" y="7" width="14.15" height="72"/><rect class="cls-14" x="748.58" y="7.5" width="14.15" height="72"/><rect class="cls-14" x="929.85" y="8" width="14.15" height="72"/><polygon class="cls-23" points="964.5 168 953 184 964.5 201 971.25 201 961 184 971.25 168 964.5 168"/><polygon class="cls-24" points="971 168 977.13 168 970 184 978.5 201 971 201 961 184 971 168"/><polygon class="cls-25" points="977 168 983 168 975 184 984.44 201 978 201 968 184 977 168"/><rect class="cls-25" x="981" y="199" width="153" height="1"/><path class="cls-26" d="M1212.26,639.42,1212,602h29s2,35.84-6,37.42Z" transform="translate(-76 -309)"/><polygon class="cls-27" points="1164.75 301.25 1142 301 1142 304 1164.75 304 1164.75 301.25"/><polygon class="cls-27" points="1164.75 308.5 1142 308 1142 311 1165 311.71 1164.75 308.5"/><polygon class="cls-27" points="1164.25 317 1142 317 1142 320 1164 321 1164.25 317"/><path class="cls-28" d="M1239.37,557.67l1,26.51S1227,586,1227,581V564S1224.74,557.33,1239.37,557.67Z" transform="translate(-76 -309)"/><polygon class="cls-29" points="483.5 265.5 180.5 265.5 148.5 312.5 138.5 312.5 174.5 259 488.5 259 483.5 265.5"/><polygon class="cls-30" points="42 259 24 308 39 308 56 259 42 259"/><path class="cls-30" d="M94.29,618.83l-2.79,7.28A2.85,2.85,0,0,0,94.16,630h13a2.87,2.87,0,0,0,2.6-1.66L115,617H97A2.87,2.87,0,0,0,94.29,618.83Z" transform="translate(-76 -309)"/><path class="cls-31" d="M1030,339.45s112.65-5.45,166.31.55L1187,309l-143,2Z" transform="translate(-76 -309)"/></svg>