<svg width="65" height="62" viewBox="0 0 65 62" fill="none" xmlns="http://www.w3.org/2000/svg">
<g clip-path="url(#clip0_136_44154)">
<path d="M34.0451 48.2181L29.1918 54.3645L23.4756 51.0823L30.6153 44.0671L34.0451 48.2181Z" fill="url(#paint0_linear_136_44154)"/>
<path d="M10.5694 50.0203L5.71614 56.1665L0 52.8842L7.13971 45.8691L10.5694 50.0203Z" fill="url(#paint1_linear_136_44154)"/>
<path d="M49.4921 52.8523L44.6388 58.9985L38.9226 55.7163L46.0624 48.701L49.4921 52.8523Z" fill="url(#paint2_linear_136_44154)"/>
<path d="M35.053 40.7393C35.053 40.7393 33.4075 39.7853 31.4923 38.7768L32.9451 38.3249L36.4438 40.2181C36.0541 40.3634 35.6969 40.5013 35.3815 40.6294L35.053 40.7393M30.5731 38.3001C29.6556 37.8318 28.7263 37.3826 27.9255 37.0439L30.6442 36.1995L30.6542 37.0852L32.0525 37.8418L30.5731 38.3001" fill="url(#paint3_linear_136_44154)"/>
<path d="M35.2029 57.6558L28.1133 53.8193L27.9248 37.1046L27.9253 37.0439L30.4322 38.3437L30.4316 38.3439L30.431 38.3434V38.3439L30.4296 38.3442L30.431 38.3444L30.4305 38.4038L30.5445 40.4001L30.5622 40.3704L30.6393 40.613L30.7145 40.4727L30.7715 40.6798L30.8666 40.5704L30.9351 41.0536L31.0612 40.7722L31.1467 40.9897L31.2506 40.8765L31.3349 41.077L31.4248 40.8693L31.4949 41.1449L31.3568 38.8786L31.3572 38.8236L31.3513 38.8206L31.3518 38.8205L35.0528 40.7393L35.0938 41.4416C35.0717 43.0724 34.9438 53.2883 35.1385 57.5017L35.0976 41.5066L35.1373 42.1853L35.2029 57.6558" fill="url(#paint4_linear_136_44154)"/>
<path d="M35.2031 57.6558L35.1375 42.1853L35.0978 41.5066L35.0971 41.2205C35.0971 41.2205 35.096 41.2976 35.094 41.4416L35.053 40.7393L35.3815 40.6294C35.345 40.6442 35.3088 40.6588 35.2734 40.6735L36.5158 40.257L37.7439 40.9216L45.1697 38.1252L45.1977 40.6159L42.7113 41.3882L42.7108 41.449L42.861 54.772L35.2031 57.6558" fill="url(#paint5_linear_136_44154)"/>
<path d="M31.3574 38.8237L31.3514 38.8207L31.3499 38.8209L30.4312 38.3445L30.4307 38.404L30.5446 40.4002L30.5624 40.3705L30.6394 40.6132L30.7146 40.4728L30.7717 40.6799L30.8667 40.5705L30.9352 41.0538L31.0613 40.7724L31.1469 40.9898L31.2507 40.8766L31.335 41.0771L31.4249 40.8694L31.495 41.145L31.357 38.8787L31.3574 38.8237" fill="#BD793D"/>
<path d="M42.4233 34.6292L30.4317 38.3439L30.4311 38.3434V38.3439L30.4297 38.3442L30.4311 38.3444L31.3498 38.8208L31.3514 38.8206L43.5836 35.0153L42.4233 34.6292" fill="#CC8D46"/>
<path d="M35.0528 40.7393L31.3518 38.8205L31.4921 38.7768C33.4073 39.7853 35.0528 40.7393 35.0528 40.7393Z" fill="url(#paint6_linear_136_44154)"/>
<path d="M30.4324 38.3438L27.9255 37.0439C28.7263 37.3826 29.6556 37.8319 30.5731 38.3001L30.4324 38.3438Z" fill="url(#paint7_linear_136_44154)"/>
<path d="M31.352 38.8206L30.4324 38.3438L30.573 38.3002C30.8825 38.458 31.1907 38.6182 31.4922 38.7769L31.352 38.8206Z" fill="#F2DEC8"/>
<path d="M35.3813 40.6294C35.6967 40.5013 36.0539 40.3635 36.4436 40.2181L36.5069 40.2524L35.3813 40.6294" fill="url(#paint8_linear_136_44154)"/>
<path d="M35.2734 40.6736C35.3088 40.6589 35.345 40.6443 35.3815 40.6295L36.5071 40.2525L36.5158 40.2571L35.2734 40.6736" fill="url(#paint9_linear_136_44154)"/>
<path d="M35.1386 57.502C34.9439 53.2885 35.0718 43.0726 35.0939 41.4419L35.0977 41.5068L35.1386 57.502Z" fill="url(#paint10_linear_136_44154)"/>
<path d="M35.0979 41.5066L35.094 41.4416C35.096 41.2976 35.0972 41.2205 35.0972 41.2205L35.0979 41.5066Z" fill="url(#paint11_linear_136_44154)"/>
<path d="M37.5937 24.0054C37.5937 24.0054 37.0645 23.6986 36.2571 23.249L46.6321 19.342L46.6281 18.453L50.368 19.728L50.0814 19.8239C48.8783 20.1939 41.1629 22.5796 37.9192 23.8963L37.5937 24.0054" fill="url(#paint12_linear_136_44154)"/>
<path d="M37.7439 40.9216L36.5158 40.2571L36.5071 40.2524L36.4437 40.2181L32.9451 38.3249L32.0524 37.8419L30.6542 37.0852L30.6442 36.1995L30.4868 22.2592L33.0853 23.6653V23.6661L33.0857 23.6654L33.1177 23.6828L33.1803 23.8787L33.2474 23.753L33.2612 23.7605L33.3124 23.9457L33.4056 23.8386L33.408 23.84L33.4759 24.3195L33.6021 24.0381L33.6875 24.2556L33.7914 24.1424L33.8758 24.3428L33.9655 24.1352L34.0356 24.4109L34.0162 24.0927L36.1862 23.2756L37.5937 24.0053L37.6347 24.7083C37.6126 26.3412 37.4847 36.5548 37.6794 40.7676L37.6385 24.7736L37.6782 25.4512L37.7439 40.9216" fill="url(#paint13_linear_136_44154)"/>
<path d="M37.7438 40.9216L37.678 25.4512L37.6383 24.7736L37.6377 24.4865C37.6377 24.4865 37.6365 24.5638 37.6345 24.7083L37.5935 24.0053L37.919 23.8962C37.8834 23.9107 37.8483 23.925 37.8138 23.9394L50.2401 19.7751C50.2401 19.7751 50.1848 19.792 50.0812 19.8238L50.3678 19.7279L50.3676 19.7882L50.3841 23.375L45.0231 25.0402L45.0226 25.101L45.1695 38.1253L37.7438 40.9216" fill="url(#paint14_linear_136_44154)"/>
<path d="M33.8981 22.0897L33.892 22.0869L33.8905 22.087L32.9718 21.6106L32.9712 21.6699L33.0853 23.6663L33.1029 23.6367L33.1802 23.8789L33.2552 23.7387L33.3123 23.9459L33.4074 23.8366L33.4759 24.3197L33.6021 24.0383L33.6874 24.2558L33.7914 24.1425L33.8758 24.343L33.9655 24.1354L34.0355 24.4111L33.8978 22.1448L33.8981 22.0897" fill="#BD793D"/>
<path d="M44.964 17.8951L32.9724 21.6097L32.9719 21.6092V21.6097L32.9705 21.6102L32.9719 21.6105L33.8906 22.0869L33.892 22.0867L46.1244 18.2815L44.964 17.8951" fill="#CC8D46"/>
<path d="M37.5935 24.0054L36.186 23.2757L36.2569 23.249C37.0643 23.6986 37.5935 24.0054 37.5935 24.0054Z" fill="url(#paint15_linear_136_44154)"/>
<path d="M37.9192 23.8962C41.1629 22.5796 48.8783 20.1939 50.0814 19.8239L37.9192 23.8962Z" fill="url(#paint16_linear_136_44154)"/>
<path d="M37.814 23.9395C37.8484 23.9251 37.8835 23.9108 37.9191 23.8963L50.0813 19.8239C50.1849 19.7921 50.2403 19.7751 50.2403 19.7751L37.814 23.9395" fill="url(#paint17_linear_136_44154)"/>
<path d="M37.6793 40.7676C37.4846 36.5548 37.6126 26.3412 37.6346 24.7083L37.6385 24.7736L37.6793 40.7676Z" fill="url(#paint18_linear_136_44154)"/>
<path d="M37.6384 24.7737L37.6345 24.7084C37.6365 24.5639 37.6378 24.4866 37.6378 24.4866L37.6384 24.7737" fill="url(#paint19_linear_136_44154)"/>
<path d="M49.8385 45.0837C49.8385 45.0837 48.193 44.1296 46.2779 43.1213L47.1326 42.8554L50.6754 44.7725C50.4955 44.8421 50.3246 44.9097 50.165 44.9745L49.8385 45.0837M45.3586 42.6444C44.4411 42.1762 43.5119 41.7269 42.7112 41.3884L45.1976 40.616L45.2111 41.8156L46.2388 42.3718L45.3586 42.6444" fill="url(#paint20_linear_136_44154)"/>
<path d="M49.9888 62L42.8992 58.1636L42.861 54.7721L42.7107 41.4491L42.7112 41.3883L45.2179 42.688H45.2175L45.2168 42.6876V42.688L45.2156 42.6885L45.2168 42.6888L45.2163 42.7481L45.3304 44.7445L45.348 44.7148L45.4252 44.9571L45.5002 44.8169L45.5574 45.0241L45.6526 44.9148L45.721 45.3979L45.8472 45.1165L45.9326 45.3341L46.0365 45.2207L46.1208 45.4212L46.2107 45.2136L46.2807 45.4893L46.1428 43.223L46.1432 43.168L46.1371 43.165L46.1377 43.1649L49.8386 45.0837L49.8798 45.7877C49.8578 47.4236 49.7298 57.634 49.9244 61.846L49.8837 45.8531L49.9232 46.5295L49.9888 62Z" fill="url(#paint21_linear_136_44154)"/>
<path d="M49.9889 62L49.9233 46.5295L49.8837 45.8531L49.8829 45.5649C49.8829 45.5649 49.8819 45.6425 49.8799 45.7877L49.8386 45.0837L50.1651 44.9744C50.1292 44.9889 50.0938 45.0034 50.0591 45.0177L50.7196 44.7964L52.301 45.652L62.617 41.7673L62.6881 57.2179L49.9889 62Z" fill="url(#paint22_linear_136_44154)"/>
<path d="M46.1433 43.168L46.1371 43.165L46.1356 43.1652L45.2168 42.6887L45.2163 42.748L45.3304 44.7444L45.348 44.7148L45.4252 44.9571L45.5003 44.8169L45.5575 45.024L45.6526 44.9148L45.721 45.3978L45.8472 45.1164L45.9327 45.3341L46.0365 45.2207L46.1208 45.4212L46.2107 45.2135L46.2808 45.4893L46.1429 43.2229L46.1433 43.168" fill="#BD793D"/>
<path d="M57.2091 38.9735L45.2174 42.688L45.2168 42.6877V42.688L45.2156 42.6885L45.2168 42.6889L46.1356 43.1653L46.137 43.1651L58.3694 39.3598L57.2091 38.9735" fill="#CC8D46"/>
<path d="M49.8386 45.0837L46.1377 43.1649L46.278 43.1213C48.193 44.1296 49.8386 45.0837 49.8386 45.0837" fill="url(#paint23_linear_136_44154)"/>
<path d="M45.2178 42.688L42.7112 41.3883C43.5119 41.7268 44.4411 42.1761 45.3586 42.6444L45.2178 42.688Z" fill="url(#paint24_linear_136_44154)"/>
<path d="M46.1376 43.1648L45.2178 42.6879L45.3586 42.6443C45.6683 42.8023 45.9762 42.9623 46.2779 43.1212L46.1376 43.1648Z" fill="#F2DEC8"/>
<path d="M50.165 44.9744C50.3246 44.9096 50.4955 44.842 50.6755 44.7724L50.7109 44.7915L50.165 44.9744Z" fill="url(#paint25_linear_136_44154)"/>
<path d="M50.0591 45.0178C50.0938 45.0035 50.1292 44.989 50.165 44.9745L50.7109 44.7917L50.7196 44.7965L50.0591 45.0178" fill="url(#paint26_linear_136_44154)"/>
<path d="M49.9243 61.8459C49.7298 57.634 49.8577 47.4236 49.8798 45.7877L49.8836 45.8531L49.9243 61.8459Z" fill="url(#paint27_linear_136_44154)"/>
<path d="M49.8838 45.853L49.8799 45.7876C49.8819 45.6424 49.883 45.5648 49.883 45.5648L49.8838 45.853Z" fill="url(#paint28_linear_136_44154)"/>
<path d="M52.1507 28.7356C52.1507 28.7356 50.5054 27.7816 48.5901 26.7732L60.6815 23.0117L59.5212 22.6253L47.6706 26.2963C46.7531 25.828 45.8239 25.3789 45.0232 25.0402L50.3842 23.375L56.3301 21.528L64.9249 24.4584L64.6436 24.5526C63.4581 24.9171 55.7248 27.3082 52.4763 28.6267L52.1507 28.7356" fill="url(#paint29_linear_136_44154)"/>
<path d="M52.301 45.6521L50.7196 44.7965L50.7109 44.7917L50.6755 44.7725L47.1327 42.8554L46.2389 42.3718L45.2112 41.8157L45.1977 40.6161L45.1697 38.1254L45.0227 25.1012L45.0232 25.0404L47.5299 26.3401L47.5295 26.3402L47.5289 26.3397V26.3402L47.5275 26.3407L47.5289 26.3411L47.5284 26.4002L47.6424 28.3966L47.6601 28.3671L47.7373 28.6096L47.8124 28.469L47.8694 28.6763L47.9646 28.5669L48.0331 29.05L48.1592 28.7687L48.2446 28.9862L48.3485 28.873L48.4329 29.0733L48.5227 28.8658L48.5929 29.1414L48.4549 26.8753L48.4552 26.82L48.4492 26.8171L48.4497 26.817L52.1507 28.7358L52.1919 29.4382C52.1698 31.0689 52.0417 41.2848 52.2366 45.4983L52.1957 29.5031L52.2354 30.1817L52.301 45.6521" fill="url(#paint30_linear_136_44154)"/>
<path d="M52.2967 45.6646V44.6155H52.2835V41.5182H52.2704V38.421H52.2572V35.3237H52.2441V32.2265H52.2309V30.1117H52.2178V29.8952H52.2046V29.6621H52.1915V29.4456H52.1784V29.2125H52.1652V28.996H52.1521V28.7629H52.1389V28.7296H52.1652V28.7129H52.2178V28.6963H52.2572V28.6796H52.3098V28.663H52.3624V28.6463H52.415V28.6297H52.4676V28.613H52.5333V28.5964H52.5859V28.5797H52.6385V28.5631H52.6779V28.5464H52.7305V28.5298H52.7831V28.5131H52.8357V28.4964H52.8883V28.4798H52.9277V28.4631H52.9803V28.4465H53.0329V28.4298H53.0855V28.4132H53.1249V28.3965H53.1775V28.3799H53.2301V28.3632H53.2827V28.3466H53.3352V28.3299H53.3747V28.3133H53.4273V28.2966H53.4799V28.28H53.5324V28.2633H53.5719V28.2467H53.6245V28.23H53.6771V28.2134H53.7296V28.1967H53.7822V28.1801H53.8217V28.1634H53.8742V28.1468H53.9268V28.1301H53.9794V28.1135H54.0189V28.0968H54.0714V28.0802H54.124V28.0635H54.1766V28.0468H54.2292V28.0302H54.2686V28.0135H54.3212V27.9969H54.3738V27.9802H54.4264V27.9636H54.4658V27.9469H54.5184V27.9303H54.571V27.9136H54.6236V27.897H54.6762V27.8803H54.7156V27.8637H54.7682V27.847H54.8208V27.8304H54.8734V27.8137H54.9128V27.7971H54.9654V27.7804H55.018V27.7638H55.0706V27.7471H55.1232V27.7305H55.1626V27.7138H55.2152V27.6972H55.2678V27.6805H55.3204V27.6639H55.3598V27.6472H55.4124V27.6306H55.465V27.6139H55.5176V27.5972H55.5701V27.5806H55.6096V27.5639H55.6622V27.5473H55.7148V27.5306H55.7673V27.514H55.8199V27.4973H55.8594V27.4807H55.9119V27.464H55.9645V27.4474H56.0171V27.4307H56.0566V27.4141H56.1091V27.3974H56.1617V27.3808H56.2143V27.3641H56.2669V27.3475H56.3063V27.3308H56.3589V27.3142H56.4115V27.2975H56.4641V27.2809H56.5035V27.2642H56.5561V27.2476H56.6087V27.2309H56.6613V27.2143H56.7139V27.1976H56.7533V27.1809H56.8059V27.1643H56.8585V27.1476H56.9111V27.131H56.9505V27.1143H57.0031V27.0977H57.0557V27.081H57.1083V27.0644H57.1609V27.0477H57.2003V27.0311H57.2529V27.0144H57.3055V26.9978H57.3581V26.9811H57.3975V26.9645H57.4501V26.9478H57.5027V26.9312H57.5553V26.9145H57.6078V26.8979H57.6473V26.8812H57.6999V26.8646H57.7525V26.8479H57.805V26.8313H57.8445V26.8146H57.8971V26.798H57.9496V26.7813H58.0022V26.7647H58.0548V26.748H58.0943V26.7313H58.1468V26.7147H58.1994V26.698H58.252V26.6814H58.2915V26.6647H58.344V26.6481H58.3966V26.6314H58.4492V26.6148H58.5018V26.5981H58.5412V26.5815H58.5938V26.5648H58.6464V26.5482H58.699V26.5315H58.7516V26.5149H58.791V26.4982H58.8436V26.4816H58.8962V26.4649H58.9488V26.4483H58.9882V26.4316H59.0408V26.415H59.0934V26.3983H59.146V26.3817H59.1986V26.365H59.238V26.3484H59.2906V26.3317H59.3432V26.3151H59.3958V26.2984H59.4352V26.2817H59.4878V26.2651H59.5404V26.2484H59.593V26.2318H59.6455V26.2151H59.685V26.1985H59.7376V26.1818H59.7902V26.1652H59.8427V26.1485H59.8822V26.1319H59.9348V26.1152H59.9873V26.0986H60.0399V26.0819H60.0925V26.0653H60.132V26.0486H60.1845V26.032H60.2371V26.0153H60.2897V25.9987H60.3292V25.982H60.3817V25.9654H60.4343V25.9487H60.4869V25.9321H60.5395V25.9154H60.5789V25.8988H60.6315V25.8821H60.6841V25.8654H60.7367V25.8488H60.7761V25.8321H60.8287V25.8155H60.8813V25.7988H60.9339V25.7822H60.9865V25.7655H61.0259V25.7489H61.0785V25.7322H61.1311V25.7156H61.1837V25.6989H61.2231V25.6823H61.2757V25.6656H61.3283V25.649H61.3809V25.6323H61.4335V25.6157H61.4729V25.599H61.5255V25.5824H61.5781V25.5657H61.6307V25.5491H61.6832V25.5324H61.7227V25.5158H61.7753V25.4991H61.8279V25.4825H61.8804V25.4658H61.9199V25.4492H61.9725V25.4325H62.025V25.4158H62.0776V25.3992H62.1302V25.3825H62.1697V25.3659H62.2222V25.3492H62.2748V25.3326H62.3274V25.3159H62.3669V25.2993H62.4194V25.2826H62.472V25.266H62.5246V25.2493H62.5772V25.2327H62.6166V25.216H62.6692V25.1994H62.7218V25.1827H62.7744V25.1661H62.8138V25.1494H62.8664V25.1328H62.919V25.1161H62.9716V25.0995H63.0242V25.0828H63.0636V25.0662H63.1162V25.0495H63.1688V25.0329H63.2214V25.0162H63.2608V24.9996H63.3134V24.9829H63.366V24.9662H63.4186V24.9496H63.4712V24.9329H63.5106V24.9163H63.5632V24.8996H63.6158V24.883H63.6684V24.8663H63.7078V24.8497H63.7604V24.833H63.813V24.8164H63.8656V24.7997H63.9181V24.7831H63.9576V24.7664H64.0102V24.7498H64.0627V24.7331H64.1153V24.7165H64.1548V24.6998H64.2074V24.6832H64.2599V24.6665H64.3125V24.6499H64.3651V24.6332H64.4046V24.6166H64.4571V24.5999H64.5097V24.5833H64.5623V24.5666H64.6149V24.55H64.6412V24.5333H64.6938V24.5166H64.7464V24.5H64.7989V24.4833H64.8384V24.4667H64.891V24.45H64.9304V25.7156H64.9436V28.5631H64.9567V31.4272H64.9699V34.2747H64.983V37.1388H64.9961V40.8855H64.9699V40.9021H64.9173V40.9188H64.8778V40.9354H64.8384V40.9521H64.7858V40.9687H64.7464V40.9854H64.7069V41.002H64.6543V41.0187H64.6149V41.0353H64.5623V41.052H64.5229V41.0686H64.4834V41.0853H64.4308V41.1019H64.3914V41.1186H64.352V41.1352H64.2994V41.1519H64.2599V41.1685H64.2074V41.1852H64.1679V41.2018H64.1285V41.2185H64.0759V41.2351H64.0365V41.2518H63.997V41.2685H63.9444V41.2851H63.905V41.3018H63.8656V41.3184H63.813V41.3351H63.7735V41.3517H63.7209V41.3684H63.6815V41.385H63.6421V41.4017H63.5895V41.4183H63.55V41.435H63.5106V41.4516H63.458V41.4683H63.4186V41.4849H63.3791V41.5016H63.3265V41.5182H63.2871V41.5349H63.2345V41.5515H63.1951V41.5682H63.1556V41.5848H63.1031V41.6015H63.0636V41.6181H63.0242V41.6348H62.9716V41.6514H62.9322V41.6681H62.8927V41.6847H62.8401V41.7014H62.8007V41.7181H62.7481V41.7347H62.7087V41.7514H62.6692V41.768H62.6166V41.7847H62.5772V41.8013H62.5378V41.818H62.4852V41.8346H62.4457V41.8513H62.4063V41.8679H62.3537V41.8846H62.3143V41.9012H62.2617V41.9179H62.2222V41.9345H62.1828V41.9512H62.1302V41.9678H62.0908V41.9845H62.0513V42.0011H61.9988V42.0178H61.9593V42.0344H61.9199V42.0511H61.8673V42.0677H61.8279V42.0844H61.7753V42.101H61.7358V42.1177H61.6964V42.1343H61.6438V42.151H61.6044V42.1677H61.5649V42.1843H61.5123V42.201H61.4729V42.2176H61.4335V42.2343H61.3809V42.2509H61.3414V42.2676H61.2888V42.2842H61.2494V42.3009H61.21V42.3175H61.1574V42.3342H61.1179V42.3508H61.0785V42.3675H61.0259V42.3841H60.9865V42.4008H60.947V42.4174H60.8945V42.4341H60.855V42.4507H60.8024V42.4674H60.763V42.484H60.7235V42.5007H60.671V42.5173H60.6315V42.534H60.5921V42.5506H60.5395V42.5673H60.5001V42.584H60.4606V42.6006H60.408V42.6173H60.3686V42.6339H60.316V42.6506H60.2766V42.6672H60.2371V42.6839H60.1845V42.7005H60.1451V42.7172H60.1057V42.7338H60.0531V42.7505H60.0136V42.7671H59.9742V42.7838H59.9216V42.8004H59.8822V42.8171H59.8296V42.8337H59.7902V42.8504H59.7507V42.867H59.6981V42.8837H59.6587V42.9003H59.6192V42.917H59.5667V42.9336H59.5272V42.9503H59.4878V42.9669H59.4352V42.9836H59.3958V43.0002H59.3432V43.0169H59.3037V43.0336H59.2643V43.0502H59.2117V43.0669H59.1723V43.0835H59.1328V43.1002H59.0802V43.1168H59.0408V43.1335H59.0014V43.1501H58.9488V43.1668H58.9093V43.1834H58.8568V43.2001H58.8173V43.2167H58.7779V43.2334H58.7253V43.25H58.6858V43.2667H58.6464V43.2833H58.5938V43.3H58.5544V43.3166H58.5149V43.3333H58.4624V43.3499H58.4229V43.3666H58.3703V43.3832H58.3309V43.3999H58.2915V43.4165H58.2389V43.4332H58.1994V43.4498H58.16V43.4665H58.1074V43.4832H58.068V43.4998H58.0285V43.5165H57.9759V43.5331H57.9365V43.5498H57.8839V43.5664H57.8445V43.5831H57.805V43.5997H57.7525V43.6164H57.713V43.633H57.6736V43.6497H57.621V43.6663H57.5815V43.683H57.5421V43.6996H57.4895V43.7163H57.4501V43.7329H57.3975V43.7496H57.3581V43.7662H57.3186V43.7829H57.266V43.7995H57.2266V43.8162H57.1872V43.8328H57.1346V43.8495H57.0951V43.8661H57.0557V43.8828H57.0031V43.8995H56.9637V43.9161H56.9111V43.9328H56.8716V43.9494H56.8322V43.9661H56.7796V43.9827H56.7402V43.9994H56.7007V44.016H56.6481V44.0327H56.6087V44.0493H56.5693V44.066H56.5167V44.0826H56.4772V44.0993H56.4247V44.1159H56.3852V44.1326H56.3458V44.1492H56.2932V44.1659H56.2538V44.1825H56.2143V44.1992H56.1617V44.2158H56.1223V44.2325H56.0829V44.2491H56.0303V44.2658H55.9908V44.2824H55.9382V44.2991H55.8988V44.3157H55.8594V44.3324H55.8068V44.3491H55.7673V44.3657H55.7279V44.3824H55.6753V44.399H55.6359V44.4157H55.5964V44.4323H55.5438V44.449H55.5044V44.4656H55.4518V44.4823H55.4124V44.4989H55.3729V44.5156H55.3204V44.5322H55.2809V44.5489H55.2415V44.5655H55.1889V44.5822H55.1495V44.5988H55.11V44.6155H55.0574V44.6321H55.018V44.6488H54.9654V44.6654H54.926V44.6821H54.8865V44.6987H54.8339V44.7154H54.7945V44.732H54.7551V44.7487H54.7025V44.7653H54.663V44.782H54.6236V44.7987H54.571V44.8153H54.5316V44.832H54.479V44.8486H54.4395V44.8653H54.4001V44.8819H54.3475V44.8986H54.3081V44.9152H54.2686V44.9319H54.2161V44.9485H54.1766V44.9652H54.1372V44.9818H54.0846V44.9985H54.0452V45.0151H53.9926V45.0318H53.9531V45.0484H53.9137V45.0651H53.8611V45.0817H53.8217V45.0984H53.7822V45.115H53.7296V45.1317H53.6902V45.1483H53.6508V45.165H53.5982V45.1816H53.5587V45.1983H53.5061V45.2149H53.4667V45.2316H53.4273V45.2483H53.3747V45.2649H53.3352V45.2816H53.2958V45.2982H53.2432V45.3149H53.2038V45.3315H53.1643V45.3482H53.1118V45.3648H53.0723V45.3815H53.0197V45.3981H52.9803V45.4148H52.9408V45.4314H52.8883V45.4481H52.8488V45.4647H52.8094V45.4814H52.7568V45.498H52.7174V45.5147H52.6779V45.5313H52.6253V45.548H52.5859V45.5646H52.5333V45.5813H52.4939V45.5979H52.4544V45.6146H52.4018V45.6312H52.3624V45.6479H52.323V45.6646" fill="url(#paint31_linear_136_44154)"/>
<path d="M48.4551 26.8199L48.4491 26.8171L48.4475 26.8173L47.5288 26.341L47.5283 26.4001L47.6423 28.3965L47.66 28.367L47.7372 28.6095L47.8123 28.469L47.8693 28.6763L47.9645 28.5669L48.033 29.0499L48.1591 28.7687L48.2445 28.9862L48.3484 28.8729L48.4328 29.0733L48.5226 28.8658L48.5928 29.1414L48.4548 26.8752L48.4551 26.8199" fill="#BD793D"/>
<path d="M59.5211 22.6254L47.5293 26.3401L47.5288 26.3396V26.3401L47.5273 26.3406L47.5288 26.3409L48.4475 26.8171L48.449 26.817L60.6814 23.0117L59.5211 22.6254Z" fill="#CC8D46"/>
<path d="M52.1507 28.7356L48.4497 26.8168L48.5901 26.7732C50.5054 27.7816 52.1507 28.7356 52.1507 28.7356Z" fill="url(#paint32_linear_136_44154)"/>
<path d="M47.5298 26.3398L45.0232 25.0402C45.8239 25.3789 46.7531 25.828 47.6706 26.2962L47.5298 26.3398" fill="url(#paint33_linear_136_44154)"/>
<path d="M48.4496 26.8169L47.5298 26.34L47.6706 26.2964C47.9802 26.4542 48.2885 26.6144 48.59 26.7733L48.4496 26.8169" fill="#F2DEC8"/>
<path d="M52.4763 28.6267C55.7248 27.3082 63.4581 24.9172 64.6436 24.5527L52.4763 28.6267" fill="url(#paint34_linear_136_44154)"/>
<path d="M52.3711 28.6697C52.4057 28.6555 52.4408 28.6412 52.4764 28.6267L64.6437 24.5527C64.7439 24.5217 64.7975 24.5054 64.7975 24.5054L52.3711 28.6697" fill="url(#paint35_linear_136_44154)"/>
<path d="M52.2365 45.4983C52.0417 41.2848 52.1697 31.0689 52.1918 29.4382L52.1956 29.5031L52.2365 45.4983" fill="url(#paint36_linear_136_44154)"/>
<path d="M52.1958 29.5029L52.1919 29.438C52.1939 29.2938 52.195 29.2169 52.195 29.2169L52.1958 29.5029Z" fill="url(#paint37_linear_136_44154)"/>
<path d="M16.6116 43.2083L16.288 43.1C13.0462 41.7838 5.33025 39.3978 4.12457 39.027L3.8374 38.9309L12.4323 36.0006L23.7393 39.5127C22.9385 39.8514 22.0092 40.3007 21.0917 40.7689L9.24126 37.098L8.08093 37.4842L20.1725 41.2457C18.2572 42.2541 16.6116 43.2083 16.6116 43.2083" fill="url(#paint38_linear_136_44154)"/>
<path d="M16.4617 60.1245L16.5273 44.6541L16.567 43.9762L16.5261 59.9706C16.7208 55.7576 16.5929 45.5438 16.5708 43.9109L16.6118 43.2082L20.3129 41.2892L20.3134 41.2894L20.3073 41.2925L20.3078 41.3477L20.1698 43.6136L20.24 43.3382L20.3298 43.5457L20.4141 43.3454L20.518 43.4584L20.6033 43.241L20.7295 43.5224L20.798 43.0393L20.8932 43.1486L20.9503 42.9414L21.0253 43.0818L21.1025 42.8393L21.1201 42.8688L21.2342 40.8724L21.2337 40.8135L21.235 40.8131L21.2337 40.8126V40.812L21.2332 40.8126L21.2325 40.8125L23.7394 39.5126L23.7399 39.5734L23.5513 56.2881L16.4617 60.1245" fill="url(#paint39_linear_136_44154)"/>
<path d="M16.4615 60.1245L3.76245 55.3424L3.83758 38.9909L3.83743 38.9308L4.1246 39.0269C4.0205 38.9949 3.96499 38.9779 3.96499 38.9779L16.3913 43.1421C16.3574 43.1281 16.323 43.1141 16.288 43.0999L16.6117 43.2082L16.5707 43.9109C16.5687 43.7665 16.5675 43.6892 16.5675 43.6892L16.5668 43.9762L16.5271 44.6541L16.4615 60.1245" fill="url(#paint40_linear_136_44154)"/>
<path d="M20.3072 41.2924L20.3134 41.2893L20.3149 41.2896L21.2336 40.8133L21.2341 40.8723L21.12 42.8687L21.1024 42.8392L21.0252 43.0817L20.9502 42.9413L20.8931 43.1484L20.7979 43.0392L20.7295 43.5223L20.6032 43.2409L20.5179 43.4583L20.4141 43.3453L20.3297 43.5456L20.2399 43.3381L20.1697 43.6135L20.3077 41.3475L20.3072 41.2924Z" fill="#BD793D"/>
<path d="M9.24139 37.098L21.2331 40.8127L21.2337 40.8121V40.8127L21.235 40.8132L21.2337 40.8136L20.315 41.2898L20.3134 41.2895L8.08105 37.4842L9.24139 37.098" fill="#CC8D46"/>
<path d="M16.6118 43.2083C16.6118 43.2083 18.2574 42.2541 20.1727 41.2457L20.3129 41.2893L16.6118 43.2083Z" fill="url(#paint41_linear_136_44154)"/>
<path d="M21.2325 40.8125L21.0918 40.7689C22.0093 40.3006 22.9386 39.8514 23.7394 39.5127L21.2325 40.8125" fill="url(#paint42_linear_136_44154)"/>
<path d="M20.3129 41.2893L20.1726 41.2457C20.4742 41.087 20.7823 40.9268 21.0918 40.7689L21.2325 40.8126L20.3129 41.2893Z" fill="#F2DEC8"/>
<path d="M16.2882 43.0999L4.12476 39.0268C5.33043 39.3976 13.0464 41.7837 16.2882 43.0999Z" fill="url(#paint43_linear_136_44154)"/>
<path d="M16.3914 43.1421L3.96509 38.9779C3.96509 38.9779 4.02061 38.9949 4.1247 39.0269L16.2881 43.1C16.3231 43.1141 16.3575 43.1281 16.3914 43.1421Z" fill="url(#paint44_linear_136_44154)"/>
<path d="M16.5261 59.9707L16.567 43.9762L16.5708 43.911C16.5929 45.5438 16.7208 55.7576 16.5261 59.9707" fill="url(#paint45_linear_136_44154)"/>
<path d="M16.5669 43.9761L16.5676 43.6892C16.5676 43.6892 16.5688 43.7664 16.5708 43.9108L16.5669 43.9761Z" fill="url(#paint46_linear_136_44154)"/>
<path d="M33.7602 7.21533V7.19868H33.7339V7.18203H33.7076V7.16538H33.6682V7.14872H33.6419V7.13207H33.6156V7.11542H33.5893V7.09877H33.563V7.08212H33.5235V7.06546H33.4973V7.04881H33.471V7.03216H33.4447V7.01551H33.4184V6.99886H33.3789V6.98221H33.3526V6.96555H33.3263V6.9489H33.3001V6.93225H33.2606V6.9156H33.2343V6.89895H33.208V6.88229H33.1817V6.86564H33.1423V6.84899H33.116V6.83234H33.0897V6.81569H33.0634V6.79903H33.024V6.78238H32.9977V6.76573H32.9714V6.74908H32.9451V6.73243H32.9057V6.71578H32.8794V6.69912H32.8531V6.68247H32.8268V6.66582H32.7873V6.64917H32.761V6.63252H32.7348V6.61586H32.7085V6.59921H32.669V6.58256H32.6427V6.56591H32.6164V6.54926H32.5901V6.5326H32.5507V6.51595H32.5244V6.4993H32.4981V6.48265H32.4718V6.466H32.4324V6.44934H32.4061V6.43269H32.3798V6.41604H32.3404V6.39939H32.3141V6.38274H32.2878V6.36609H32.2615V6.34943H32.222V6.33278H32.1958V6.31613H32.1695V6.29948H32.13V6.28283H32.1037V6.26617H32.0774V6.24952H32.0511V6.23287H32.0117V6.21622H31.9854V6.19957H31.9591V6.18291H31.9197V6.16626H31.8934V6.14961H31.8671V6.13296H31.8277V6.11631H31.8014V6.09966H31.7751V6.083H31.7488V6.06635H31.7093V6.0497H31.683V6.03305H31.6567V6.0164H31.6173V5.99974H31.591V5.98309H31.5647V5.96644H31.5253V5.94979H31.499V5.93314H31.4727V5.91648H31.4333V5.89983H31.407V5.88318H31.3807V5.86653H31.3412V5.84988H31.3149V5.83322H31.2886V5.81657H31.2492V5.79992H31.2229V5.78327H31.1966V5.76662H31.1572V5.74997H31.1309V5.73331H31.1046V5.71666H31.0652V5.70001H31.0389V5.68336H31.0126V5.66671H30.9731V5.65005H30.9468V5.6334H30.9205V5.61675H30.8811V5.6001H30.8548V5.58345H30.8154V5.56679H30.7891V5.55014H30.7628V5.53349H30.7233V5.51684H30.6971V5.50019H30.6708V5.48354H30.6313V5.46688H30.605V5.45023H30.5656V5.43358H30.5393V5.41693H30.513V5.40028H30.4736V5.38362H30.4473V5.36697H30.421V5.35032H30.3815V5.33367H30.3552V5.31702H30.3158V5.30036H30.2895V5.28371H30.2632V5.26706H30.2238V5.25041H30.2106V5.23376H30.2501V5.2171H30.3027V5.20045H30.3552V5.1838H30.4078V5.16715H30.4604V5.1505H30.5262V5.13385H30.5787V5.11719H30.6313V5.10054H30.6839V5.08389H30.7365V5.06724H30.7891V5.05059H30.8417V5.03393H30.8943V5.01728H30.9468V5.00063H30.9994V4.98398H31.052V4.96733H31.1046V4.95067H31.1572V4.93402H31.2098V4.91737H31.2755V4.90072H31.3281V4.88407H31.3807V4.86742H31.4333V4.85076H31.4858V4.83411H31.5384V4.81746H31.591V4.80081H31.6436V4.78416H31.6962V4.7675H31.7488V4.75085H31.8014V4.7342H31.8539V4.71755H31.9065V4.7009H31.9591V4.68424H32.0248V4.66759H32.0774V4.65094H32.13V4.63429H32.1826V4.61764H32.2352V4.60098H32.2878V4.58433H32.3404V4.56768H32.3929V4.55103H32.4455V4.53438H32.4981V4.51773H32.5507V4.50107H32.6033V4.48442H32.6559V4.46777H32.7085V4.45112H32.7742V4.43447H32.8268V4.41781H32.8794V4.40116H32.932V4.38451H32.9845V4.36786H33.0371V4.35121H33.0897V4.33455H33.1423V4.3179H33.1949V4.30125H33.2475V4.2846H33.3001V4.26795H33.3526V4.2513H33.4052V4.23464H33.4578V4.21799H33.5235V4.20134H33.5761V4.18469H33.6287V4.16804H33.6813V4.15138H33.7339V4.13473H33.7865V4.11808H33.8391V4.10143H33.8916V4.08478H33.9442V4.06812H33.9968V4.05147H34.0494V4.03482H34.102V4.01817H34.1546V4.00152H34.2072V3.98486H34.2729V3.96821H34.3255V3.95156H34.3781V3.93491H34.4306V3.91826H34.4832V3.90161H34.5358V3.88495H34.5884V3.8683H34.641V3.85165H34.6936V3.835H34.7462V3.81835H34.7987V3.80169H34.8513V3.78504H34.9039V3.76839H34.9697V3.75174H35.0222V3.73509H35.0748V3.71843H35.1274V3.70178H35.18V3.68513H35.2326V3.66848H35.2852V3.65183H35.3378V3.63518H35.3903V3.61852H35.4429V3.60187H35.4955V3.58522H35.5481V3.56857H35.6007V3.55192H35.6533V3.53526H35.719V3.51861H35.7716V3.50196H35.8242V3.48531H35.8768V3.46866H35.9293V3.452H35.9819V3.43535H36.0345V3.4187H36.0871V3.40205H36.1397V3.3854H36.1923V3.36874H36.2449V3.35209H36.2974V3.33544H36.35V3.31879H36.4026V3.30214H36.4683V3.28549H36.5209V3.26883H36.5735V3.25218H36.6261V3.23553H36.6787V3.21888H36.7313V3.20223H36.7839V3.18557H36.8364V3.16892H36.889V3.15227H36.9416V3.13562H36.9942V3.11897H37.0468V3.10231H37.0994V3.08566H37.152V3.06901H37.2177V3.05236H37.2703V3.03571H37.3229V3.01905H37.3755V3.0024H37.428V2.98575H37.4806V2.9691H37.5332V2.95245H37.5858V2.9358H37.6384V2.91914H37.691V2.90249H37.7436V2.88584H37.7961V2.86919H37.8487V2.85254H37.9013V2.83588H37.967V2.81923H38.0196V2.80258H38.0722V2.78593H38.1248V2.76928H38.1774V2.75262H38.23V2.73597H38.2826V2.71932H38.3351V2.70267H38.3877V2.68602H38.4403V2.66937H38.4929V2.65271H38.5455V2.63606H38.5981V2.61941H38.6507V2.60276H38.7164V2.58611H38.769V2.56945H38.8216V2.5528H38.8741V2.53615H38.9267V2.5195H38.9793V2.50285H39.0319V2.48619H39.0845V2.46954H39.1371V2.45289H39.1897V2.43624H39.2422V2.41959H39.2948V2.40293H39.3474V2.38628H39.4V2.36963H39.4657V2.35298H39.5183V2.33633H39.5709V2.31968H39.6235V2.30302H39.6761V2.28637H39.7287V2.26972H39.7813V2.25307H39.8338V2.23642H39.8864V2.21976H39.939V2.20311H39.9916V2.18646H40.0442V2.16981H40.0968V2.15316H40.1494V2.1365H40.2151V2.11985H40.2677V2.1032H40.3203V2.08655H40.3728V2.0699H40.4254V2.05325H40.478V2.03659H40.5306V2.01994H40.5832V2.00329H40.6358V1.98664H40.6884V1.96999H40.7409V1.95333H40.7935V1.93668H40.8461V1.92003H40.8987V1.90338H40.9644V1.88673H41.017V1.87007H41.0696V1.85342H41.1222V1.83677H41.1748V1.82012H41.2274V1.80347H41.2799V1.78681H41.3325V1.77016H41.3851V1.75351H41.4377V1.73686H41.4903V1.72021H41.5429V1.70356H41.5955V1.6869H41.6612V1.67025H41.7138V1.6536H41.7664V1.63695H41.819V1.6203H41.8715V1.60364H41.9241V1.58699H41.9767V1.57034H42.0293V1.55369H42.0819V1.53704H42.1345V1.52038H42.1871V1.50373H42.2396V1.48708H42.2659V1.47043H42.2133V1.45378H42.1608V1.43713H42.1213V1.42047H42.0687V1.40382H42.0162V1.38717H41.9636V1.37052H41.911V1.35387H41.8715V1.33721H41.819V1.32056H41.7664V1.30391H41.7138V1.28726H41.6612V1.27061H41.6218V1.25395H41.5692V1.2373H41.5166V1.22065H41.464V1.204H41.4114V1.18735H41.372V1.17069H41.3194V1.15404H41.2668V1.13739H41.2142V1.12074H41.1616V1.10409H41.1353V1.12074H41.0828V1.13739H41.0302V1.15404H40.9776V1.17069H40.925V1.18735H40.8724V1.204H40.8198V1.22065H40.7672V1.2373H40.7147V1.25395H40.6489V1.27061H40.5963V1.28726H40.5437V1.30391H40.4912V1.32056H40.4386V1.33721H40.386V1.35387H40.3334V1.37052H40.2808V1.38717H40.2282V1.40382H40.1756V1.42047H40.1231V1.43713H40.0573V1.45378H40.0047V1.47043H39.9522V1.48708H39.8996V1.50373H39.847V1.52038H39.7944V1.53704H39.7418V1.55369H39.6892V1.57034H39.6366V1.58699H39.5841V1.60364H39.5315V1.6203H39.4657V1.63695H39.4132V1.6536H39.3606V1.67025H39.308V1.6869H39.2554V1.70356H39.2028V1.72021H39.1502V1.73686H39.0976V1.75351H39.0451V1.77016H38.9925V1.78681H38.9399V1.80347H38.8873V1.82012H38.8216V1.83677H38.769V1.85342H38.7164V1.87007H38.6638V1.88673H38.6112V1.90338H38.5586V1.92003H38.506V1.93668H38.4535V1.95333H38.4009V1.96999H38.3483V1.98664H38.2957V2.00329H38.23V2.01994H38.1774V2.03659H38.1248V2.05325H38.0722V2.0699H38.0196V2.08655H37.967V2.1032H37.9145V2.11985H37.8619V2.1365H37.8093V2.15316H37.7567V2.16981H37.7041V2.18646H37.6384V2.20311H37.5858V2.21976H37.5332V2.23642H37.4806V2.25307H37.428V2.26972H37.3755V2.28637H37.3229V2.30302H37.2703V2.31968H37.2177V2.33633H37.1651V2.35298H37.1125V2.36963H37.0468V2.38628H36.9942V2.40293H36.9416V2.41959H36.889V2.43624H36.8364V2.45289H36.7839V2.46954H36.7313V2.48619H36.6787V2.50285H36.6261V2.5195H36.5735V2.53615H36.5209V2.5528H36.4683V2.56945H36.4026V2.58611H36.35V2.60276H36.2974V2.61941H36.2449V2.63606H36.1923V2.65271H36.1397V2.66937H36.0871V2.68602H36.0345V2.70267H35.9819V2.71932H35.9293V2.73597H35.8768V2.75262H35.811V2.76928H35.7584V2.78593H35.7059V2.80258H35.6533V2.81923H35.6007V2.83588H35.5481V2.85254H35.4955V2.86919H35.4429V2.88584H35.3903V2.90249H35.3378V2.91914H35.2852V2.9358H35.2194V2.95245H35.1668V2.9691H35.1143V2.98575H35.0617V3.0024H35.0091V3.01905H34.9565V3.03571H34.9039V3.05236H34.8513V3.06901H34.7987V3.08566H34.7462V3.10231H34.6936V3.11897H34.6278V3.13562H34.5753V3.15227H34.5227V3.16892H34.4701V3.18557H34.4175V3.20223H34.3649V3.21888H34.3123V3.23553H34.2597V3.25218H34.2072V3.26883H34.1546V3.28549H34.102V3.30214H34.0363V3.31879H33.9837V3.33544H33.9311V3.35209H33.8785V3.36874H33.8259V3.3854H33.7733V3.40205H33.7207V3.4187H33.6682V3.43535H33.6156V3.452H33.563V3.46866H33.5104V3.48531H33.4578V3.50196H33.3921V3.51861H33.3395V3.53526H33.2869V3.55192H33.2343V3.56857H33.1817V3.58522H33.1291V3.60187H33.0766V3.61852H33.024V3.63518H32.9714V3.65183H32.9188V3.66848H32.8662V3.68513H32.8005V3.70178H32.7479V3.71843H32.6953V3.73509H32.6427V3.75174H32.5901V3.76839H32.5376V3.78504H32.485V3.80169H32.4324V3.81835H32.3798V3.835H32.3272V3.85165H32.2746V3.8683H32.2089V3.88495H32.1563V3.90161H32.1037V3.91826H32.0511V3.93491H31.9986V3.95156H31.946V3.96821H31.8934V3.98486H31.8408V4.00152H31.7882V4.01817H31.7356V4.03482H31.683V4.05147H31.6173V4.06812H31.5647V4.08478H31.5121V4.10143H31.4596V4.11808H31.407V4.13473H31.3544V4.15138H31.3018V4.16804H31.2492V4.18469H31.1966V4.20134H31.144V4.21799H31.0914V4.23464H31.0389V4.2513H30.9731V4.26795H30.9205V4.2846H30.868V4.30125H30.8154V4.3179H30.7628V4.33455H30.7102V4.35121H30.6576V4.36786H30.605V4.38451H30.5524V4.40116H30.4999V4.41781H30.4473V4.43447H30.3815V4.45112H30.329V4.46777H30.2764V4.48442H30.2238V4.50107H30.1712V4.51773H30.1186V4.53438H30.066V4.55103H30.0134V4.56768H29.9609V4.58433H29.9083V4.60098H29.8557V4.61764H29.79V4.63429H29.7374V4.65094H29.6848V4.66759H29.6322V4.68424H29.5796V4.7009H29.527V4.71755H29.4744V4.7342H29.4219V4.75085H29.3693V4.7675H29.3167V4.78416H29.2904V4.7675H29.2641V4.75085H29.2247V4.7342H29.1984V4.71755H29.1589V4.7009H29.1326V4.68424H29.0932V4.66759H29.0669V4.65094H29.0275V4.63429H29.0012V4.61764H28.9617V4.60098H28.9354V4.58433H28.896V4.56768H28.8697V4.55103H28.8303V4.53438H28.804V4.51773H28.7645V4.50107H28.7382V4.48442H28.6988V4.46777H28.6594V4.45112H28.6331V4.43447H28.5936V4.41781H28.5673V4.40116H28.5279V4.38451H28.5016V4.36786H28.4622V4.35121H28.4227V4.33455H28.3964V4.3179H28.357V4.30125H28.3307V4.2846H28.2913V4.26795H28.2518V4.2513H28.2255V4.23464H28.1861V4.21799H28.1598V4.20134H28.1204V4.18469H28.0809V4.16804H28.0546V4.15138H28.0152V4.13473H27.9889V4.11808H27.9494V4.10143H27.91V4.08478H27.8837V4.06812H27.8443V4.05147H27.8048V4.03482H27.7654V4.01817H27.7391V4.00152H27.6997V3.98486H27.6602V3.96821H27.6339V3.95156H27.5945V3.93491H27.5551V3.91826H27.5156V3.90161H27.4893V3.88495H27.4499V3.8683H27.4104V3.85165H27.371V3.835H27.3447V3.81835H27.3053V3.80169H27.2658V3.78504H27.2264V3.76839H27.2001V3.75174H27.1607V3.73509H27.1212V3.71843H27.0818V3.70178H27.0423V3.68513H27.0029V3.66848H26.9766V3.65183H26.9372V3.63518H26.8977V3.61852H26.8583V3.60187H26.8189V3.58522H26.7794V3.56857H26.74V3.55192H26.7005V3.53526H26.6611V3.51861H26.6479V3.50196H26.6874V3.48531H26.74V3.46866H26.7926V3.452H26.8451V3.43535H26.8977V3.4187H26.9503V3.40205H27.0029V3.3854H27.0555V3.36874H27.1081V3.35209H27.1607V3.33544H27.2132V3.31879H27.2658V3.30214H27.3316V3.28549H27.3842V3.26883H27.4367V3.25218H27.4893V3.23553H27.5419V3.21888H27.5945V3.20223H27.6471V3.18557H27.6997V3.16892H27.7523V3.15227H27.8048V3.13562H27.8574V3.11897H27.91V3.10231H27.9626V3.08566H28.0283V3.06901H28.0809V3.05236H28.1335V3.03571H28.1861V3.01905H28.2387V3.0024H28.2913V2.98575H28.3438V2.9691H28.3964V2.95245H28.449V2.9358H28.5016V2.91914H28.5542V2.90249H28.6068V2.88584H28.6594V2.86919H28.7251V2.85254H28.7777V2.83588H28.8303V2.81923H28.8828V2.80258H28.9354V2.78593H28.988V2.76928H29.0406V2.75262H29.0932V2.73597H29.1458V2.71932H29.1984V2.70267H29.2509V2.68602H29.3035V2.66937H29.3561V2.65271H29.4219V2.63606H29.4744V2.61941H29.527V2.60276H29.5796V2.58611H29.6322V2.56945H29.6848V2.5528H29.7374V2.53615H29.79V2.5195H29.8425V2.50285H29.8951V2.48619H29.9477V2.46954H30.0003V2.45289H30.0529V2.43624H30.1186V2.41959H30.1712V2.40293H30.2238V2.38628H30.2764V2.36963H30.329V2.35298H30.3815V2.33633H30.4341V2.31968H30.4867V2.30302H30.5393V2.28637H30.5919V2.26972H30.6445V2.25307H30.6971V2.23642H30.7628V2.21976H30.8154V2.20311H30.868V2.18646H30.9205V2.16981H30.9731V2.15316H31.0257V2.1365H31.0783V2.11985H31.1309V2.1032H31.1835V2.08655H31.2361V2.0699H31.2886V2.05325H31.3412V2.03659H31.3938V2.01994H31.4596V2.00329H31.5121V1.98664H31.5647V1.96999H31.6173V1.95333H31.6699V1.93668H31.7225V1.92003H31.7751V1.90338H31.8277V1.88673H31.8802V1.87007H31.9328V1.85342H31.9854V1.83677H32.038V1.82012H32.0906V1.80347H32.1563V1.78681H32.2089V1.77016H32.2615V1.75351H32.3141V1.73686H32.3667V1.72021H32.4192V1.70356H32.4718V1.6869H32.5244V1.67025H32.577V1.6536H32.6296V1.63695H32.6822V1.6203H32.7348V1.60364H32.7873V1.58699H32.8531V1.57034H32.9057V1.55369H32.9582V1.53704H33.0108V1.52038H33.0634V1.50373H33.116V1.48708H33.1686V1.47043H33.2212V1.45378H33.2738V1.43713H33.3263V1.42047H33.3789V1.40382H33.4315V1.38717H33.4841V1.37052H33.5498V1.35387H33.6024V1.33721H33.655V1.32056H33.7076V1.30391H33.7602V1.28726H33.8128V1.27061H33.8654V1.25395H33.9179V1.2373H33.9705V1.22065H34.0231V1.204H34.0757V1.18735H34.1283V1.17069H34.194V1.15404H34.2466V1.13739H34.2992V1.12074H34.3518V1.10409H34.4044V1.08744H34.4569V1.07078H34.5095V1.05413H34.5621V1.03748H34.6147V1.02083H34.6673V1.00418H34.7199V0.987524H34.7725V0.970872H34.825V0.95422H34.8908V0.937568H34.9434V0.920916H34.9959V0.904265H35.0485V0.887613H35.1011V0.870961H35.1537V0.854309H35.2063V0.837657H35.2589V0.821005H35.3115V0.804353H35.364V0.787701H35.4166V0.771049H35.4692V0.754398H35.5218V0.737746H35.5875V0.721094H35.6401V0.704442H35.6927V0.68779H35.7453V0.671138H35.7979V0.654486H35.8505V0.637834H35.9031V0.621182H35.9556V0.60453H36.0082V0.587879H36.0608V0.571227H36.1134V0.554575H36.166V0.537923H36.2186V0.521271H36.2843V0.504619H36.3369V0.487967H36.3895V0.471315H36.4421V0.454663H36.4946V0.438012H36.5472V0.42136H36.5998V0.404708H36.6524V0.388056H36.705V0.371404H36.7576V0.354752H36.8102V0.3381H36.8627V0.321448H36.9153V0.304796H36.9811V0.288145H37.0336V0.271493H37.0862V0.254841H37.1388V0.238189H37.1914V0.221537H37.244V0.204885H37.2966V0.188233H37.3492V0.171581H37.4017V0.154929H37.4543V0.138277H37.5069V0.121626H37.5595V0.104974H37.6121V0.0883218H37.6778V0.0716699H37.7304V0.055018H37.783V0.0383661H37.8356V0.0217142H37.8882V0.00506235H38.0328V0.0217142H38.0854V0.0383661H38.1248V0.055018H38.1774V0.0716699H38.23V0.0883218H38.2826V0.104974H38.322V0.121626H38.3746V0.138277H38.4272V0.154929H38.4666V0.171581H38.5192V0.188233H38.5718V0.204885H38.6244V0.221537H38.6638V0.238189H38.7164V0.254841H38.769V0.271493H38.8084V0.288145H38.861V0.304796H38.9136V0.321448H38.9662V0.3381H39.0056V0.354752H39.0582V0.371404H39.1108V0.388056H39.1502V0.404708H39.2028V0.42136H39.2554V0.438012H39.308V0.454663H39.3474V0.471315H39.4V0.487967H39.4526V0.504619H39.492V0.521271H39.5446V0.537923H39.5972V0.554575H39.6498V0.571227H39.6892V0.587879H39.7418V0.60453H39.7944V0.621182H39.8338V0.637834H39.8864V0.654486H39.939V0.671138H39.9916V0.68779H40.031V0.704442H40.0836V0.721094H40.1362V0.737746H40.1756V0.754398H40.2282V0.771049H40.2808V0.787701H40.3334V0.804353H40.3728V0.821005H40.4254V0.837657H40.478V0.854309H40.5175V0.870961H40.57V0.887613H40.6226V0.904265H40.6752V0.920916H40.7147V0.937568H40.7672V0.95422H40.8198V0.970872H40.8593V0.987524H40.9118V1.00418H40.9644V1.02083H41.017V1.03748H41.0565V1.05413H41.109V1.07078H41.1616V1.08744H41.2011V1.10409H41.2537V1.12074H41.3062V1.13739H41.3588V1.15404H41.3983V1.17069H41.4509V1.18735H41.5034V1.204H41.5429V1.22065H41.5955V1.2373H41.6481V1.25395H41.7006V1.27061H41.7401V1.28726H41.7927V1.30391H41.8452V1.32056H41.8847V1.33721H41.9373V1.35387H41.9899V1.37052H42.0424V1.38717H42.0819V1.40382H42.1345V1.42047H42.1871V1.43713H42.2265V1.45378H42.2791V1.47043H42.3317V1.48708H42.3843V1.50373H42.4237V1.52038H42.4763V1.53704H42.5289V1.55369H42.5683V1.57034H42.6209V1.58699H42.6735V1.60364H42.7261V1.6203H42.7655V1.63695H42.8181V1.6536H42.8707V1.67025H42.9101V1.6869H42.9627V1.70356H43.0153V1.72021H43.0679V1.73686H43.1073V1.75351H43.1599V1.77016H43.2125V1.78681H43.2519V1.80347H43.3045V1.82012H43.3571V1.83677H43.4097V1.85342H43.4491V1.87007H43.5017V1.88673H43.5543V1.90338H43.5937V1.92003H43.6463V1.93668H43.6989V1.95333H43.7515V1.96999H43.7909V1.98664H43.8435V2.00329H43.8961V2.01994H43.9355V2.03659H43.9881V2.05325H44.0407V2.0699H44.0933V2.08655H44.1327V2.1032H44.1853V2.11985H44.2379V2.1365H44.2905V2.15316H44.3299V2.16981H44.3825V2.18646H44.4351V2.20311H44.4745V2.21976H44.5271V2.23642H44.5797V2.25307H44.6323V2.26972H44.6717V2.28637H44.7243V2.30302H44.7769V2.31968H44.8163V2.33633H44.8689V2.35298H44.9215V2.36963H44.9741V2.38628H45.0135V2.40293H45.0661V2.41959H45.1187V2.43624H45.1582V2.45289H45.2107V2.46954H45.2633V2.48619H45.3159V2.50285H45.3553V2.5195H45.4079V2.53615H45.4605V2.5528H45.5V2.56945H45.5525V2.58611H45.6051V2.60276H45.6577V2.61941H45.6972V2.63606H45.7497V2.65271H45.8023V2.66937H45.8418V2.68602H45.8944V2.70267H45.9469V2.71932H45.9995V2.73597H46.039V2.75262H46.0916V2.76928H46.1441V2.78593H46.1836V2.80258H46.2362V2.81923H46.2887V2.83588H46.3413V2.85254H46.3808V2.86919H46.4334V2.88584H46.4859V2.90249H46.5254V2.91914H46.5648V2.9358H46.5517V2.95245H46.4991V2.9691H46.4465V2.98575H46.3939V3.0024H46.3545V3.01905H46.3019V3.03571H46.2493V3.05236H46.1967V3.06901H46.1441V3.08566H46.0784V3.10231H46.0258V3.11897H45.9732V3.13562H45.9206V3.15227H45.8681V3.16892H45.8155V3.18557H45.7629V3.20223H45.7103V3.21888H45.6577V3.23553H45.6051V3.25218H45.5525V3.26883H45.4868V3.28549H45.4342V3.30214H45.3816V3.31879H45.3291V3.33544H45.2765V3.35209H45.2239V3.36874H45.1713V3.3854H45.1187V3.40205H45.0661V3.4187H45.0135V3.43535H44.961V3.452H44.9084V3.46866H44.8558V3.48531H44.8032V3.50196H44.7506V3.51861H44.698V3.53526H44.6454V3.55192H44.5797V3.56857H44.5271V3.58522H44.4745V3.60187H44.422V3.61852H44.3694V3.63518H44.3168V3.65183H44.2642V3.66848H44.2116V3.68513H44.159V3.70178H44.1064V3.71843H44.0539V3.73509H44.0013V3.75174H43.9487V3.76839H43.8961V3.78504H43.8435V3.80169H43.7909V3.81835H43.7383V3.835H43.6858V3.85165H43.6332V3.8683H43.5806V3.88495H43.528V3.90161H43.4754V3.91826H43.4228V3.93491H43.3702V3.95156H43.3176V3.96821H43.2651V3.98486H43.2125V4.00152H43.1599V4.01817H43.1073V4.03482H43.0547V4.05147H43.0021V4.06812H42.9495V4.08478H42.897V4.10143H42.8444V4.11808H42.7918V4.13473H42.7392V4.15138H42.6866V4.16804H42.634V4.18469H42.5814V4.20134H42.5289V4.21799H42.4763V4.23464H42.4237V4.2513H42.3711V4.26795H42.3185V4.2846H42.2791V4.30125H42.2265V4.3179H42.1739V4.33455H42.1213V4.35121H42.0687V4.36786H42.0162V4.38451H41.9636V4.40116H41.911V4.41781H41.8584V4.43447H41.8058V4.45112H41.7532V4.46777H41.7006V4.48442H41.6481V4.50107H41.5955V4.51773H41.5429V4.53438H41.4903V4.55103H41.4509V4.56768H41.3983V4.58433H41.3457V4.60098H41.2931V4.61764H41.2405V4.63429H41.1879V4.65094H41.1353V4.66759H41.0828V4.68424H41.0302V4.7009H40.9776V4.71755H40.925V4.7342H40.8856V4.75085H40.833V4.7675H40.7804V4.78416H40.7278V4.80081H40.6752V4.81746H40.6226V4.83411H40.57V4.85076H40.5175V4.86742H40.4649V4.88407H40.4254V4.90072H40.3728V4.91737H40.3203V4.93402H40.2677V4.95067H40.2151V4.96733H40.1625V4.98398H40.1099V5.00063H40.0705V5.01728H40.0179V5.03393H39.9653V5.05059H39.9127V5.06724H39.8601V5.08389H39.8075V5.10054H39.755V5.11719H39.7155V5.13385H39.6629V5.1505H39.6104V5.16715H39.5578V5.1838H39.5052V5.20045H39.4526V5.2171H39.4132V5.23376H39.3606V5.25041H39.308V5.26706H39.2554V5.28371H39.2028V5.30036H39.1634V5.31702H39.1108V5.33367H39.0582V5.35032H39.0056V5.36697H38.953V5.38362H38.9136V5.40028H38.861V5.41693H38.8084V5.43358H38.7558V5.45023H38.7032V5.46688H38.6638V5.48354H38.6112V5.50019H38.5586V5.51684H38.506V5.53349H38.4666V5.55014H38.414V5.56679H38.3614V5.58345H38.3089V5.6001H38.2694V5.61675H38.2168V5.6334H38.1642V5.65005H38.1117V5.66671H38.0722V5.68336H38.0196V5.70001H37.967V5.71666H37.9276V5.73331H37.875V5.74997H37.8224V5.76662H37.7698V5.78327H37.7304V5.79992H37.6778V5.81657H37.6252V5.83322H37.5858V5.84988H37.5332V5.86653H37.4806V5.88318H37.4412V5.89983H37.3886V5.91648H37.336V5.93314H37.2834V5.94979H37.244V5.96644H37.1914V5.98309H37.152V5.99974H37.0994V6.0164H37.0468V6.03305H37.0074V6.0497H36.9548V6.06635H36.9022V6.083H36.8627V6.09966H36.8102V6.11631H36.7576V6.13296H36.7181V6.14961H36.6655V6.16626H36.6261V6.18291H36.5735V6.19957H36.5209V6.21622H36.4815V6.23287H36.4289V6.24952H36.3895V6.26617H36.3369V6.28283H36.2974V6.29948H36.2449V6.31613H36.1923V6.33278H36.1528V6.34943H36.1002V6.36609H36.0608V6.38274H36.0082V6.39939H35.9688V6.41604H35.9162V6.43269H35.8768V6.44934H35.8242V6.466H35.7847V6.48265H35.7321V6.4993H35.6927V6.51595H35.6401V6.5326H35.6007V6.54926H35.5481V6.56591H35.5087V6.58256H35.4561V6.59921H35.4166V6.61586H35.3772V6.63252H35.3246V6.64917H35.2852V6.66582H35.2326V6.68247H35.1931V6.69912H35.1406V6.71578H35.1011V6.73243H35.0617V6.74908H35.0091V6.76573H34.9697V6.78238H34.9302V6.79903H34.8776V6.81569H34.8382V6.83234H34.7987V6.84899H34.7462V6.86564H34.7067V6.88229H34.6673V6.89895H34.6147V6.9156H34.5753V6.93225H34.5358V6.9489H34.4964V6.96555H34.4438V6.98221H34.4044V6.99886H34.3649V7.01551H34.3255V7.03216H34.286V7.04881H34.2335V7.06546H34.194V7.08212H34.1546V7.09877H34.1151V7.11542H34.0625V7.13207H34.01V7.14872H33.9705V7.16538H33.9179V7.18203H33.8654V7.19868H33.8128V7.21533" fill="url(#paint47_linear_136_44154)"/>
<path d="M33.9331 24.124L33.408 23.8399L33.4056 23.8386L33.2613 23.7605L33.2475 23.753L33.1177 23.6827L33.0858 23.6654L33.0854 23.6653L30.4868 22.2592L26.8434 20.2876L26.6548 3.57292L26.6553 3.51214L29.1622 4.81182L29.1615 4.81199L29.161 4.81165V4.81199L29.1597 4.81249L29.161 4.81282L29.1606 4.8721L29.2746 6.8685L29.2922 6.83869L29.3694 7.08114L29.4446 6.94093L29.5015 7.14808L29.5968 7.03885L29.6652 7.52192L29.7914 7.2405L29.8767 7.45798L29.9807 7.34491L30.065 7.54523L30.1548 7.33742L30.225 7.61334L30.0869 5.34702L30.0875 5.2919L30.0813 5.2889L30.0818 5.28873L33.7829 7.2077L33.8239 7.91007C33.8019 9.54079 33.6739 19.7566 33.8686 23.97L33.8278 7.97501L33.8675 8.65358L33.9331 24.124" fill="url(#paint48_linear_136_44154)"/>
<path d="M33.9328 24.124L33.8672 8.65358L33.8275 7.97501L33.8269 7.68877C33.8269 7.68877 33.8257 7.76587 33.8237 7.91007L33.7827 7.2077L34.108 7.09879C34.0723 7.11328 34.0375 7.12744 34.0029 7.14176L46.4293 2.97745C46.4293 2.97745 46.374 2.99443 46.2704 3.02624L46.557 2.93032L46.5569 2.9906L46.6278 18.4529L46.6319 19.3419L36.2569 23.249L36.186 23.2756L34.0161 24.0927L33.9328 24.124" fill="url(#paint49_linear_136_44154)"/>
<path d="M30.0875 5.29209L30.0813 5.28909L30.0798 5.28942L29.161 4.81301L29.1606 4.87229L29.2746 6.86869L29.2922 6.83888L29.3694 7.08133L29.4446 6.94112L29.5015 7.14827L29.5968 7.03904L29.6652 7.52211L29.7914 7.24069L29.8767 7.45817L29.9807 7.3451L30.065 7.54542L30.1548 7.33761L30.225 7.61353L30.0869 5.34721L30.0875 5.29209" fill="#BD793D"/>
<path d="M41.1533 1.09753L29.1615 4.81206L29.161 4.81173V4.81206L29.1597 4.81256L29.161 4.81289L30.0798 5.28931L30.0812 5.28897L42.3135 1.48385L41.1533 1.09753" fill="#CC8D46"/>
<path d="M33.7829 7.20776L30.0818 5.2888L30.2221 5.24517C32.1374 6.25361 33.7829 7.20776 33.7829 7.20776" fill="url(#paint50_linear_136_44154)"/>
<path d="M29.1622 4.81201L26.6553 3.51233C27.4562 3.85103 28.3853 4.3003 29.3028 4.76839L29.1622 4.81201" fill="url(#paint51_linear_136_44154)"/>
<path d="M30.0817 5.28882L29.1621 4.81191L29.3028 4.76828C29.6122 4.92631 29.9205 5.08633 30.222 5.24519L30.0817 5.28882Z" fill="#F2DEC8"/>
<path d="M34.1082 7.09888C37.3518 5.78221 45.0674 3.39633 46.2706 3.02632L34.1082 7.09888Z" fill="url(#paint52_linear_136_44154)"/>
<path d="M34.0029 7.14185C34.0375 7.12753 34.0723 7.11337 34.108 7.09888L46.2704 3.02633C46.374 2.99452 46.4293 2.97754 46.4293 2.97754L34.0029 7.14185Z" fill="url(#paint53_linear_136_44154)"/>
<path d="M33.8685 23.97C33.6738 19.7565 33.8018 9.54077 33.8238 7.91005L33.8277 7.97499L33.8685 23.97" fill="url(#paint54_linear_136_44154)"/>
<path d="M33.8276 7.9751L33.8237 7.91016C33.8258 7.76595 33.827 7.68885 33.827 7.68885L33.8276 7.9751Z" fill="url(#paint55_linear_136_44154)"/>
</g>
<defs>
<linearGradient id="paint0_linear_136_44154" x1="32.6111" y1="55.9241" x2="26.1439" y2="49.3565" gradientUnits="userSpaceOnUse">
<stop stop-color="#100F0D"/>
<stop offset="1" stop-color="white"/>
</linearGradient>
<linearGradient id="paint1_linear_136_44154" x1="9.13538" y1="57.7261" x2="2.66827" y2="51.1585" gradientUnits="userSpaceOnUse">
<stop stop-color="#100F0D"/>
<stop offset="1" stop-color="white"/>
</linearGradient>
<linearGradient id="paint2_linear_136_44154" x1="48.0581" y1="60.5582" x2="41.591" y2="53.9905" gradientUnits="userSpaceOnUse">
<stop stop-color="#100F0D"/>
<stop offset="1" stop-color="white"/>
</linearGradient>
<linearGradient id="paint3_linear_136_44154" x1="28.0435" y1="36.4444" x2="52.6087" y2="37.3939" gradientUnits="userSpaceOnUse">
<stop stop-color="#E3B073"/>
<stop offset="0.136682" stop-color="#E3B073"/>
<stop offset="0.662577" stop-color="#DCA866"/>
<stop offset="1" stop-color="#CC8D51"/>
</linearGradient>
<linearGradient id="paint4_linear_136_44154" x1="32.1517" y1="40.9691" x2="29.3484" y2="63.9472" gradientUnits="userSpaceOnUse">
<stop stop-color="#DCA866"/>
<stop offset="0.18586" stop-color="#DCA866"/>
<stop offset="0.717791" stop-color="#CC8D51"/>
<stop offset="1" stop-color="#CC8D51"/>
</linearGradient>
<linearGradient id="paint5_linear_136_44154" x1="35.4654" y1="37.888" x2="48.9723" y2="62.6524" gradientUnits="userSpaceOnUse">
<stop stop-color="#CB8F50"/>
<stop offset="0.153374" stop-color="#CB8F50"/>
<stop offset="1" stop-color="#A76930"/>
</linearGradient>
<linearGradient id="paint6_linear_136_44154" x1="28.0432" y1="36.4444" x2="52.6085" y2="37.3939" gradientUnits="userSpaceOnUse">
<stop stop-color="#F8E9D7"/>
<stop offset="0.136682" stop-color="#F8E9D7"/>
<stop offset="0.662577" stop-color="#F6E7D4"/>
<stop offset="1" stop-color="#F1DECC"/>
</linearGradient>
<linearGradient id="paint7_linear_136_44154" x1="28.0435" y1="36.4444" x2="52.6088" y2="37.3939" gradientUnits="userSpaceOnUse">
<stop stop-color="#F8E9D7"/>
<stop offset="0.136682" stop-color="#F8E9D7"/>
<stop offset="0.662577" stop-color="#F6E7D4"/>
<stop offset="1" stop-color="#F1DECC"/>
</linearGradient>
<linearGradient id="paint8_linear_136_44154" x1="28.0433" y1="36.4444" x2="52.6085" y2="37.3939" gradientUnits="userSpaceOnUse">
<stop stop-color="#F8E9D7"/>
<stop offset="0.136682" stop-color="#F8E9D7"/>
<stop offset="0.662577" stop-color="#F6E7D4"/>
<stop offset="1" stop-color="#F1DECC"/>
</linearGradient>
<linearGradient id="paint9_linear_136_44154" x1="35.4654" y1="37.8881" x2="48.9724" y2="62.6525" gradientUnits="userSpaceOnUse">
<stop stop-color="#F1DFCB"/>
<stop offset="0.153374" stop-color="#F1DFCB"/>
<stop offset="1" stop-color="#E6D3BE"/>
</linearGradient>
<linearGradient id="paint10_linear_136_44154" x1="32.1517" y1="40.9693" x2="29.3484" y2="63.9475" gradientUnits="userSpaceOnUse">
<stop stop-color="#F6E7D4"/>
<stop offset="0.18586" stop-color="#F6E7D4"/>
<stop offset="0.717791" stop-color="#F1DECC"/>
<stop offset="1" stop-color="#F1DECC"/>
</linearGradient>
<linearGradient id="paint11_linear_136_44154" x1="35.4756" y1="37.888" x2="48.7813" y2="62.9575" gradientUnits="userSpaceOnUse">
<stop stop-color="#F1DFCB"/>
<stop offset="0.153374" stop-color="#F1DFCB"/>
<stop offset="1" stop-color="#E6D3BE"/>
</linearGradient>
<linearGradient id="paint12_linear_136_44154" x1="30.5843" y1="19.7105" x2="55.1499" y2="20.66" gradientUnits="userSpaceOnUse">
<stop stop-color="#E3B073"/>
<stop offset="0.136682" stop-color="#E3B073"/>
<stop offset="0.662577" stop-color="#DCA866"/>
<stop offset="1" stop-color="#CC8D51"/>
</linearGradient>
<linearGradient id="paint13_linear_136_44154" x1="34.6926" y1="24.2353" x2="31.8894" y2="47.2131" gradientUnits="userSpaceOnUse">
<stop stop-color="#DCA866"/>
<stop offset="0.18586" stop-color="#DCA866"/>
<stop offset="0.717791" stop-color="#CC8D51"/>
<stop offset="1" stop-color="#CC8D51"/>
</linearGradient>
<linearGradient id="paint14_linear_136_44154" x1="38.006" y1="21.1538" x2="51.513" y2="45.9182" gradientUnits="userSpaceOnUse">
<stop stop-color="#CB8F50"/>
<stop offset="0.153374" stop-color="#CB8F50"/>
<stop offset="1" stop-color="#A76930"/>
</linearGradient>
<linearGradient id="paint15_linear_136_44154" x1="30.5841" y1="19.7105" x2="55.1497" y2="20.66" gradientUnits="userSpaceOnUse">
<stop stop-color="#F8E9D7"/>
<stop offset="0.136682" stop-color="#F8E9D7"/>
<stop offset="0.662577" stop-color="#F6E7D4"/>
<stop offset="1" stop-color="#F1DECC"/>
</linearGradient>
<linearGradient id="paint16_linear_136_44154" x1="30.5843" y1="19.7105" x2="55.1499" y2="20.6599" gradientUnits="userSpaceOnUse">
<stop stop-color="#F8E9D7"/>
<stop offset="0.136682" stop-color="#F8E9D7"/>
<stop offset="0.662577" stop-color="#F6E7D4"/>
<stop offset="1" stop-color="#F1DECC"/>
</linearGradient>
<linearGradient id="paint17_linear_136_44154" x1="38.0062" y1="21.1539" x2="51.5131" y2="45.9183" gradientUnits="userSpaceOnUse">
<stop stop-color="#F1DFCB"/>
<stop offset="0.153374" stop-color="#F1DFCB"/>
<stop offset="1" stop-color="#E6D3BE"/>
</linearGradient>
<linearGradient id="paint18_linear_136_44154" x1="34.6926" y1="24.2352" x2="31.8894" y2="47.2131" gradientUnits="userSpaceOnUse">
<stop stop-color="#F6E7D4"/>
<stop offset="0.18586" stop-color="#F6E7D4"/>
<stop offset="0.717791" stop-color="#F1DECC"/>
<stop offset="1" stop-color="#F1DECC"/>
</linearGradient>
<linearGradient id="paint19_linear_136_44154" x1="38.0163" y1="21.1539" x2="51.3219" y2="46.2233" gradientUnits="userSpaceOnUse">
<stop stop-color="#F1DFCB"/>
<stop offset="0.153374" stop-color="#F1DFCB"/>
<stop offset="1" stop-color="#E6D3BE"/>
</linearGradient>
<linearGradient id="paint20_linear_136_44154" x1="42.8291" y1="40.7887" x2="67.3948" y2="41.7382" gradientUnits="userSpaceOnUse">
<stop stop-color="#E3B073"/>
<stop offset="0.136682" stop-color="#E3B073"/>
<stop offset="0.662577" stop-color="#DCA866"/>
<stop offset="1" stop-color="#CC8D51"/>
</linearGradient>
<linearGradient id="paint21_linear_136_44154" x1="46.9377" y1="45.3136" x2="44.1344" y2="68.2917" gradientUnits="userSpaceOnUse">
<stop stop-color="#DCA866"/>
<stop offset="0.18586" stop-color="#DCA866"/>
<stop offset="0.717791" stop-color="#CC8D51"/>
<stop offset="1" stop-color="#CC8D51"/>
</linearGradient>
<linearGradient id="paint22_linear_136_44154" x1="50.2512" y1="42.2322" x2="63.7582" y2="66.9968" gradientUnits="userSpaceOnUse">
<stop stop-color="#CB8F50"/>
<stop offset="0.153374" stop-color="#CB8F50"/>
<stop offset="1" stop-color="#A76930"/>
</linearGradient>
<linearGradient id="paint23_linear_136_44154" x1="42.8291" y1="40.7887" x2="67.3948" y2="41.7382" gradientUnits="userSpaceOnUse">
<stop stop-color="#F8E9D7"/>
<stop offset="0.136682" stop-color="#F8E9D7"/>
<stop offset="0.662577" stop-color="#F6E7D4"/>
<stop offset="1" stop-color="#F1DECC"/>
</linearGradient>
<linearGradient id="paint24_linear_136_44154" x1="42.8291" y1="40.7887" x2="67.3948" y2="41.7382" gradientUnits="userSpaceOnUse">
<stop stop-color="#F8E9D7"/>
<stop offset="0.136682" stop-color="#F8E9D7"/>
<stop offset="0.662577" stop-color="#F6E7D4"/>
<stop offset="1" stop-color="#F1DECC"/>
</linearGradient>
<linearGradient id="paint25_linear_136_44154" x1="42.8292" y1="40.7886" x2="67.3948" y2="41.7381" gradientUnits="userSpaceOnUse">
<stop stop-color="#F8E9D7"/>
<stop offset="0.136682" stop-color="#F8E9D7"/>
<stop offset="0.662577" stop-color="#F6E7D4"/>
<stop offset="1" stop-color="#F1DECC"/>
</linearGradient>
<linearGradient id="paint26_linear_136_44154" x1="50.2512" y1="42.2323" x2="63.7583" y2="66.9969" gradientUnits="userSpaceOnUse">
<stop stop-color="#F1DFCB"/>
<stop offset="0.153374" stop-color="#F1DFCB"/>
<stop offset="1" stop-color="#E6D3BE"/>
</linearGradient>
<linearGradient id="paint27_linear_136_44154" x1="46.9376" y1="45.3136" x2="44.1343" y2="68.2916" gradientUnits="userSpaceOnUse">
<stop stop-color="#F6E7D4"/>
<stop offset="0.18586" stop-color="#F6E7D4"/>
<stop offset="0.717791" stop-color="#F1DECC"/>
<stop offset="1" stop-color="#F1DECC"/>
</linearGradient>
<linearGradient id="paint28_linear_136_44154" x1="50.2614" y1="42.2321" x2="63.5671" y2="67.3017" gradientUnits="userSpaceOnUse">
<stop stop-color="#F1DFCB"/>
<stop offset="0.153374" stop-color="#F1DFCB"/>
<stop offset="1" stop-color="#E6D3BE"/>
</linearGradient>
<linearGradient id="paint29_linear_136_44154" x1="45.1411" y1="24.4407" x2="69.7068" y2="25.3902" gradientUnits="userSpaceOnUse">
<stop stop-color="#E3B073"/>
<stop offset="0.136682" stop-color="#E3B073"/>
<stop offset="0.662577" stop-color="#DCA866"/>
<stop offset="1" stop-color="#CC8D51"/>
</linearGradient>
<linearGradient id="paint30_linear_136_44154" x1="49.2498" y1="28.9656" x2="46.4466" y2="51.9434" gradientUnits="userSpaceOnUse">
<stop stop-color="#DCA866"/>
<stop offset="0.18586" stop-color="#DCA866"/>
<stop offset="0.717791" stop-color="#CC8D51"/>
<stop offset="1" stop-color="#CC8D51"/>
</linearGradient>
<linearGradient id="paint31_linear_136_44154" x1="52.563" y1="25.8843" x2="66.0701" y2="50.6489" gradientUnits="userSpaceOnUse">
<stop stop-color="#CB8F50"/>
<stop offset="0.153374" stop-color="#CB8F50"/>
<stop offset="1" stop-color="#A76930"/>
</linearGradient>
<linearGradient id="paint32_linear_136_44154" x1="45.1411" y1="24.4407" x2="69.7068" y2="25.3902" gradientUnits="userSpaceOnUse">
<stop stop-color="#F8E9D7"/>
<stop offset="0.136682" stop-color="#F8E9D7"/>
<stop offset="0.662577" stop-color="#F6E7D4"/>
<stop offset="1" stop-color="#F1DECC"/>
</linearGradient>
<linearGradient id="paint33_linear_136_44154" x1="45.1411" y1="24.4407" x2="69.7068" y2="25.3902" gradientUnits="userSpaceOnUse">
<stop stop-color="#F8E9D7"/>
<stop offset="0.136682" stop-color="#F8E9D7"/>
<stop offset="0.662577" stop-color="#F6E7D4"/>
<stop offset="1" stop-color="#F1DECC"/>
</linearGradient>
<linearGradient id="paint34_linear_136_44154" x1="45.1411" y1="24.4408" x2="69.7068" y2="25.3902" gradientUnits="userSpaceOnUse">
<stop stop-color="#F8E9D7"/>
<stop offset="0.136682" stop-color="#F8E9D7"/>
<stop offset="0.662577" stop-color="#F6E7D4"/>
<stop offset="1" stop-color="#F1DECC"/>
</linearGradient>
<linearGradient id="paint35_linear_136_44154" x1="52.563" y1="25.8841" x2="66.0701" y2="50.6487" gradientUnits="userSpaceOnUse">
<stop stop-color="#F1DFCB"/>
<stop offset="0.153374" stop-color="#F1DFCB"/>
<stop offset="1" stop-color="#E6D3BE"/>
</linearGradient>
<linearGradient id="paint36_linear_136_44154" x1="49.2498" y1="28.9656" x2="46.4465" y2="51.9434" gradientUnits="userSpaceOnUse">
<stop stop-color="#F6E7D4"/>
<stop offset="0.18586" stop-color="#F6E7D4"/>
<stop offset="0.717791" stop-color="#F1DECC"/>
<stop offset="1" stop-color="#F1DECC"/>
</linearGradient>
<linearGradient id="paint37_linear_136_44154" x1="52.5733" y1="25.8842" x2="65.8789" y2="50.9537" gradientUnits="userSpaceOnUse">
<stop stop-color="#F1DFCB"/>
<stop offset="0.153374" stop-color="#F1DFCB"/>
<stop offset="1" stop-color="#E6D3BE"/>
</linearGradient>
<linearGradient id="paint38_linear_136_44154" x1="23.6212" y1="38.9136" x2="-0.944327" y2="39.863" gradientUnits="userSpaceOnUse">
<stop stop-color="#E3B073"/>
<stop offset="0.136682" stop-color="#E3B073"/>
<stop offset="0.662577" stop-color="#DCA866"/>
<stop offset="1" stop-color="#CC8D51"/>
</linearGradient>
<linearGradient id="paint39_linear_136_44154" x1="19.5128" y1="43.4378" x2="22.3161" y2="66.4158" gradientUnits="userSpaceOnUse">
<stop stop-color="#DCA866"/>
<stop offset="0.18586" stop-color="#DCA866"/>
<stop offset="0.717791" stop-color="#CC8D51"/>
<stop offset="1" stop-color="#CC8D51"/>
</linearGradient>
<linearGradient id="paint40_linear_136_44154" x1="16.1994" y1="40.3567" x2="2.69231" y2="65.1213" gradientUnits="userSpaceOnUse">
<stop stop-color="#CB8F50"/>
<stop offset="0.153374" stop-color="#CB8F50"/>
<stop offset="1" stop-color="#A76930"/>
</linearGradient>
<linearGradient id="paint41_linear_136_44154" x1="23.6214" y1="38.9136" x2="-0.944162" y2="39.863" gradientUnits="userSpaceOnUse">
<stop stop-color="#F8E9D7"/>
<stop offset="0.136682" stop-color="#F8E9D7"/>
<stop offset="0.662577" stop-color="#F6E7D4"/>
<stop offset="1" stop-color="#F1DECC"/>
</linearGradient>
<linearGradient id="paint42_linear_136_44154" x1="23.6213" y1="38.9135" x2="-0.944232" y2="39.863" gradientUnits="userSpaceOnUse">
<stop stop-color="#F8E9D7"/>
<stop offset="0.136682" stop-color="#F8E9D7"/>
<stop offset="0.662577" stop-color="#F6E7D4"/>
<stop offset="1" stop-color="#F1DECC"/>
</linearGradient>
<linearGradient id="paint43_linear_136_44154" x1="23.6214" y1="38.9134" x2="-0.944144" y2="39.8629" gradientUnits="userSpaceOnUse">
<stop stop-color="#F8E9D7"/>
<stop offset="0.136682" stop-color="#F8E9D7"/>
<stop offset="0.662577" stop-color="#F6E7D4"/>
<stop offset="1" stop-color="#F1DECC"/>
</linearGradient>
<linearGradient id="paint44_linear_136_44154" x1="16.1995" y1="40.3567" x2="2.69241" y2="65.1213" gradientUnits="userSpaceOnUse">
<stop stop-color="#F1DFCB"/>
<stop offset="0.153374" stop-color="#F1DFCB"/>
<stop offset="1" stop-color="#E6D3BE"/>
</linearGradient>
<linearGradient id="paint45_linear_136_44154" x1="19.5129" y1="43.4379" x2="22.3161" y2="66.4159" gradientUnits="userSpaceOnUse">
<stop stop-color="#F6E7D4"/>
<stop offset="0.18586" stop-color="#F6E7D4"/>
<stop offset="0.717791" stop-color="#F1DECC"/>
<stop offset="1" stop-color="#F1DECC"/>
</linearGradient>
<linearGradient id="paint46_linear_136_44154" x1="16.1895" y1="40.3566" x2="2.88065" y2="65.4216" gradientUnits="userSpaceOnUse">
<stop stop-color="#F1DFCB"/>
<stop offset="0.153374" stop-color="#F1DFCB"/>
<stop offset="1" stop-color="#E6D3BE"/>
</linearGradient>
<linearGradient id="paint47_linear_136_44154" x1="26.7734" y1="2.91298" x2="51.3389" y2="3.86246" gradientUnits="userSpaceOnUse">
<stop stop-color="#E3B073"/>
<stop offset="0.136682" stop-color="#E3B073"/>
<stop offset="0.662577" stop-color="#DCA866"/>
<stop offset="1" stop-color="#CC8D51"/>
</linearGradient>
<linearGradient id="paint48_linear_136_44154" x1="30.8819" y1="7.43716" x2="28.0786" y2="30.4153" gradientUnits="userSpaceOnUse">
<stop stop-color="#DCA866"/>
<stop offset="0.18586" stop-color="#DCA866"/>
<stop offset="0.717791" stop-color="#CC8D51"/>
<stop offset="1" stop-color="#CC8D51"/>
</linearGradient>
<linearGradient id="paint49_linear_136_44154" x1="34.195" y1="4.35639" x2="47.702" y2="29.1208" gradientUnits="userSpaceOnUse">
<stop stop-color="#CB8F50"/>
<stop offset="0.153374" stop-color="#CB8F50"/>
<stop offset="1" stop-color="#A76930"/>
</linearGradient>
<linearGradient id="paint50_linear_136_44154" x1="26.7734" y1="2.9129" x2="51.3389" y2="3.86238" gradientUnits="userSpaceOnUse">
<stop stop-color="#F8E9D7"/>
<stop offset="0.136682" stop-color="#F8E9D7"/>
<stop offset="0.662577" stop-color="#F6E7D4"/>
<stop offset="1" stop-color="#F1DECC"/>
</linearGradient>
<linearGradient id="paint51_linear_136_44154" x1="26.7733" y1="2.91303" x2="51.3389" y2="3.86252" gradientUnits="userSpaceOnUse">
<stop stop-color="#F8E9D7"/>
<stop offset="0.136682" stop-color="#F8E9D7"/>
<stop offset="0.662577" stop-color="#F6E7D4"/>
<stop offset="1" stop-color="#F1DECC"/>
</linearGradient>
<linearGradient id="paint52_linear_136_44154" x1="26.7734" y1="2.91292" x2="51.3389" y2="3.86241" gradientUnits="userSpaceOnUse">
<stop stop-color="#F8E9D7"/>
<stop offset="0.136682" stop-color="#F8E9D7"/>
<stop offset="0.662577" stop-color="#F6E7D4"/>
<stop offset="1" stop-color="#F1DECC"/>
</linearGradient>
<linearGradient id="paint53_linear_136_44154" x1="34.195" y1="4.35648" x2="47.702" y2="29.1209" gradientUnits="userSpaceOnUse">
<stop stop-color="#F1DFCB"/>
<stop offset="0.153374" stop-color="#F1DFCB"/>
<stop offset="1" stop-color="#E6D3BE"/>
</linearGradient>
<linearGradient id="paint54_linear_136_44154" x1="30.8818" y1="7.43714" x2="28.0785" y2="30.4153" gradientUnits="userSpaceOnUse">
<stop stop-color="#F6E7D4"/>
<stop offset="0.18586" stop-color="#F6E7D4"/>
<stop offset="0.717791" stop-color="#F1DECC"/>
<stop offset="1" stop-color="#F1DECC"/>
</linearGradient>
<linearGradient id="paint55_linear_136_44154" x1="34.2049" y1="4.35649" x2="47.5167" y2="29.4166" gradientUnits="userSpaceOnUse">
<stop stop-color="#F1DFCB"/>
<stop offset="0.153374" stop-color="#F1DFCB"/>
<stop offset="1" stop-color="#E6D3BE"/>
</linearGradient>
<clipPath id="clip0_136_44154">
<rect width="65" height="62" fill="white"/>
</clipPath>
</defs>
</svg>
