<svg width="494" height="110" viewBox="0 0 494 110" fill="none" xmlns="http://www.w3.org/2000/svg">
<path d="M5.44945 52.0219L1.3623 63.9829H6.81184C6.81184 63.9829 12.5338 62.559 13.6238 59.4263H22.6155L29.4274 72.8113L51.7705 73.3809L56.6751 68.2547H64.0319L69.4815 75.944H94.8218L98.6364 69.6787H105.448L108.991 77.3679L135.693 76.5135L144.14 57.148L205.447 56.2937V67.5912L204.63 67.9699V69.3939H208.717V68.0183L207.9 67.5912V52.5915H224.521C224.521 52.5915 234.057 50.7346 234.602 48.8152L5.44945 52.0219Z" fill="url(#paint0_linear_329_862)"/>
<path d="M358.987 52.5916H285.419C284.44 52.5916 283.647 53.4203 283.647 54.4427V56.1941C283.647 57.2164 284.44 58.0452 285.419 58.0452H358.987C359.965 58.0452 360.758 57.2164 360.758 56.1941V54.4427C360.758 53.4203 359.965 52.5916 358.987 52.5916Z" fill="url(#paint1_linear_329_862)"/>
<path d="M302.04 47.1807H342.367C342.836 47.1807 343.287 47.3757 343.619 47.7228C343.951 48.07 344.138 48.5408 344.138 49.0318V52.6343H300.269V49.0318C300.269 48.5408 300.456 48.07 300.788 47.7228C301.12 47.3757 301.57 47.1807 302.04 47.1807V47.1807Z" fill="url(#paint2_linear_329_862)"/>
<path d="M417.48 80.2158H302.029L227.245 67.4004V56.2937H433.237V63.7466C433.237 68.1145 431.577 72.3035 428.622 75.3921C425.667 78.4806 421.659 80.2158 417.48 80.2158V80.2158Z" fill="#232323"/>
<path opacity="0.61" d="M247 109.549C383.414 109.549 494 105.851 494 101.29C494 96.7288 383.414 93.0312 247 93.0312C110.586 93.0312 0 96.7288 0 101.29C0 105.851 110.586 109.549 247 109.549Z" fill="url(#paint3_radial_329_862)"/>
<path d="M408.442 102.714C418.374 102.714 426.425 94.1712 426.425 83.6332C426.425 73.0952 418.374 64.5525 408.442 64.5525C398.51 64.5525 390.458 73.0952 390.458 83.6332C390.458 94.1712 398.51 102.714 408.442 102.714Z" fill="url(#paint4_radial_329_862)"/>
<path d="M408.442 95.2925C414.511 95.2925 419.431 90.0725 419.431 83.6333C419.431 77.1941 414.511 71.9741 408.442 71.9741C402.373 71.9741 397.453 77.1941 397.453 83.6333C397.453 90.0725 402.373 95.2925 408.442 95.2925Z" fill="url(#paint5_radial_329_862)"/>
<path d="M408.567 76.2146C408.775 76.2146 408.943 76.0361 408.943 75.8159C408.943 75.5957 408.775 75.4172 408.567 75.4172C408.36 75.4172 408.191 75.5957 408.191 75.8159C408.191 76.0361 408.36 76.2146 408.567 76.2146Z" fill="black"/>
<path d="M405.442 76.8897C405.65 76.8897 405.818 76.7112 405.818 76.491C405.818 76.2708 405.65 76.0923 405.442 76.0923C405.235 76.0923 405.066 76.2708 405.066 76.491C405.066 76.7112 405.235 76.8897 405.442 76.8897Z" fill="black"/>
<path d="M402.877 78.9058C403.085 78.9058 403.254 78.7273 403.254 78.5071C403.254 78.2869 403.085 78.1084 402.877 78.1084C402.67 78.1084 402.501 78.2869 402.501 78.5071C402.501 78.7273 402.67 78.9058 402.877 78.9058Z" fill="black"/>
<path d="M401.357 81.8819C401.565 81.8819 401.733 81.7034 401.733 81.4832C401.733 81.263 401.565 81.0845 401.357 81.0845C401.149 81.0845 400.981 81.263 400.981 81.4832C400.981 81.7034 401.149 81.8819 401.357 81.8819Z" fill="black"/>
<path d="M401.164 85.2596C401.37 85.2596 401.538 85.0811 401.538 84.8609C401.538 84.6407 401.37 84.4622 401.164 84.4622C400.958 84.4622 400.791 84.6407 400.791 84.8609C400.791 85.0811 400.958 85.2596 401.164 85.2596Z" fill="black"/>
<path d="M402.336 88.4063C402.544 88.4063 402.712 88.2278 402.712 88.0076C402.712 87.7874 402.544 87.6089 402.336 87.6089C402.128 87.6089 401.96 87.7874 401.96 88.0076C401.96 88.2278 402.128 88.4063 402.336 88.4063Z" fill="black"/>
<path d="M404.649 90.7359C404.855 90.7359 405.022 90.5574 405.022 90.3372C405.022 90.117 404.855 89.9385 404.649 89.9385C404.443 89.9385 404.275 90.117 404.275 90.3372C404.275 90.5574 404.443 90.7359 404.649 90.7359Z" fill="black"/>
<path d="M407.676 91.8096C407.882 91.8096 408.049 91.6311 408.049 91.4109C408.049 91.1907 407.882 91.0122 407.676 91.0122C407.47 91.0122 407.303 91.1907 407.303 91.4109C407.303 91.6311 407.47 91.8096 407.676 91.8096Z" fill="black"/>
<path d="M410.845 91.4251C411.053 91.4251 411.221 91.2466 411.221 91.0264C411.221 90.8062 411.053 90.6277 410.845 90.6277C410.638 90.6277 410.469 90.8062 410.469 91.0264C410.469 91.2466 410.638 91.4251 410.845 91.4251Z" fill="black"/>
<path d="M413.565 89.6536C413.773 89.6536 413.941 89.4751 413.941 89.2549C413.941 89.0347 413.773 88.8562 413.565 88.8562C413.357 88.8562 413.189 89.0347 413.189 89.2549C413.189 89.4751 413.357 89.6536 413.565 89.6536Z" fill="black"/>
<path d="M415.322 86.8316C415.529 86.8316 415.698 86.6531 415.698 86.4329C415.698 86.2127 415.529 86.0342 415.322 86.0342C415.114 86.0342 414.946 86.2127 414.946 86.4329C414.946 86.6531 415.114 86.8316 415.322 86.8316Z" fill="black"/>
<path d="M415.794 83.4825C416.002 83.4825 416.17 83.304 416.17 83.0838C416.17 82.8636 416.002 82.6851 415.794 82.6851C415.586 82.6851 415.418 82.8636 415.418 83.0838C415.418 83.304 415.586 83.4825 415.794 83.4825Z" fill="black"/>
<path d="M414.886 80.2386C415.092 80.2386 415.259 80.06 415.259 79.8399C415.259 79.6197 415.092 79.4412 414.886 79.4412C414.68 79.4412 414.513 79.6197 414.513 79.8399C414.513 80.06 414.68 80.2386 414.886 80.2386Z" fill="black"/>
<path d="M412.772 77.7041C412.978 77.7041 413.145 77.5256 413.145 77.3054C413.145 77.0852 412.978 76.9067 412.772 76.9067C412.566 76.9067 412.398 77.0852 412.398 77.3054C412.398 77.5256 412.566 77.7041 412.772 77.7041Z" fill="black"/>
<path d="M301.903 102.145C311.835 102.145 319.886 93.6018 319.886 83.0639C319.886 72.5259 311.835 63.9832 301.903 63.9832C291.971 63.9832 283.919 72.5259 283.919 83.0639C283.919 93.6018 291.971 102.145 301.903 102.145Z" fill="url(#paint6_radial_329_862)"/>
<path d="M301.903 93.3162C307.239 93.3162 311.565 88.726 311.565 83.0638C311.565 77.4016 307.239 72.8115 301.903 72.8115C296.567 72.8115 292.241 77.4016 292.241 83.0638C292.241 88.726 296.567 93.3162 301.903 93.3162Z" fill="url(#paint7_radial_329_862)"/>
<path d="M302.029 75.6451C302.237 75.6451 302.405 75.4665 302.405 75.2463C302.405 75.0262 302.237 74.8477 302.029 74.8477C301.822 74.8477 301.653 75.0262 301.653 75.2463C301.653 75.4665 301.822 75.6451 302.029 75.6451Z" fill="black"/>
<path d="M298.904 76.3201C299.112 76.3201 299.28 76.1416 299.28 75.9214C299.28 75.7012 299.112 75.5227 298.904 75.5227C298.696 75.5227 298.528 75.7012 298.528 75.9214C298.528 76.1416 298.696 76.3201 298.904 76.3201Z" fill="black"/>
<path d="M296.34 78.3362C296.546 78.3362 296.713 78.1577 296.713 77.9375C296.713 77.7173 296.546 77.5388 296.34 77.5388C296.133 77.5388 295.966 77.7173 295.966 77.9375C295.966 78.1577 296.133 78.3362 296.34 78.3362Z" fill="black"/>
<path d="M294.819 81.3123C295.027 81.3123 295.195 81.1338 295.195 80.9136C295.195 80.6934 295.027 80.5149 294.819 80.5149C294.612 80.5149 294.443 80.6934 294.443 80.9136C294.443 81.1338 294.612 81.3123 294.819 81.3123Z" fill="black"/>
<path d="M294.625 84.69C294.833 84.69 295.002 84.5115 295.002 84.2913C295.002 84.0711 294.833 83.8926 294.625 83.8926C294.418 83.8926 294.25 84.0711 294.25 84.2913C294.25 84.5115 294.418 84.69 294.625 84.69Z" fill="black"/>
<path d="M295.797 87.8367C296.005 87.8367 296.173 87.6582 296.173 87.438C296.173 87.2178 296.005 87.0393 295.797 87.0393C295.59 87.0393 295.421 87.2178 295.421 87.438C295.421 87.6582 295.59 87.8367 295.797 87.8367Z" fill="black"/>
<path d="M298.111 90.1663C298.317 90.1663 298.484 89.9878 298.484 89.7676C298.484 89.5474 298.317 89.3689 298.111 89.3689C297.904 89.3689 297.737 89.5474 297.737 89.7676C297.737 89.9878 297.904 90.1663 298.111 90.1663Z" fill="black"/>
<path d="M301.138 91.24C301.345 91.24 301.512 91.0615 301.512 90.8413C301.512 90.6211 301.345 90.4426 301.138 90.4426C300.932 90.4426 300.765 90.6211 300.765 90.8413C300.765 91.0615 300.932 91.24 301.138 91.24Z" fill="black"/>
<path d="M304.307 90.8555C304.514 90.8555 304.683 90.677 304.683 90.4568C304.683 90.2366 304.514 90.0581 304.307 90.0581C304.099 90.0581 303.931 90.2366 303.931 90.4568C303.931 90.677 304.099 90.8555 304.307 90.8555Z" fill="black"/>
<path d="M307.026 89.0843C307.234 89.0843 307.402 88.9058 307.402 88.6856C307.402 88.4654 307.234 88.2869 307.026 88.2869C306.818 88.2869 306.65 88.4654 306.65 88.6856C306.65 88.9058 306.818 89.0843 307.026 89.0843Z" fill="black"/>
<path d="M308.784 86.262C308.991 86.262 309.16 86.0835 309.16 85.8633C309.16 85.6431 308.991 85.4646 308.784 85.4646C308.576 85.4646 308.408 85.6431 308.408 85.8633C308.408 86.0835 308.576 86.262 308.784 86.262Z" fill="black"/>
<path d="M309.255 82.9129C309.463 82.9129 309.631 82.7344 309.631 82.5142C309.631 82.294 309.463 82.1155 309.255 82.1155C309.048 82.1155 308.879 82.294 308.879 82.5142C308.879 82.7344 309.048 82.9129 309.255 82.9129Z" fill="black"/>
<path d="M308.348 79.6692C308.554 79.6692 308.721 79.4907 308.721 79.2705C308.721 79.0503 308.554 78.8718 308.348 78.8718C308.142 78.8718 307.975 79.0503 307.975 79.2705C307.975 79.4907 308.142 79.6692 308.348 79.6692Z" fill="black"/>
<path d="M306.233 77.1346C306.439 77.1346 306.606 76.9561 306.606 76.7359C306.606 76.5157 306.439 76.3372 306.233 76.3372C306.027 76.3372 305.86 76.5157 305.86 76.7359C305.86 76.9561 306.027 77.1346 306.233 77.1346Z" fill="black"/>
<path d="M123.431 102.714C133.363 102.714 141.415 94.1712 141.415 83.6332C141.415 73.0952 133.363 64.5525 123.431 64.5525C113.499 64.5525 105.448 73.0952 105.448 83.6332C105.448 94.1712 113.499 102.714 123.431 102.714Z" fill="url(#paint8_radial_329_862)"/>
<path d="M123.431 93.8857C128.767 93.8857 133.093 89.2956 133.093 83.6334C133.093 77.9712 128.767 73.3811 123.431 73.3811C118.095 73.3811 113.769 77.9712 113.769 83.6334C113.769 89.2956 118.095 93.8857 123.431 93.8857Z" fill="url(#paint9_radial_329_862)"/>
<path d="M123.557 76.2146C123.764 76.2146 123.933 76.0361 123.933 75.8159C123.933 75.5957 123.764 75.4172 123.557 75.4172C123.349 75.4172 123.181 75.5957 123.181 75.8159C123.181 76.0361 123.349 76.2146 123.557 76.2146Z" fill="black"/>
<path d="M120.432 76.8897C120.639 76.8897 120.808 76.7112 120.808 76.491C120.808 76.2708 120.639 76.0923 120.432 76.0923C120.224 76.0923 120.056 76.2708 120.056 76.491C120.056 76.7112 120.224 76.8897 120.432 76.8897Z" fill="black"/>
<path d="M117.867 78.9058C118.074 78.9058 118.241 78.7273 118.241 78.5071C118.241 78.2869 118.074 78.1084 117.867 78.1084C117.661 78.1084 117.494 78.2869 117.494 78.5071C117.494 78.7273 117.661 78.9058 117.867 78.9058Z" fill="black"/>
<path d="M116.347 81.8819C116.555 81.8819 116.723 81.7034 116.723 81.4832C116.723 81.263 116.555 81.0845 116.347 81.0845C116.14 81.0845 115.971 81.263 115.971 81.4832C115.971 81.7034 116.14 81.8819 116.347 81.8819Z" fill="black"/>
<path d="M116.153 85.2596C116.361 85.2596 116.529 85.0811 116.529 84.8609C116.529 84.6407 116.361 84.4622 116.153 84.4622C115.946 84.4622 115.777 84.6407 115.777 84.8609C115.777 85.0811 115.946 85.2596 116.153 85.2596Z" fill="black"/>
<path d="M117.325 88.4063C117.533 88.4063 117.701 88.2278 117.701 88.0076C117.701 87.7874 117.533 87.6089 117.325 87.6089C117.118 87.6089 116.949 87.7874 116.949 88.0076C116.949 88.2278 117.118 88.4063 117.325 88.4063Z" fill="black"/>
<path d="M119.639 90.7359C119.845 90.7359 120.012 90.5574 120.012 90.3372C120.012 90.117 119.845 89.9385 119.639 89.9385C119.433 89.9385 119.266 90.117 119.266 90.3372C119.266 90.5574 119.433 90.7359 119.639 90.7359Z" fill="black"/>
<path d="M122.666 91.8096C122.872 91.8096 123.039 91.6311 123.039 91.4109C123.039 91.1907 122.872 91.0122 122.666 91.0122C122.46 91.0122 122.292 91.1907 122.292 91.4109C122.292 91.6311 122.46 91.8096 122.666 91.8096Z" fill="black"/>
<path d="M125.835 91.4251C126.043 91.4251 126.211 91.2466 126.211 91.0264C126.211 90.8062 126.043 90.6277 125.835 90.6277C125.627 90.6277 125.459 90.8062 125.459 91.0264C125.459 91.2466 125.627 91.4251 125.835 91.4251Z" fill="black"/>
<path d="M128.554 89.6536C128.762 89.6536 128.93 89.4751 128.93 89.2549C128.93 89.0347 128.762 88.8562 128.554 88.8562C128.347 88.8562 128.178 89.0347 128.178 89.2549C128.178 89.4751 128.347 89.6536 128.554 89.6536Z" fill="black"/>
<path d="M130.311 86.8316C130.519 86.8316 130.687 86.6531 130.687 86.4329C130.687 86.2127 130.519 86.0342 130.311 86.0342C130.103 86.0342 129.935 86.2127 129.935 86.4329C129.935 86.6531 130.103 86.8316 130.311 86.8316Z" fill="black"/>
<path d="M130.783 83.4825C130.99 83.4825 131.159 83.304 131.159 83.0838C131.159 82.8636 130.99 82.6851 130.783 82.6851C130.575 82.6851 130.407 82.8636 130.407 83.0838C130.407 83.304 130.575 83.4825 130.783 83.4825Z" fill="black"/>
<path d="M129.875 80.2386C130.081 80.2386 130.249 80.06 130.249 79.8399C130.249 79.6197 130.081 79.4412 129.875 79.4412C129.669 79.4412 129.502 79.6197 129.502 79.8399C129.502 80.06 129.669 80.2386 129.875 80.2386Z" fill="black"/>
<path d="M127.761 77.7041C127.968 77.7041 128.135 77.5256 128.135 77.3054C128.135 77.0852 127.968 76.9067 127.761 76.9067C127.555 76.9067 127.388 77.0852 127.388 77.3054C127.388 77.5256 127.555 77.7041 127.761 77.7041Z" fill="black"/>
<path d="M82.0152 102.714C91.9472 102.714 99.9986 94.1712 99.9986 83.6332C99.9986 73.0952 91.9472 64.5525 82.0152 64.5525C72.0832 64.5525 64.0317 73.0952 64.0317 83.6332C64.0317 94.1712 72.0832 102.714 82.0152 102.714Z" fill="url(#paint10_radial_329_862)"/>
<path d="M82.0146 93.8857C87.3507 93.8857 91.6766 89.2956 91.6766 83.6334C91.6766 77.9712 87.3507 73.3811 82.0146 73.3811C76.6784 73.3811 72.3525 77.9712 72.3525 83.6334C72.3525 89.2956 76.6784 93.8857 82.0146 93.8857Z" fill="url(#paint11_radial_329_862)"/>
<path d="M82.1397 76.2146C82.3474 76.2146 82.5157 76.0361 82.5157 75.8159C82.5157 75.5957 82.3474 75.4172 82.1397 75.4172C81.932 75.4172 81.7637 75.5957 81.7637 75.8159C81.7637 76.0361 81.932 76.2146 82.1397 76.2146Z" fill="black"/>
<path d="M79.0152 76.8897C79.2228 76.8897 79.3912 76.7112 79.3912 76.491C79.3912 76.2708 79.2228 76.0923 79.0152 76.0923C78.8075 76.0923 78.6392 76.2708 78.6392 76.491C78.6392 76.7112 78.8075 76.8897 79.0152 76.8897Z" fill="black"/>
<path d="M76.4509 78.9058C76.6571 78.9058 76.8242 78.7273 76.8242 78.5071C76.8242 78.2869 76.6571 78.1084 76.4509 78.1084C76.2448 78.1084 76.0776 78.2869 76.0776 78.5071C76.0776 78.7273 76.2448 78.9058 76.4509 78.9058Z" fill="black"/>
<path d="M74.9307 81.8819C75.1384 81.8819 75.3067 81.7034 75.3067 81.4832C75.3067 81.263 75.1384 81.0845 74.9307 81.0845C74.723 81.0845 74.5547 81.263 74.5547 81.4832C74.5547 81.7034 74.723 81.8819 74.9307 81.8819Z" fill="black"/>
<path d="M74.7373 85.2596C74.945 85.2596 75.1134 85.0811 75.1134 84.8609C75.1134 84.6407 74.945 84.4622 74.7373 84.4622C74.5297 84.4622 74.3613 84.6407 74.3613 84.8609C74.3613 85.0811 74.5297 85.2596 74.7373 85.2596Z" fill="black"/>
<path d="M75.9087 88.4063C76.1164 88.4063 76.2848 88.2278 76.2848 88.0076C76.2848 87.7874 76.1164 87.6089 75.9087 87.6089C75.7011 87.6089 75.5327 87.7874 75.5327 88.0076C75.5327 88.2278 75.7011 88.4063 75.9087 88.4063Z" fill="black"/>
<path d="M78.2219 90.7359C78.4281 90.7359 78.5952 90.5574 78.5952 90.3372C78.5952 90.117 78.4281 89.9385 78.2219 89.9385C78.0158 89.9385 77.8486 90.117 77.8486 90.3372C77.8486 90.5574 78.0158 90.7359 78.2219 90.7359Z" fill="black"/>
<path d="M81.2493 91.8096C81.4554 91.8096 81.6226 91.6311 81.6226 91.4109C81.6226 91.1907 81.4554 91.0122 81.2493 91.0122C81.0431 91.0122 80.876 91.1907 80.876 91.4109C80.876 91.6311 81.0431 91.8096 81.2493 91.8096Z" fill="black"/>
<path d="M84.418 91.4251C84.6257 91.4251 84.794 91.2466 84.794 91.0264C84.794 90.8062 84.6257 90.6277 84.418 90.6277C84.2103 90.6277 84.042 90.8062 84.042 91.0264C84.042 91.2466 84.2103 91.4251 84.418 91.4251Z" fill="black"/>
<path d="M87.1372 89.6536C87.3449 89.6536 87.5133 89.4751 87.5133 89.2549C87.5133 89.0347 87.3449 88.8562 87.1372 88.8562C86.9296 88.8562 86.7612 89.0347 86.7612 89.2549C86.7612 89.4751 86.9296 89.6536 87.1372 89.6536Z" fill="black"/>
<path d="M88.8951 86.8316C89.1027 86.8316 89.2711 86.6531 89.2711 86.4329C89.2711 86.2127 89.1027 86.0342 88.8951 86.0342C88.6874 86.0342 88.519 86.2127 88.519 86.4329C88.519 86.6531 88.6874 86.8316 88.8951 86.8316Z" fill="black"/>
<path d="M89.3663 83.4825C89.5739 83.4825 89.7423 83.304 89.7423 83.0838C89.7423 82.8636 89.5739 82.6851 89.3663 82.6851C89.1586 82.6851 88.9902 82.8636 88.9902 83.0838C88.9902 83.304 89.1586 83.4825 89.3663 83.4825Z" fill="black"/>
<path d="M88.4592 80.2386C88.6654 80.2386 88.8325 80.06 88.8325 79.8399C88.8325 79.6197 88.6654 79.4412 88.4592 79.4412C88.2531 79.4412 88.0859 79.6197 88.0859 79.8399C88.0859 80.06 88.2531 80.2386 88.4592 80.2386Z" fill="black"/>
<path d="M86.3445 77.7041C86.5506 77.7041 86.7178 77.5256 86.7178 77.3054C86.7178 77.0852 86.5506 76.9067 86.3445 76.9067C86.1383 76.9067 85.9712 77.0852 85.9712 77.3054C85.9712 77.5256 86.1383 77.7041 86.3445 77.7041Z" fill="black"/>
<path d="M40.5982 102.714C50.5302 102.714 58.5816 94.1712 58.5816 83.6332C58.5816 73.0952 50.5302 64.5525 40.5982 64.5525C30.6662 64.5525 22.6147 73.0952 22.6147 83.6332C22.6147 94.1712 30.6662 102.714 40.5982 102.714Z" fill="url(#paint12_radial_329_862)"/>
<path d="M40.5985 93.8857C45.9347 93.8857 50.2606 89.2956 50.2606 83.6334C50.2606 77.9712 45.9347 73.3811 40.5985 73.3811C35.2624 73.3811 30.9365 77.9712 30.9365 83.6334C30.9365 89.2956 35.2624 93.8857 40.5985 93.8857Z" fill="url(#paint13_radial_329_862)"/>
<path d="M40.7242 76.2146C40.9318 76.2146 41.1002 76.0361 41.1002 75.8159C41.1002 75.5957 40.9318 75.4172 40.7242 75.4172C40.5165 75.4172 40.3481 75.5957 40.3481 75.8159C40.3481 76.0361 40.5165 76.2146 40.7242 76.2146Z" fill="black"/>
<path d="M37.5987 76.8897C37.8063 76.8897 37.9747 76.7112 37.9747 76.491C37.9747 76.2708 37.8063 76.0923 37.5987 76.0923C37.391 76.0923 37.2227 76.2708 37.2227 76.491C37.2227 76.7112 37.391 76.8897 37.5987 76.8897Z" fill="black"/>
<path d="M35.0344 78.9058C35.2406 78.9058 35.4077 78.7273 35.4077 78.5071C35.4077 78.2869 35.2406 78.1084 35.0344 78.1084C34.8283 78.1084 34.6611 78.2869 34.6611 78.5071C34.6611 78.7273 34.8283 78.9058 35.0344 78.9058Z" fill="black"/>
<path d="M33.5147 81.8819C33.7224 81.8819 33.8907 81.7034 33.8907 81.4832C33.8907 81.263 33.7224 81.0845 33.5147 81.0845C33.307 81.0845 33.1387 81.263 33.1387 81.4832C33.1387 81.7034 33.307 81.8819 33.5147 81.8819Z" fill="black"/>
<path d="M33.3208 85.2596C33.5285 85.2596 33.6969 85.0811 33.6969 84.8609C33.6969 84.6407 33.5285 84.4622 33.3208 84.4622C33.1132 84.4622 32.9448 84.6407 32.9448 84.8609C32.9448 85.0811 33.1132 85.2596 33.3208 85.2596Z" fill="black"/>
<path d="M34.4922 88.4063C34.6999 88.4063 34.8682 88.2278 34.8682 88.0076C34.8682 87.7874 34.6999 87.6089 34.4922 87.6089C34.2846 87.6089 34.1162 87.7874 34.1162 88.0076C34.1162 88.2278 34.2846 88.4063 34.4922 88.4063Z" fill="black"/>
<path d="M36.8059 90.7359C37.0121 90.7359 37.1792 90.5574 37.1792 90.3372C37.1792 90.117 37.0121 89.9385 36.8059 89.9385C36.5997 89.9385 36.4326 90.117 36.4326 90.3372C36.4326 90.5574 36.5997 90.7359 36.8059 90.7359Z" fill="black"/>
<path d="M39.8333 91.8096C40.0394 91.8096 40.2065 91.6311 40.2065 91.4109C40.2065 91.1907 40.0394 91.0122 39.8333 91.0122C39.6271 91.0122 39.46 91.1907 39.46 91.4109C39.46 91.6311 39.6271 91.8096 39.8333 91.8096Z" fill="black"/>
<path d="M43.002 91.4251C43.2097 91.4251 43.378 91.2466 43.378 91.0264C43.378 90.8062 43.2097 90.6277 43.002 90.6277C42.7943 90.6277 42.626 90.8062 42.626 91.0264C42.626 91.2466 42.7943 91.4251 43.002 91.4251Z" fill="black"/>
<path d="M45.7207 89.6536C45.9284 89.6536 46.0968 89.4751 46.0968 89.2549C46.0968 89.0347 45.9284 88.8562 45.7207 88.8562C45.5131 88.8562 45.3447 89.0347 45.3447 89.2549C45.3447 89.4751 45.5131 89.6536 45.7207 89.6536Z" fill="black"/>
<path d="M47.4786 86.8316C47.6862 86.8316 47.8546 86.6531 47.8546 86.4329C47.8546 86.2127 47.6862 86.0342 47.4786 86.0342C47.2709 86.0342 47.1025 86.2127 47.1025 86.4329C47.1025 86.6531 47.2709 86.8316 47.4786 86.8316Z" fill="black"/>
<path d="M47.9502 83.4825C48.1579 83.4825 48.3263 83.304 48.3263 83.0838C48.3263 82.8636 48.1579 82.6851 47.9502 82.6851C47.7426 82.6851 47.5742 82.8636 47.5742 83.0838C47.5742 83.304 47.7426 83.4825 47.9502 83.4825Z" fill="black"/>
<path d="M47.0427 80.2386C47.2489 80.2386 47.416 80.06 47.416 79.8399C47.416 79.6197 47.2489 79.4412 47.0427 79.4412C46.8366 79.4412 46.6694 79.6197 46.6694 79.8399C46.6694 80.06 46.8366 80.2386 47.0427 80.2386Z" fill="black"/>
<path d="M44.929 77.7041C45.1351 77.7041 45.3023 77.5256 45.3023 77.3054C45.3023 77.0852 45.1351 76.9067 44.929 76.9067C44.7228 76.9067 44.5557 77.0852 44.5557 77.3054C44.5557 77.5256 44.7228 77.7041 44.929 77.7041Z" fill="black"/>
<path d="M374.974 62.2744H326.925C325.597 62.2744 324.52 63.4003 324.52 64.7891V84.5362C324.52 85.925 325.597 87.0509 326.925 87.0509H374.974C376.303 87.0509 377.38 85.925 377.38 84.5362V64.7891C377.38 63.4003 376.303 62.2744 374.974 62.2744Z" fill="url(#paint14_linear_329_862)"/>
<path d="M382.012 6.72097L381.74 66.2613L388.007 66.5461C388.007 66.5461 395.364 55.4394 410.077 56.5786C410.077 56.5786 428.878 58.0025 430.241 77.368L439.505 77.6528C439.505 77.6528 440.867 78.2223 441.685 74.8049C442.341 72.0567 443.352 48.3197 443.723 39.1297C443.818 36.7351 443.532 34.3406 442.875 32.0442L435.118 5.12616C434.814 3.71075 434.071 2.44022 433.004 1.51288C431.937 0.585534 430.606 0.0535636 429.219 0L388.527 0.150937C387.683 0.118775 386.841 0.264936 386.051 0.58068C385.262 0.896425 384.542 1.37527 383.934 1.98859C383.325 2.6019 382.842 3.3371 382.512 4.15022C382.182 4.96334 382.012 5.83767 382.012 6.72097V6.72097Z" fill="url(#paint15_linear_329_862)"/>
<path d="M430.785 78.7919C430.785 78.7919 431.875 55.1546 419.341 46.3262C406.807 37.4978 396.181 48.0349 396.181 48.0349C396.181 48.0349 387.189 56.009 386.099 77.6527H388.279C388.279 77.6527 392.639 61.1351 401.085 58.0025C409.532 54.8698 417.025 58.572 417.025 58.572C417.025 58.572 424.246 63.1286 428.605 78.5071L430.785 78.7919Z" fill="url(#paint16_radial_329_862)"/>
<path d="M396.908 7.31055H388.734C387.58 7.31055 386.644 8.2885 386.644 9.49486V21.4901C386.644 22.6964 387.58 23.6744 388.734 23.6744H396.908C398.062 23.6744 398.998 22.6964 398.998 21.4901V9.49486C398.998 8.2885 398.062 7.31055 396.908 7.31055Z" fill="url(#paint17_linear_329_862)" stroke="black" stroke-miterlimit="10"/>
<path d="M423.837 10.0159L423.973 32.0385C423.973 32.3254 424.027 32.6096 424.132 32.8748C424.236 33.14 424.39 33.381 424.584 33.5839C424.779 33.7868 425.009 33.9476 425.263 34.0573C425.517 34.1669 425.789 34.2232 426.063 34.2228H432.875C433.15 34.2232 433.421 34.1669 433.675 34.0573C433.929 33.9476 434.159 33.7868 434.354 33.5839C434.548 33.381 434.702 33.14 434.806 32.8748C434.911 32.6096 434.965 32.3254 434.965 32.0385L428.425 9.79095C427.924 8.60339 427.491 7.60664 426.336 7.60664C426.336 7.59525 423.973 8.07084 423.837 10.0159Z" fill="url(#paint18_linear_329_862)" stroke="black" stroke-miterlimit="10"/>
<path d="M418.886 7.46436H405.254C404.1 7.46436 403.164 8.4423 403.164 9.64866V21.6439C403.164 22.8502 404.1 23.8282 405.254 23.8282H418.886C420.04 23.8282 420.976 22.8502 420.976 21.6439V9.64866C420.976 8.4423 420.04 7.46436 418.886 7.46436Z" fill="url(#paint19_linear_329_862)" stroke="black" stroke-miterlimit="10"/>
<path d="M435.325 5.65869C435.325 5.65869 430.921 5.74412 431.739 9.16156C432.556 12.579 438.823 31.9445 438.823 31.9445C438.823 31.9445 440 37.0336 443.635 36.0568C443.41 33.7152 442.883 31.4161 442.068 29.2219L435.325 5.65869Z" fill="url(#paint20_linear_329_862)" stroke="black" stroke-miterlimit="10"/>
<path d="M409.954 45.7566H407.202C406.984 45.7566 406.807 45.9415 406.807 46.1695V46.7676C406.807 46.9956 406.984 47.1805 407.202 47.1805H409.954C410.172 47.1805 410.349 46.9956 410.349 46.7676V46.1695C410.349 45.9415 410.172 45.7566 409.954 45.7566Z" fill="#CE631B"/>
<path d="M441.755 42.3394H437.526C437.325 42.3394 437.161 42.5102 437.161 42.721V43.9512C437.161 44.162 437.325 44.3329 437.526 44.3329H441.755C441.957 44.3329 442.12 44.162 442.12 43.9512V42.721C442.12 42.5102 441.957 42.3394 441.755 42.3394Z" fill="#CE631B"/>
<path d="M440.014 65.407H430.003C429.833 65.407 429.695 65.5504 429.695 65.7274C429.695 65.9043 429.833 66.0478 430.003 66.0478H440.014C440.184 66.0478 440.322 65.9043 440.322 65.7274C440.322 65.5504 440.184 65.407 440.014 65.407Z" fill="#212121"/>
<path d="M428.333 10.7278H386.099V8.07079C386.099 7.78384 386.153 7.49963 386.257 7.23445C386.362 6.96927 386.516 6.72832 386.71 6.52541C386.905 6.32251 387.135 6.16163 387.389 6.05199C387.643 5.94235 387.914 5.8861 388.189 5.88648H426.243C426.518 5.8861 426.79 5.94235 427.043 6.05199C427.297 6.16163 427.528 6.32251 427.722 6.52541C427.916 6.72832 428.07 6.96927 428.175 7.23445C428.28 7.49963 428.333 7.78384 428.333 8.07079V10.7278Z" fill="url(#paint21_linear_329_862)"/>
<path d="M443.414 46.4688C443.414 46.4688 441.411 46.3264 441.139 48.3199C440.866 50.3134 440.321 60.8505 440.321 60.8505C440.321 60.8505 440.267 63.1516 442.61 63.1288L443.414 46.4688Z" fill="url(#paint22_linear_329_862)"/>
<path d="M440.65 65.5197L442.553 65.6522C442.994 65.6821 443.425 65.8026 443.821 66.0067C444.217 66.2108 444.571 66.4945 444.862 66.8416C445.153 67.1888 445.376 67.5925 445.517 68.0297C445.659 68.4669 445.717 68.929 445.688 69.3896L445.319 75.1722C445.259 76.1009 444.849 76.9667 444.179 77.5794C443.508 78.1921 442.632 78.5015 441.744 78.4397L439.841 78.3072C439.65 78.2939 439.471 78.2018 439.345 78.0512C439.219 77.9006 439.156 77.7037 439.168 77.504L439.887 66.223C439.9 66.0233 439.988 65.837 440.132 65.7052C440.276 65.5734 440.464 65.5068 440.656 65.5201L440.65 65.5197Z" fill="url(#paint23_linear_329_862)"/>
<path d="M433.238 76.7985V73.9164C433.233 73.5308 433.315 73.1494 433.477 72.8031C433.64 72.4568 433.878 72.1553 434.172 71.9229C434.717 71.5157 435.434 71.3533 436.284 72.1337C436.528 72.3685 436.723 72.6543 436.855 72.9727C436.988 73.291 437.055 73.6348 437.052 73.9819V76.7985H433.238Z" fill="url(#paint24_linear_329_862)"/>
<path d="M334.329 61.7048H333.784V87.6204H334.329V61.7048Z" fill="url(#paint25_linear_329_862)"/>
<path d="M350.949 61.7048H350.405V87.6204H350.949V61.7048Z" fill="url(#paint26_linear_329_862)"/>
<path d="M367.57 61.7048H367.026V87.6204H367.57V61.7048Z" fill="url(#paint27_linear_329_862)"/>
<path d="M381.74 49.7437V66.2613L387.511 66.5233C387.511 66.5233 389.434 57.3332 393.761 50.9739L381.74 49.7437Z" fill="url(#paint28_linear_329_862)"/>
<path d="M282.286 83.6334C282.286 83.6334 281.741 71.1027 292.367 65.1222C302.994 59.1417 311.985 64.5527 311.985 64.5527C311.985 64.5527 320.977 68.8245 321.25 82.4942H322.885C322.885 82.4942 323.702 68.8245 312.803 63.1287C312.803 63.1287 303.266 57.1482 292.367 62.8439C292.367 62.8439 279.288 69.1092 280.923 83.9181L282.286 83.6334Z" fill="url(#paint29_linear_329_862)"/>
<path d="M257.217 102.145C267.149 102.145 275.201 93.6018 275.201 83.0639C275.201 72.5259 267.149 63.9832 257.217 63.9832C247.285 63.9832 239.234 72.5259 239.234 83.0639C239.234 93.6018 247.285 102.145 257.217 102.145Z" fill="url(#paint30_radial_329_862)"/>
<path d="M257.218 93.3162C262.554 93.3162 266.88 88.726 266.88 83.0638C266.88 77.4016 262.554 72.8115 257.218 72.8115C251.882 72.8115 247.556 77.4016 247.556 83.0638C247.556 88.726 251.882 93.3162 257.218 93.3162Z" fill="url(#paint31_radial_329_862)"/>
<path d="M257.343 75.6451C257.551 75.6451 257.719 75.4665 257.719 75.2463C257.719 75.0262 257.551 74.8477 257.343 74.8477C257.136 74.8477 256.967 75.0262 256.967 75.2463C256.967 75.4665 257.136 75.6451 257.343 75.6451Z" fill="black"/>
<path d="M254.217 76.3201C254.425 76.3201 254.593 76.1416 254.593 75.9214C254.593 75.7012 254.425 75.5227 254.217 75.5227C254.01 75.5227 253.841 75.7012 253.841 75.9214C253.841 76.1416 254.01 76.3201 254.217 76.3201Z" fill="black"/>
<path d="M251.654 78.3362C251.86 78.3362 252.027 78.1577 252.027 77.9375C252.027 77.7173 251.86 77.5388 251.654 77.5388C251.447 77.5388 251.28 77.7173 251.28 77.9375C251.28 78.1577 251.447 78.3362 251.654 78.3362Z" fill="black"/>
<path d="M250.133 81.3123C250.341 81.3123 250.509 81.1338 250.509 80.9136C250.509 80.6934 250.341 80.5149 250.133 80.5149C249.925 80.5149 249.757 80.6934 249.757 80.9136C249.757 81.1338 249.925 81.3123 250.133 81.3123Z" fill="black"/>
<path d="M249.939 84.69C250.147 84.69 250.315 84.5115 250.315 84.2913C250.315 84.0711 250.147 83.8926 249.939 83.8926C249.731 83.8926 249.563 84.0711 249.563 84.2913C249.563 84.5115 249.731 84.69 249.939 84.69Z" fill="black"/>
<path d="M251.111 87.8367C251.319 87.8367 251.487 87.6582 251.487 87.438C251.487 87.2178 251.319 87.0393 251.111 87.0393C250.904 87.0393 250.735 87.2178 250.735 87.438C250.735 87.6582 250.904 87.8367 251.111 87.8367Z" fill="black"/>
<path d="M253.425 90.1663C253.631 90.1663 253.798 89.9878 253.798 89.7676C253.798 89.5474 253.631 89.3689 253.425 89.3689C253.218 89.3689 253.051 89.5474 253.051 89.7676C253.051 89.9878 253.218 90.1663 253.425 90.1663Z" fill="black"/>
<path d="M256.452 91.24C256.658 91.24 256.825 91.0615 256.825 90.8413C256.825 90.6211 256.658 90.4426 256.452 90.4426C256.246 90.4426 256.079 90.6211 256.079 90.8413C256.079 91.0615 256.246 91.24 256.452 91.24Z" fill="black"/>
<path d="M259.621 90.8555C259.828 90.8555 259.997 90.677 259.997 90.4568C259.997 90.2366 259.828 90.0581 259.621 90.0581C259.413 90.0581 259.245 90.2366 259.245 90.4568C259.245 90.677 259.413 90.8555 259.621 90.8555Z" fill="black"/>
<path d="M262.34 89.0843C262.548 89.0843 262.716 88.9058 262.716 88.6856C262.716 88.4654 262.548 88.2869 262.34 88.2869C262.132 88.2869 261.964 88.4654 261.964 88.6856C261.964 88.9058 262.132 89.0843 262.34 89.0843Z" fill="black"/>
<path d="M264.098 86.262C264.305 86.262 264.474 86.0835 264.474 85.8633C264.474 85.6431 264.305 85.4646 264.098 85.4646C263.89 85.4646 263.722 85.6431 263.722 85.8633C263.722 86.0835 263.89 86.262 264.098 86.262Z" fill="black"/>
<path d="M264.569 82.9129C264.777 82.9129 264.945 82.7344 264.945 82.5142C264.945 82.294 264.777 82.1155 264.569 82.1155C264.361 82.1155 264.193 82.294 264.193 82.5142C264.193 82.7344 264.361 82.9129 264.569 82.9129Z" fill="black"/>
<path d="M263.662 79.6692C263.868 79.6692 264.035 79.4907 264.035 79.2705C264.035 79.0503 263.868 78.8718 263.662 78.8718C263.456 78.8718 263.289 79.0503 263.289 79.2705C263.289 79.4907 263.456 79.6692 263.662 79.6692Z" fill="black"/>
<path d="M261.547 77.1346C261.753 77.1346 261.92 76.9561 261.92 76.7359C261.92 76.5157 261.753 76.3372 261.547 76.3372C261.341 76.3372 261.174 76.5157 261.174 76.7359C261.174 76.9561 261.341 77.1346 261.547 77.1346Z" fill="black"/>
<path d="M237.599 83.6334C237.599 83.6334 237.054 71.1027 247.681 65.1222C258.307 59.1417 267.299 64.5527 267.299 64.5527C267.299 64.5527 276.291 68.8245 276.563 82.4942H278.198C278.198 82.4942 279.015 68.8245 268.116 63.1287C268.116 63.1287 258.58 57.1482 247.681 62.8439C247.681 62.8439 234.602 69.1092 236.237 83.9181L237.599 83.6334Z" fill="url(#paint32_linear_329_862)"/>
<path d="M436.235 38.9219H381.74V41.2002H436.235V38.9219Z" fill="#D8A750"/>
<path d="M431.125 27.2455H430.921C430.827 27.2411 430.735 27.2174 430.65 27.1758C430.565 27.1342 430.489 27.0755 430.425 27.003C430.362 26.9305 430.313 26.8457 430.281 26.7534C430.249 26.6612 430.235 26.5632 430.24 26.4652C430.774 21.9581 430.969 17.4141 430.823 12.8752C430.831 12.677 430.915 12.4904 431.054 12.3564C431.194 12.2224 431.38 12.1519 431.569 12.1604H431.774C431.963 12.1692 432.142 12.2564 432.27 12.4027C432.398 12.549 432.466 12.7425 432.458 12.9407C432.918 17.4757 432.72 22.0573 431.872 26.5307C431.868 26.6291 431.846 26.7258 431.806 26.8151C431.767 26.9045 431.711 26.9847 431.641 27.0512C431.572 27.1177 431.491 27.1692 431.402 27.2025C431.313 27.2359 431.219 27.2505 431.125 27.2455Z" fill="#282828"/>
<path d="M430.513 9.30396C430.513 9.30396 433.782 9.58874 433.782 12.4366V17.8476C433.782 17.8476 433.949 20.3423 432.641 20.0917" stroke="#333333" stroke-width="2" stroke-miterlimit="10"/>
<path d="M146.864 83.3484L134.875 58.8568H29.1542L17.4377 81.6397H14.4404L27.7918 55.7241H136.782L149.589 83.3484H146.864Z" fill="url(#paint33_linear_329_862)"/>
<path d="M352.536 6.18243L4.88623 11.0024L5.40667 52.0081L353.056 47.1881L352.536 6.18243Z" fill="#82462F"/>
<path d="M352.428 6.02495L4.77832 10.845L4.80391 12.8611L352.453 8.04106L352.428 6.02495Z" fill="#5E2B1B"/>
<path d="M19.6167 10.5949L19.105 10.6008L19.5364 51.6076L20.0481 51.6017L19.6167 10.5949Z" fill="#5E2B1B"/>
<path d="M19.6167 10.5949L19.105 10.6008L19.5364 51.6076L20.0481 51.6017L19.6167 10.5949Z" fill="#5E2B1B"/>
<path d="M36.5126 10.3496L36.001 10.3555L36.4324 51.3623L36.9441 51.3564L36.5126 10.3496Z" fill="#5E2B1B"/>
<path d="M53.4047 10.1072L52.8931 10.113L53.3245 51.1198L53.8362 51.114L53.4047 10.1072Z" fill="#5E2B1B"/>
<path d="M70.3002 9.86448L69.7886 9.87036L70.22 50.8772L70.7317 50.8713L70.3002 9.86448Z" fill="#5E2B1B"/>
<path d="M87.1933 9.61912L86.6816 9.625L87.1131 50.6318L87.6247 50.6259L87.1933 9.61912Z" fill="#5E2B1B"/>
<path d="M104.085 9.37669L103.574 9.38257L104.005 50.3894L104.517 50.3835L104.085 9.37669Z" fill="#5E2B1B"/>
<path d="M120.983 9.13401L120.472 9.13989L120.903 50.1467L121.415 50.1408L120.983 9.13401Z" fill="#5E2B1B"/>
<path d="M137.877 8.88865L137.365 8.89453L137.797 49.9013L138.308 49.8954L137.877 8.88865Z" fill="#5E2B1B"/>
<path d="M154.769 8.64597L154.257 8.65186L154.689 49.6586L155.2 49.6528L154.769 8.64597Z" fill="#5E2B1B"/>
<path d="M171.663 8.40061L171.151 8.40649L171.582 49.4133L172.094 49.4074L171.663 8.40061Z" fill="#5E2B1B"/>
<path d="M188.56 8.15818L188.049 8.16406L188.48 49.1709L188.992 49.165L188.56 8.15818Z" fill="#5E2B1B"/>
<path d="M205.453 7.91551L204.941 7.92139L205.372 48.9282L205.884 48.9223L205.453 7.91551Z" fill="#5E2B1B"/>
<path d="M222.346 7.67014L221.834 7.67603L222.265 48.6828L222.777 48.6769L222.346 7.67014Z" fill="#5E2B1B"/>
<path d="M239.241 7.42771L238.729 7.43359L239.16 48.4404L239.672 48.4345L239.241 7.42771Z" fill="#5E2B1B"/>
<path d="M256.133 7.18504L255.622 7.19092L256.053 48.1977L256.565 48.1918L256.133 7.18504Z" fill="#5E2B1B"/>
<path d="M272.938 7.25686L272.426 7.26221L272.819 48.2715L273.33 48.2661L272.938 7.25686Z" fill="#5E2B1B"/>
<path d="M289.924 6.69724L289.413 6.70312L289.844 47.7099L290.356 47.704L289.924 6.69724Z" fill="#5E2B1B"/>
<path d="M306.817 6.45457L306.305 6.46045L306.737 47.4672L307.248 47.4614L306.817 6.45457Z" fill="#5E2B1B"/>
<path d="M323.71 6.20921L323.198 6.21509L323.63 47.2219L324.141 47.216L323.71 6.20921Z" fill="#5E2B1B"/>
<path d="M340.608 5.96385L340.096 5.96973L340.528 46.9765L341.039 46.9706L340.608 5.96385Z" fill="#5E2B1B"/>
<path d="M5.33984 46.07L10.6722 45.9817L6.07825 49.7523L5.38616 49.7637" fill="#C97D32"/>
<path d="M11.5472 49.6612L6.07861 49.7523L10.6726 45.9818L16.1412 45.8906L11.5472 49.6612Z" fill="#E2E1E0"/>
<path d="M16.7462 49.5757L11.2749 49.6669L15.8689 45.8963L21.3375 45.8052L16.7462 49.5757Z" fill="#C97D32"/>
<path d="M22.2147 49.4847L16.7461 49.5758L21.3373 45.8052L26.8087 45.7141L22.2147 49.4847Z" fill="#E2E1E0"/>
<path d="M27.411 49.399L21.9424 49.4901L26.5336 45.7196L32.0049 45.6284L27.411 49.399Z" fill="#C97D32"/>
<path d="M32.8825 49.3079L27.4111 49.3991L32.0051 45.6285L37.4764 45.5374L32.8825 49.3079Z" fill="#E2E1E0"/>
<path d="M38.0787 49.2225L32.6074 49.3136L37.2014 45.5402L42.6727 45.4519L38.0787 49.2225Z" fill="#C97D32"/>
<path d="M43.5467 49.1314L38.0781 49.2226L42.6721 45.452L48.1407 45.3608L43.5467 49.1314Z" fill="#E2E1E0"/>
<path d="M48.7453 49.0459L43.2739 49.137L47.8679 45.3636L53.3365 45.2725L48.7453 49.0459Z" fill="#C97D32"/>
<path d="M54.2142 48.9549L48.7456 49.046L53.3368 45.2726L58.8082 45.1843L54.2142 48.9549Z" fill="#E2E1E0"/>
<path d="M59.41 48.8694L53.9414 48.9605L58.5354 45.1871L64.004 45.0959L59.41 48.8694Z" fill="#C97D32"/>
<path d="M64.8815 48.7783L59.4102 48.8694L64.0041 45.096L69.4754 45.0049L64.8815 48.7783Z" fill="#E2E1E0"/>
<path d="M70.0783 48.6929L64.6069 48.784L69.2009 45.0106L74.6722 44.9194L70.0783 48.6929Z" fill="#C97D32"/>
<path d="M75.5485 48.6018L70.0771 48.6929L74.6711 44.9195L80.1397 44.8284L75.5485 48.6018Z" fill="#E2E1E0"/>
<path d="M80.7453 48.5163L75.2739 48.6046L79.8679 44.8341L85.3392 44.7429L80.7453 48.5163Z" fill="#C97D32"/>
<path d="M86.2137 48.425L80.7451 48.5162L85.3391 44.7427L90.8077 44.6516L86.2137 48.425Z" fill="#E2E1E0"/>
<path d="M91.41 48.337L85.9414 48.4281L90.5354 44.6575L96.004 44.5664L91.41 48.337Z" fill="#C97D32"/>
<path d="M96.8815 48.2485L91.4102 48.3368L96.0041 44.5662L101.475 44.4751L96.8815 48.2485Z" fill="#E2E1E0"/>
<path d="M102.077 48.1602L96.606 48.2514L101.2 44.4808L106.671 44.3896L102.077 48.1602Z" fill="#C97D32"/>
<path d="M107.549 48.0692L102.078 48.1603L106.672 44.3897L112.14 44.2986L107.549 48.0692Z" fill="#E2E1E0"/>
<path d="M112.744 47.9837L107.273 48.0748L111.867 44.3014L117.338 44.2131L112.744 47.9837Z" fill="#C97D32"/>
<path d="M118.214 47.8926L112.745 47.9838L117.339 44.2132L122.808 44.1221L118.214 47.8926Z" fill="#E2E1E0"/>
<path d="M123.41 47.8071L117.941 47.8982L122.535 44.1248L128.003 44.0337L123.41 47.8071Z" fill="#C97D32"/>
<path d="M128.881 47.7161L123.409 47.8073L128.003 44.0338L133.474 43.9456L128.881 47.7161Z" fill="#E2E1E0"/>
<path d="M134.078 47.6306L128.609 47.7217L133.201 43.9483L138.672 43.8572L134.078 47.6306Z" fill="#C97D32"/>
<path d="M139.548 47.5394L134.077 47.6305L138.671 43.8571L144.14 43.7688L139.548 47.5394Z" fill="#E2E1E0"/>
<path d="M144.745 47.4541L139.273 47.5452L143.867 43.7718L149.339 43.6807L144.745 47.4541Z" fill="#C97D32"/>
<path d="M150.213 47.3628L144.745 47.4539L149.339 43.6805L154.807 43.5894L150.213 47.3628Z" fill="#E2E1E0"/>
<path d="M155.412 47.2776L149.941 47.3659L154.535 43.5953L160.003 43.5042L155.412 47.2776Z" fill="#C97D32"/>
<path d="M160.88 47.1863L155.412 47.2774L160.003 43.504L165.474 43.4128L160.88 47.1863Z" fill="#E2E1E0"/>
<path d="M166.077 47.098L160.608 47.1891L165.202 43.4185L170.671 43.3274L166.077 47.098Z" fill="#C97D32"/>
<path d="M171.548 47.0098L166.077 47.098L170.671 43.3275L176.142 43.2363L171.548 47.0098Z" fill="#E2E1E0"/>
<path d="M176.744 46.9215L171.273 47.0126L175.867 43.242L181.338 43.1509L176.744 46.9215Z" fill="#C97D32"/>
<path d="M182.213 46.8304L176.745 46.9215L181.339 43.1509L186.807 43.0598L182.213 46.8304Z" fill="#E2E1E0"/>
<path d="M187.412 46.7449L181.94 46.8361L186.534 43.0655L192.006 42.9744L187.412 46.7449Z" fill="#C97D32"/>
<path d="M192.88 46.6539L187.412 46.745L192.006 42.9744L197.474 42.8833L192.88 46.6539Z" fill="#E2E1E0"/>
<path d="M198.076 46.5684L192.608 46.6596L197.202 42.889L202.67 42.7979L198.076 46.5684Z" fill="#C97D32"/>
<path d="M203.548 46.4771L198.076 46.5682L202.67 42.7977L208.141 42.7065L203.548 46.4771Z" fill="#E2E1E0"/>
<path d="M208.744 46.3917L203.273 46.4828L207.867 42.7094L213.338 42.6211L208.744 46.3917Z" fill="#C97D32"/>
<path d="M214.215 46.3006L208.744 46.3917L213.338 42.6212L218.806 42.53L214.215 46.3006Z" fill="#E2E1E0"/>
<path d="M219.412 46.2151L213.94 46.3062L218.534 42.5328L224.006 42.4417L219.412 46.2151Z" fill="#C97D32"/>
<path d="M224.88 46.1241L219.411 46.2152L224.005 42.4418L229.474 42.3535L224.88 46.1241Z" fill="#E2E1E0"/>
<path d="M230.076 46.0386L224.607 46.1297L229.201 42.3563L234.67 42.2651L230.076 46.0386Z" fill="#C97D32"/>
<path d="M235.548 45.9475L230.076 46.0386L234.67 42.2652L240.141 42.1741L235.548 45.9475Z" fill="#E2E1E0"/>
<path d="M240.744 45.862L235.275 45.9503L239.869 42.1798L245.338 42.0886L240.744 45.862Z" fill="#C97D32"/>
<path d="M246.215 45.771L240.744 45.8621L245.338 42.0887L250.809 41.9976L246.215 45.771Z" fill="#E2E1E0"/>
<path d="M251.411 45.6855L245.94 45.7738L250.534 42.0032L256.005 41.9121L251.411 45.6855Z" fill="#C97D32"/>
<path d="M256.88 45.5945L251.411 45.6856L256.005 41.9122L261.474 41.821L256.88 45.5945Z" fill="#E2E1E0"/>
<path d="M262.078 45.5062L256.607 45.5973L261.201 41.8267L266.67 41.7356L262.078 45.5062Z" fill="#C97D32"/>
<path d="M267.547 45.4177L262.079 45.506L266.67 41.7354L272.141 41.6443L267.547 45.4177Z" fill="#E2E1E0"/>
<path d="M272.744 45.3294L267.275 45.4205L271.869 41.65L277.337 41.5588L272.744 45.3294Z" fill="#C97D32"/>
<path d="M278.214 45.2383L272.743 45.3295L277.337 41.5589L282.808 41.4678L278.214 45.2383Z" fill="#E2E1E0"/>
<path d="M283.41 45.1529L277.939 45.244L282.533 41.4706L288.004 41.3823L283.41 45.1529Z" fill="#C97D32"/>
<path d="M288.882 45.0618L283.411 45.153L288.005 41.3824L293.474 41.2913L288.882 45.0618Z" fill="#E2E1E0"/>
<path d="M294.078 44.9763L288.606 45.0674L293.2 41.294L298.672 41.2029L294.078 44.9763Z" fill="#C97D32"/>
<path d="M299.547 44.8853L294.078 44.9765L298.672 41.203L304.141 41.1147L299.547 44.8853Z" fill="#E2E1E0"/>
<path d="M304.743 44.7998L299.274 44.8909L303.868 41.1175L309.337 41.0264L304.743 44.7998Z" fill="#C97D32"/>
<path d="M310.215 44.7087L304.743 44.7999L309.337 41.0264L314.808 40.9353L310.215 44.7087Z" fill="#E2E1E0"/>
<path d="M315.41 44.6233L309.939 44.7144L314.533 40.941L320.004 40.8499L315.41 44.6233Z" fill="#C97D32"/>
<path d="M320.882 44.5322L315.41 44.6233L320.004 40.8499L325.473 40.7588L320.882 44.5322Z" fill="#E2E1E0"/>
<path d="M326.078 44.4468L320.607 44.535L325.201 40.7645L330.672 40.6733L326.078 44.4468Z" fill="#C97D32"/>
<path d="M331.546 44.3555L326.077 44.4466L330.671 40.6732L336.14 40.582L331.546 44.3555Z" fill="#E2E1E0"/>
<path d="M336.745 44.2672L331.274 44.3583L335.868 40.5877L341.336 40.4966L336.745 44.2672Z" fill="#C97D32"/>
<path d="M342.214 44.1789L336.746 44.2672L341.337 40.4967L346.808 40.4055L342.214 44.1789Z" fill="#E2E1E0"/>
<path d="M347.41 44.0906L341.941 44.1818L346.532 40.4112L352.003 40.3201L347.41 44.0906Z" fill="#C97D32"/>
<path d="M353.129 44.0479L347.41 44.0906L352.004 40.3201L352.977 40.303" fill="#E2E1E0"/>
<path d="M376.521 9.30396H379.336C379.613 9.30396 379.878 9.41888 380.074 9.62343C380.27 9.82798 380.38 10.1054 380.38 10.3947V56.2938H375.475V10.3947C375.475 10.2512 375.502 10.1091 375.555 9.97662C375.607 9.8441 375.685 9.72374 375.782 9.62241C375.879 9.52109 375.994 9.44081 376.121 9.38617C376.248 9.33152 376.384 9.30358 376.521 9.30396Z" fill="url(#paint34_linear_329_862)"/>
<defs>
<linearGradient id="paint0_linear_329_862" x1="117.982" y1="77.3679" x2="117.982" y2="48.8152" gradientUnits="userSpaceOnUse">
<stop stop-color="#72543B"/>
<stop offset="0.1" stop-color="#795639"/>
<stop offset="0.25" stop-color="#8D5D35"/>
<stop offset="0.42" stop-color="#AA672E"/>
<stop offset="0.65" stop-color="#8C5D35"/>
<stop offset="0.85" stop-color="#795639"/>
<stop offset="0.99" stop-color="#72543B"/>
</linearGradient>
<linearGradient id="paint1_linear_329_862" x1="322.203" y1="58.0452" x2="322.203" y2="52.5916" gradientUnits="userSpaceOnUse">
<stop offset="0.01" stop-color="#1A1A1A"/>
<stop offset="0.21" stop-color="#1E1E1E"/>
<stop offset="0.4" stop-color="#292929"/>
<stop offset="0.58" stop-color="#3C3C3C"/>
<stop offset="0.75" stop-color="#565656"/>
<stop offset="0.84" stop-color="#666666"/>
<stop offset="0.88" stop-color="#626262"/>
<stop offset="0.93" stop-color="#575757"/>
<stop offset="0.97" stop-color="#444444"/>
<stop offset="1" stop-color="#333333"/>
</linearGradient>
<linearGradient id="paint2_linear_329_862" x1="322.203" y1="52.6343" x2="322.203" y2="47.1807" gradientUnits="userSpaceOnUse">
<stop offset="0.01" stop-color="#1A1A1A"/>
<stop offset="0.21" stop-color="#1E1E1E"/>
<stop offset="0.4" stop-color="#292929"/>
<stop offset="0.58" stop-color="#3C3C3C"/>
<stop offset="0.75" stop-color="#565656"/>
<stop offset="0.84" stop-color="#666666"/>
<stop offset="0.88" stop-color="#626262"/>
<stop offset="0.93" stop-color="#575757"/>
<stop offset="0.97" stop-color="#444444"/>
<stop offset="1" stop-color="#333333"/>
</linearGradient>
<radialGradient id="paint3_radial_329_862" cx="0" cy="0" r="1" gradientUnits="userSpaceOnUse" gradientTransform="translate(244.71 100.759) scale(243.349 3.91297)">
<stop offset="0.09"/>
<stop offset="0.87" stop-color="#484848" stop-opacity="0.53"/>
<stop offset="1" stop-color="#999999" stop-opacity="0"/>
</radialGradient>
<radialGradient id="paint4_radial_329_862" cx="0" cy="0" r="1" gradientUnits="userSpaceOnUse" gradientTransform="translate(409.944 83.5263) scale(18.0488 19.0693)">
<stop stop-color="#1A1A1A"/>
<stop offset="0.48" stop-color="#1C1C1C"/>
<stop offset="0.65" stop-color="#232323"/>
<stop offset="0.78" stop-color="#2E2E2E"/>
<stop offset="0.81" stop-color="#333333"/>
<stop offset="1" stop-color="#1A1A1A"/>
</radialGradient>
<radialGradient id="paint5_radial_329_862" cx="0" cy="0" r="1" gradientUnits="userSpaceOnUse" gradientTransform="translate(409.945 83.5264) scale(11.0299 11.6535)">
<stop stop-color="#1A1A1A"/>
<stop offset="0.44" stop-color="#1D1D1D"/>
<stop offset="0.76" stop-color="#262626"/>
<stop offset="1" stop-color="#333333"/>
</radialGradient>
<radialGradient id="paint6_radial_329_862" cx="0" cy="0" r="1" gradientUnits="userSpaceOnUse" gradientTransform="translate(303.019 82.9571) scale(0.125339 0.132426)">
<stop stop-color="#1A1A1A"/>
<stop offset="0.48" stop-color="#1C1C1C"/>
<stop offset="0.65" stop-color="#232323"/>
<stop offset="0.78" stop-color="#2E2E2E"/>
<stop offset="0.81" stop-color="#333333"/>
<stop offset="1" stop-color="#1A1A1A"/>
</radialGradient>
<radialGradient id="paint7_radial_329_862" cx="0" cy="0" r="1" gradientUnits="userSpaceOnUse" gradientTransform="translate(303.02 82.9571) scale(9.69876 10.2471)">
<stop offset="0.25" stop-color="#333333"/>
<stop offset="0.33"/>
<stop offset="0.64" stop-color="#020202"/>
<stop offset="0.76" stop-color="#090909"/>
<stop offset="0.84" stop-color="#141414"/>
<stop offset="0.9" stop-color="#252525"/>
<stop offset="0.94" stop-color="#333333"/>
<stop offset="1" stop-color="#1A1A1A"/>
</radialGradient>
<radialGradient id="paint8_radial_329_862" cx="0" cy="0" r="1" gradientUnits="userSpaceOnUse" gradientTransform="translate(123.897 83.5263) scale(0.125339 0.132426)">
<stop stop-color="#1A1A1A"/>
<stop offset="0.48" stop-color="#1C1C1C"/>
<stop offset="0.65" stop-color="#232323"/>
<stop offset="0.78" stop-color="#2E2E2E"/>
<stop offset="0.81" stop-color="#333333"/>
<stop offset="1" stop-color="#1A1A1A"/>
</radialGradient>
<radialGradient id="paint9_radial_329_862" cx="0" cy="0" r="1" gradientUnits="userSpaceOnUse" gradientTransform="translate(123.897 83.5265) scale(9.69875 10.2471)">
<stop offset="0.25" stop-color="#333333"/>
<stop offset="0.33"/>
<stop offset="0.64" stop-color="#020202"/>
<stop offset="0.76" stop-color="#090909"/>
<stop offset="0.84" stop-color="#141414"/>
<stop offset="0.9" stop-color="#252525"/>
<stop offset="0.94" stop-color="#333333"/>
<stop offset="1" stop-color="#1A1A1A"/>
</radialGradient>
<radialGradient id="paint10_radial_329_862" cx="0" cy="0" r="1" gradientUnits="userSpaceOnUse" gradientTransform="translate(82.3329 83.5263) scale(0.125339 0.132426)">
<stop stop-color="#1A1A1A"/>
<stop offset="0.48" stop-color="#1C1C1C"/>
<stop offset="0.65" stop-color="#232323"/>
<stop offset="0.78" stop-color="#2E2E2E"/>
<stop offset="0.81" stop-color="#333333"/>
<stop offset="1" stop-color="#1A1A1A"/>
</radialGradient>
<radialGradient id="paint11_radial_329_862" cx="0" cy="0" r="1" gradientUnits="userSpaceOnUse" gradientTransform="translate(82.3323 83.5265) scale(9.69875 10.2471)">
<stop offset="0.25" stop-color="#333333"/>
<stop offset="0.33"/>
<stop offset="0.64" stop-color="#020202"/>
<stop offset="0.76" stop-color="#090909"/>
<stop offset="0.84" stop-color="#141414"/>
<stop offset="0.9" stop-color="#252525"/>
<stop offset="0.94" stop-color="#333333"/>
<stop offset="1" stop-color="#1A1A1A"/>
</radialGradient>
<radialGradient id="paint12_radial_329_862" cx="0" cy="0" r="1" gradientUnits="userSpaceOnUse" gradientTransform="translate(40.7648 83.5263) scale(0.125339 0.132426)">
<stop stop-color="#1A1A1A"/>
<stop offset="0.48" stop-color="#1C1C1C"/>
<stop offset="0.65" stop-color="#232323"/>
<stop offset="0.78" stop-color="#2E2E2E"/>
<stop offset="0.81" stop-color="#333333"/>
<stop offset="1" stop-color="#1A1A1A"/>
</radialGradient>
<radialGradient id="paint13_radial_329_862" cx="0" cy="0" r="1" gradientUnits="userSpaceOnUse" gradientTransform="translate(40.7652 83.5265) scale(9.69875 10.2471)">
<stop offset="0.25" stop-color="#333333"/>
<stop offset="0.33"/>
<stop offset="0.64" stop-color="#020202"/>
<stop offset="0.76" stop-color="#090909"/>
<stop offset="0.84" stop-color="#141414"/>
<stop offset="0.9" stop-color="#252525"/>
<stop offset="0.94" stop-color="#333333"/>
<stop offset="1" stop-color="#1A1A1A"/>
</radialGradient>
<linearGradient id="paint14_linear_329_862" x1="350.95" y1="87.0509" x2="350.95" y2="62.2744" gradientUnits="userSpaceOnUse">
<stop offset="0.01" stop-color="#1A1A1A"/>
<stop offset="0.21" stop-color="#1E1E1E"/>
<stop offset="0.4" stop-color="#292929"/>
<stop offset="0.58" stop-color="#3C3C3C"/>
<stop offset="0.75" stop-color="#565656"/>
<stop offset="0.84" stop-color="#666666"/>
<stop offset="0.88" stop-color="#626262"/>
<stop offset="0.93" stop-color="#575757"/>
<stop offset="0.97" stop-color="#444444"/>
<stop offset="1" stop-color="#333333"/>
</linearGradient>
<linearGradient id="paint15_linear_329_862" x1="412.739" y1="77.6898" x2="412.739" y2="0.00569531" gradientUnits="userSpaceOnUse">
<stop stop-color="#CCCCCC"/>
<stop offset="0.23" stop-color="#C6C6C6"/>
<stop offset="0.54" stop-color="#B4B4B4"/>
<stop offset="0.56" stop-color="#B3B3B3"/>
<stop offset="0.65" stop-color="#CCCCCC"/>
<stop offset="0.76" stop-color="#E1E1E1"/>
<stop offset="0.86" stop-color="#EEEEEE"/>
<stop offset="0.96" stop-color="#F2F2F2"/>
<stop offset="0.97" stop-color="#EAEAEA"/>
<stop offset="0.99" stop-color="#E6E6E6"/>
</linearGradient>
<radialGradient id="paint16_radial_329_862" cx="0" cy="0" r="1" gradientUnits="userSpaceOnUse" gradientTransform="translate(409.134 70.6214) scale(19.9535 20.8549)">
<stop stop-color="#808080"/>
<stop offset="0.5" stop-color="#5C5C5C"/>
<stop offset="1" stop-color="#333333"/>
</radialGradient>
<linearGradient id="paint17_linear_329_862" x1="388.268" y1="23.7313" x2="397.988" y2="7.6257" gradientUnits="userSpaceOnUse">
<stop stop-color="#333333"/>
<stop offset="0.5" stop-color="#5C5C5C"/>
<stop offset="1" stop-color="#808080"/>
</linearGradient>
<linearGradient id="paint18_linear_329_862" x1="422.99" y1="32.7077" x2="435.11" y2="12.6244" gradientUnits="userSpaceOnUse">
<stop stop-color="#333333"/>
<stop offset="0.5" stop-color="#5C5C5C"/>
<stop offset="1" stop-color="#808080"/>
</linearGradient>
<linearGradient id="paint19_linear_329_862" x1="406.834" y1="25.1211" x2="418.012" y2="6.59932" gradientUnits="userSpaceOnUse">
<stop stop-color="#333333"/>
<stop offset="0.5" stop-color="#5C5C5C"/>
<stop offset="1" stop-color="#808080"/>
</linearGradient>
<linearGradient id="paint20_linear_329_862" x1="432.793" y1="30.6658" x2="444.53" y2="11.2141" gradientUnits="userSpaceOnUse">
<stop stop-color="#333333"/>
<stop offset="0.5" stop-color="#5C5C5C"/>
<stop offset="1" stop-color="#808080"/>
</linearGradient>
<linearGradient id="paint21_linear_329_862" x1="407.216" y1="10.7278" x2="407.216" y2="5.88648" gradientUnits="userSpaceOnUse">
<stop stop-color="#E9E9E9" stop-opacity="0"/>
<stop offset="0.38" stop-color="#E7E7E7" stop-opacity="0.02"/>
<stop offset="0.54" stop-color="#E1E1E1" stop-opacity="0.07"/>
<stop offset="0.65" stop-color="#D7D7D7" stop-opacity="0.17"/>
<stop offset="0.75" stop-color="#C9C9C9" stop-opacity="0.31"/>
<stop offset="0.84" stop-color="#B6B6B6" stop-opacity="0.49"/>
<stop offset="0.91" stop-color="#9F9F9F" stop-opacity="0.71"/>
<stop offset="0.98" stop-color="#848484" stop-opacity="0.96"/>
<stop offset="0.99" stop-color="#808080"/>
</linearGradient>
<linearGradient id="paint22_linear_329_862" x1="438.725" y1="61.2577" x2="446.519" y2="48.342" gradientUnits="userSpaceOnUse">
<stop stop-color="#333333"/>
<stop offset="0.24" stop-color="#373737"/>
<stop offset="0.47" stop-color="#424242"/>
<stop offset="0.68" stop-color="#545454"/>
<stop offset="0.88" stop-color="#6E6E6E"/>
<stop offset="1" stop-color="#808080"/>
</linearGradient>
<linearGradient id="paint23_linear_329_862" x1="438.471" y1="77.4755" x2="445.636" y2="67.238" gradientUnits="userSpaceOnUse">
<stop stop-color="#1A1A1A"/>
<stop offset="0.29" stop-color="#1E1E1E"/>
<stop offset="0.56" stop-color="#292929"/>
<stop offset="0.82" stop-color="#3B3B3B"/>
<stop offset="1" stop-color="#4D4D4D"/>
</linearGradient>
<linearGradient id="paint24_linear_329_862" x1="435.145" y1="76.7985" x2="435.145" y2="71.5783" gradientUnits="userSpaceOnUse">
<stop stop-color="#4D4D4D" stop-opacity="0.2"/>
<stop offset="0.01" stop-color="#4B4B4B" stop-opacity="0.23"/>
<stop offset="0.35" stop-color="#252525" stop-opacity="0.82"/>
<stop offset="1" stop-color="#1A1A1A"/>
</linearGradient>
<linearGradient id="paint25_linear_329_862" x1="334.056" y1="87.6204" x2="334.056" y2="61.7048" gradientUnits="userSpaceOnUse">
<stop stop-color="#333333"/>
<stop offset="0.03" stop-color="#444444"/>
<stop offset="0.07" stop-color="#575757"/>
<stop offset="0.12" stop-color="#626262"/>
<stop offset="0.16" stop-color="#666666"/>
<stop offset="0.25" stop-color="#565656"/>
<stop offset="0.42" stop-color="#3C3C3C"/>
<stop offset="0.6" stop-color="#292929"/>
<stop offset="0.79" stop-color="#1E1E1E"/>
<stop offset="0.99" stop-color="#1A1A1A"/>
</linearGradient>
<linearGradient id="paint26_linear_329_862" x1="350.677" y1="-78.695" x2="350.677" y2="-78.695" gradientUnits="userSpaceOnUse">
<stop stop-color="#333333"/>
<stop offset="0.03" stop-color="#444444"/>
<stop offset="0.07" stop-color="#575757"/>
<stop offset="0.12" stop-color="#626262"/>
<stop offset="0.16" stop-color="#666666"/>
<stop offset="0.25" stop-color="#565656"/>
<stop offset="0.42" stop-color="#3C3C3C"/>
<stop offset="0.6" stop-color="#292929"/>
<stop offset="0.79" stop-color="#1E1E1E"/>
<stop offset="0.99" stop-color="#1A1A1A"/>
</linearGradient>
<linearGradient id="paint27_linear_329_862" x1="367.298" y1="-78.695" x2="367.298" y2="-78.695" gradientUnits="userSpaceOnUse">
<stop stop-color="#333333"/>
<stop offset="0.03" stop-color="#444444"/>
<stop offset="0.07" stop-color="#575757"/>
<stop offset="0.12" stop-color="#626262"/>
<stop offset="0.16" stop-color="#666666"/>
<stop offset="0.25" stop-color="#565656"/>
<stop offset="0.42" stop-color="#3C3C3C"/>
<stop offset="0.6" stop-color="#292929"/>
<stop offset="0.79" stop-color="#1E1E1E"/>
<stop offset="0.99" stop-color="#1A1A1A"/>
</linearGradient>
<linearGradient id="paint28_linear_329_862" x1="387.751" y1="66.5233" x2="387.751" y2="49.7437" gradientUnits="userSpaceOnUse">
<stop stop-color="#1A1A1A"/>
<stop offset="0.18" stop-color="#202020"/>
<stop offset="0.43" stop-color="#323232"/>
<stop offset="0.7" stop-color="#4D4D4D"/>
<stop offset="0.76" stop-color="#444444"/>
<stop offset="0.88" stop-color="#373737"/>
<stop offset="0.99" stop-color="#333333"/>
</linearGradient>
<linearGradient id="paint29_linear_329_862" x1="301.841" y1="83.9181" x2="301.841" y2="60.3834" gradientUnits="userSpaceOnUse">
<stop stop-color="#1A1A1A"/>
<stop offset="0.2" stop-color="#363636"/>
<stop offset="0.56" stop-color="#666666"/>
<stop offset="0.76" stop-color="#4D4D4D"/>
<stop offset="0.99" stop-color="#333333"/>
</linearGradient>
<radialGradient id="paint30_radial_329_862" cx="0" cy="0" r="1" gradientUnits="userSpaceOnUse" gradientTransform="translate(258.171 82.9571) scale(0.125339 0.132426)">
<stop stop-color="#1A1A1A"/>
<stop offset="0.48" stop-color="#1C1C1C"/>
<stop offset="0.65" stop-color="#232323"/>
<stop offset="0.78" stop-color="#2E2E2E"/>
<stop offset="0.81" stop-color="#333333"/>
<stop offset="1" stop-color="#1A1A1A"/>
</radialGradient>
<radialGradient id="paint31_radial_329_862" cx="0" cy="0" r="1" gradientUnits="userSpaceOnUse" gradientTransform="translate(258.171 82.9571) scale(9.69875 10.2471)">
<stop offset="0.25" stop-color="#333333"/>
<stop offset="0.33"/>
<stop offset="0.64" stop-color="#020202"/>
<stop offset="0.76" stop-color="#090909"/>
<stop offset="0.84" stop-color="#141414"/>
<stop offset="0.9" stop-color="#252525"/>
<stop offset="0.94" stop-color="#333333"/>
<stop offset="1" stop-color="#1A1A1A"/>
</radialGradient>
<linearGradient id="paint32_linear_329_862" x1="257.155" y1="-107.458" x2="257.155" y2="60.3834" gradientUnits="userSpaceOnUse">
<stop stop-color="#1A1A1A"/>
<stop offset="0.2" stop-color="#363636"/>
<stop offset="0.56" stop-color="#666666"/>
<stop offset="0.76" stop-color="#4D4D4D"/>
<stop offset="0.99" stop-color="#333333"/>
</linearGradient>
<linearGradient id="paint33_linear_329_862" x1="82.0146" y1="83.3484" x2="82.0146" y2="55.7241" gradientUnits="userSpaceOnUse">
<stop stop-color="#1A1A1A"/>
<stop offset="0.05" stop-color="#222222"/>
<stop offset="0.27" stop-color="#474747"/>
<stop offset="0.45" stop-color="#5E5E5E"/>
<stop offset="0.56" stop-color="#666666"/>
<stop offset="0.69" stop-color="#5B5B5B"/>
<stop offset="0.92" stop-color="#3C3C3C"/>
<stop offset="0.99" stop-color="#333333"/>
</linearGradient>
<linearGradient id="paint34_linear_329_862" x1="375.472" y1="32.7989" x2="380.377" y2="32.7989" gradientUnits="userSpaceOnUse">
<stop offset="0.01" stop-color="#4D4D4D"/>
<stop offset="0.36" stop-color="#353535"/>
<stop offset="0.74" stop-color="#212121"/>
<stop offset="1" stop-color="#1A1A1A"/>
</linearGradient>
</defs>
</svg>
